WIPSHDC-Old-Traditional-Sans-Heavy.ufo
<glyph name="uni35C1" format="2">
	<advance width="1000" height="1000"/>
	<unicode hex="35C1"/>
	<note>
		cid02919
	</note>
	<outline>
		<contour>
			<point x="363" y="758" type="line"/>
			<point x="137" y="758" type="line"/>
			<point x="137" y="624" type="line"/>
			<point x="235" y="624" type="line"/>
			<point x="235" y="297" type="line"/>
			<point x="137" y="297" type="line"/>
			<point x="137" y="163" type="line"/>
			<point x="363" y="163" type="line"/>
		</contour>
		<contour>
			<point x="187" y="758" type="line"/>
			<point x="59" y="758" type="line"/>
			<point x="59" y="87" type="line"/>
			<point x="187" y="87" type="line"/>
		</contour>
		<contour>
			<point x="975" y="359" type="line"/>
			<point x="394" y="359" type="line"/>
			<point x="394" y="242" type="line"/>
			<point x="975" y="242" type="line"/>
		</contour>
		<contour>
			<point x="907" y="509" type="line"/>
			<point x="461" y="509" type="line"/>
			<point x="461" y="394" type="line"/>
			<point x="907" y="394" type="line"/>
		</contour>
		<contour>
			<point x="824" y="205" type="line"/>
			<point x="562" y="205" type="line"/>
			<point x="562" y="92" type="line"/>
			<point x="824" y="92" type="line"/>
		</contour>
		<contour>
			<point x="913" y="205" type="curve"/>
			<point x="773" y="205" type="line"/>
			<point x="773" y="189" type="line"/>
			<point x="767" y="87"/>
			<point x="759" y="42"/>
			<point x="746" y="29" type="curve"/>
			<point x="737" y="22"/>
			<point x="727" y="20"/>
			<point x="713" y="20" type="curve" smooth="yes"/>
			<point x="694" y="20"/>
			<point x="657" y="21"/>
			<point x="618" y="25" type="curve"/>
			<point x="638" y="-7"/>
			<point x="653" y="-57"/>
			<point x="655" y="-94" type="curve"/>
			<point x="705" y="-95"/>
			<point x="752" y="-94"/>
			<point x="780" y="-91" type="curve" smooth="yes"/>
			<point x="813" y="-87"/>
			<point x="840" y="-79"/>
			<point x="863" y="-54" type="curve" smooth="yes"/>
			<point x="889" y="-27"/>
			<point x="901" y="35"/>
			<point x="910" y="158" type="curve" smooth="yes"/>
			<point x="912" y="174"/>
			<point x="913" y="205"/>
		</contour>
		<contour>
			<point x="665" y="305" type="curve"/>
			<point x="517" y="305" type="line"/>
			<point x="502" y="230"/>
			<point x="478" y="140"/>
			<point x="456" y="78" type="curve"/>
			<point x="595" y="46" type="line"/>
			<point x="617" y="114"/>
			<point x="644" y="217"/>
		</contour>
		<contour>
			<point x="520" y="648" type="line"/>
			<point x="520" y="718" type="line"/>
			<point x="557" y="718" type="line"/>
			<point x="557" y="648" type="line"/>
		</contour>
		<contour>
			<point x="667" y="822" type="line"/>
			<point x="417" y="822" type="line"/>
			<point x="417" y="544" type="line"/>
			<point x="667" y="544" type="line"/>
		</contour>
		<contour>
			<point x="799" y="648" type="line"/>
			<point x="799" y="718" type="line"/>
			<point x="839" y="718" type="line"/>
			<point x="839" y="648" type="line"/>
		</contour>
		<contour>
			<point x="949" y="822" type="line"/>
			<point x="696" y="822" type="line"/>
			<point x="696" y="544" type="line"/>
			<point x="949" y="544" type="line"/>
		</contour>
	</outline>
</glyph>
<glyph name="uni35D6" format="2">
	<advance width="1000" height="1000"/>
	<unicode hex="35D6"/>
	<note>
		cid02941
	</note>
	<outline>
		<contour>
			<point x="351" y="743" type="line"/>
			<point x="130" y="743" type="line"/>
			<point x="130" y="612" type="line"/>
			<point x="229" y="612" type="line"/>
			<point x="229" y="285" type="line"/>
			<point x="130" y="285" type="line"/>
			<point x="130" y="153" type="line"/>
			<point x="351" y="153" type="line"/>
		</contour>
		<contour>
			<point x="180" y="743" type="line"/>
			<point x="59" y="743" type="line"/>
			<point x="59" y="72" type="line"/>
			<point x="180" y="72" type="line"/>
		</contour>
		<contour>
			<point x="847" y="421" type="line"/>
			<point x="680" y="421" type="line"/>
			<point x="680" y="300" type="line"/>
			<point x="847" y="300" type="line"/>
		</contour>
		<contour>
			<point x="650" y="248" type="line"/>
			<point x="483" y="248" type="line"/>
			<point x="483" y="131" type="line"/>
			<point x="650" y="131" type="line"/>
		</contour>
		<contour>
			<point x="869" y="72" type="line"/>
			<point x="495" y="72" type="line"/>
			<point x="495" y="-52" type="line"/>
			<point x="869" y="-52" type="line"/>
		</contour>
		<contour>
			<point x="838" y="248" type="line"/>
			<point x="689" y="248" type="line"/>
			<point x="689" y="131" type="line"/>
			<point x="838" y="131" type="line"/>
		</contour>
		<contour>
			<point x="696" y="376" type="curve"/>
			<point x="591" y="471" type="line"/>
			<point x="553" y="439"/>
			<point x="491" y="404"/>
			<point x="433" y="381" type="curve"/>
			<point x="449" y="355"/>
			<point x="468" y="311"/>
			<point x="475" y="284" type="curve"/>
			<point x="545" y="305"/>
			<point x="628" y="337"/>
		</contour>
		<contour>
			<point x="542" y="391" type="line"/>
			<point x="404" y="427" type="line"/>
			<point x="404" y="-94" type="line"/>
			<point x="542" y="-94" type="line"/>
		</contour>
		<contour>
			<point x="947" y="421" type="line"/>
			<point x="806" y="421" type="line"/>
			<point x="806" y="-88" type="line"/>
			<point x="947" y="-88" type="line"/>
		</contour>
		<contour>
			<point x="932" y="751" type="curve"/>
			<point x="827" y="851" type="line"/>
			<point x="738" y="819"/>
			<point x="597" y="787"/>
			<point x="469" y="768" type="curve"/>
			<point x="483" y="741"/>
			<point x="501" y="693"/>
			<point x="507" y="664" type="curve"/>
			<point x="644" y="681"/>
			<point x="806" y="710"/>
		</contour>
		<contour>
			<point x="578" y="768" type="curve"/>
			<point x="435" y="791" type="line"/>
			<point x="420" y="677"/>
			<point x="384" y="562"/>
			<point x="328" y="494" type="curve"/>
			<point x="363" y="479"/>
			<point x="429" y="446"/>
			<point x="458" y="425" type="curve"/>
			<point x="513" y="505"/>
			<point x="557" y="634"/>
		</contour>
		<contour>
			<point x="702" y="677" type="curve"/>
			<point x="580" y="646" type="line"/>
			<point x="600" y="591"/>
			<point x="617" y="516"/>
			<point x="621" y="468" type="curve"/>
			<point x="750" y="503" type="line"/>
			<point x="743" y="551"/>
			<point x="724" y="622"/>
		</contour>
		<contour>
			<point x="877" y="723" type="curve"/>
			<point x="761" y="677" type="line"/>
			<point x="804" y="607"/>
			<point x="847" y="512"/>
			<point x="862" y="450" type="curve"/>
			<point x="986" y="504" type="line"/>
			<point x="967" y="566"/>
			<point x="923" y="655"/>
		</contour>
	</outline>
</glyph>
<glyph name="uni37FB" format="2">
	<advance width="1000" height="1000"/>
	<unicode hex="37FB"/>
	<note>
		cid03557
	</note>
	<outline>
		<contour>
			<point x="509" y="808" type="line"/>
			<point x="45" y="808" type="line"/>
			<point x="45" y="711" type="line"/>
			<point x="509" y="711" type="line"/>
		</contour>
		<contour>
			<point x="339" y="855" type="line"/>
			<point x="211" y="855" type="line"/>
			<point x="211" y="225" type="line"/>
			<point x="339" y="225" type="line"/>
		</contour>
		<contour>
			<point x="165" y="494" type="line"/>
			<point x="165" y="517" type="line"/>
			<point x="389" y="517" type="line"/>
			<point x="389" y="494" type="line"/>
		</contour>
		<contour>
			<point x="165" y="588" type="line"/>
			<point x="165" y="610" type="line"/>
			<point x="389" y="610" type="line"/>
			<point x="389" y="588" type="line"/>
		</contour>
		<contour>
			<point x="503" y="686" type="line"/>
			<point x="56" y="686" type="line"/>
			<point x="56" y="418" type="line"/>
			<point x="503" y="418" type="line"/>
		</contour>
		<contour>
			<point x="496" y="392" type="line"/>
			<point x="32" y="392" type="line"/>
			<point x="32" y="292" type="line"/>
			<point x="496" y="292" type="line"/>
		</contour>
		<contour>
			<point x="568" y="230" type="line"/>
			<point x="420" y="230" type="line"/>
			<point x="420" y="0" type="line"/>
			<point x="568" y="0" type="line"/>
		</contour>
		<contour>
			<point x="253" y="189" type="line"/>
			<point x="112" y="189" type="line"/>
			<point x="112" y="-95" type="line"/>
			<point x="253" y="-95" type="line"/>
		</contour>
		<contour>
			<point x="808" y="68" type="line"/>
			<point x="193" y="68" type="line"/>
			<point x="193" y="-59" type="line"/>
			<point x="808" y="-59" type="line"/>
		</contour>
		<contour>
			<point x="890" y="190" type="line"/>
			<point x="748" y="190" type="line"/>
			<point x="748" y="-94" type="line"/>
			<point x="890" y="-94" type="line"/>
		</contour>
		<contour>
			<point x="960" y="634" type="line"/>
			<point x="608" y="634" type="line"/>
			<point x="608" y="513" type="line"/>
			<point x="960" y="513" type="line"/>
		</contour>
		<contour>
			<point x="873" y="579" type="line"/>
			<point x="740" y="579" type="line"/>
			<point x="740" y="237" type="line"/>
			<point x="873" y="237" type="line"/>
		</contour>
		<contour>
			<point x="955" y="756" type="curve"/>
			<point x="854" y="852" type="line"/>
			<point x="786" y="819"/>
			<point x="676" y="786"/>
			<point x="575" y="766" type="curve"/>
			<point x="590" y="740"/>
			<point x="608" y="695"/>
			<point x="614" y="668" type="curve"/>
			<point x="725" y="686"/>
			<point x="854" y="715"/>
		</contour>
		<contour>
			<point x="708" y="775" type="curve"/>
			<point x="552" y="811" type="line"/>
			<point x="552" y="597" type="line" smooth="yes"/>
			<point x="552" y="509"/>
			<point x="544" y="394"/>
			<point x="467" y="314" type="curve"/>
			<point x="501" y="292"/>
			<point x="542" y="250"/>
			<point x="561" y="218" type="curve"/>
			<point x="663" y="320"/>
			<point x="680" y="488"/>
			<point x="680" y="592" type="curve" smooth="yes"/>
			<point x="680" y="756" type="line"/>
			<point x="699" y="759"/>
			<point x="706" y="765"/>
		</contour>
	</outline>
</glyph>
<glyph name="uni3863" format="2">
	<advance width="1000" height="1000"/>
	<unicode hex="3863"/>
	<note>
		cid03669
	</note>
	<outline>
		<contour>
			<point x="957" y="794" type="line"/>
			<point x="587" y="794" type="line"/>
			<point x="587" y="678" type="line"/>
			<point x="957" y="678" type="line"/>
		</contour>
		<contour>
			<point x="921" y="364" type="line"/>
			<point x="587" y="364" type="line"/>
			<point x="587" y="283" type="line"/>
			<point x="921" y="283" type="line"/>
		</contour>
		<contour>
			<point x="916" y="254" type="line"/>
			<point x="596" y="254" type="line"/>
			<point x="596" y="173" type="line"/>
			<point x="916" y="173" type="line"/>
		</contour>
		<contour>
			<point x="926" y="146" type="line"/>
			<point x="579" y="146" type="line"/>
			<point x="579" y="65" type="line"/>
			<point x="926" y="65" type="line"/>
		</contour>
		<contour>
			<point x="675" y="855" type="line"/>
			<point x="533" y="855" type="line"/>
			<point x="533" y="567" type="line"/>
			<point x="675" y="567" type="line"/>
		</contour>
		<contour>
			<point x="919" y="638" type="line"/>
			<point x="533" y="638" type="line"/>
			<point x="533" y="532" type="line"/>
			<point x="780" y="532" type="line"/>
			<point x="780" y="496" type="line"/>
			<point x="533" y="496" type="line"/>
			<point x="533" y="390" type="line"/>
			<point x="919" y="390" type="line"/>
		</contour>
		<contour>
			<point x="675" y="73" type="curve" smooth="yes"/>
			<point x="675" y="444" type="line"/>
			<point x="533" y="444" type="line"/>
			<point x="533" y="71" type="line" smooth="yes"/>
			<point x="533" y="-54"/>
			<point x="571" y="-88"/>
			<point x="695" y="-88" type="curve" smooth="yes"/>
			<point x="723" y="-88"/>
			<point x="803" y="-88"/>
			<point x="831" y="-88" type="curve" smooth="yes"/>
			<point x="930" y="-88"/>
			<point x="967" y="-54"/>
			<point x="982" y="54" type="curve"/>
			<point x="944" y="62"/>
			<point x="889" y="82"/>
			<point x="860" y="102" type="curve"/>
			<point x="855" y="41"/>
			<point x="848" y="27"/>
			<point x="817" y="27" type="curve" smooth="yes"/>
			<point x="798" y="27"/>
			<point x="734" y="27"/>
			<point x="718" y="27" type="curve" smooth="yes"/>
			<point x="681" y="27"/>
			<point x="675" y="32"/>
		</contour>
		<contour>
			<point x="512" y="762" type="line"/>
			<point x="39" y="762" type="line"/>
			<point x="39" y="645" type="line"/>
			<point x="512" y="645" type="line"/>
		</contour>
		<contour>
			<point x="334" y="855" type="line"/>
			<point x="205" y="855" type="line"/>
			<point x="205" y="711" type="line"/>
			<point x="334" y="711" type="line"/>
		</contour>
		<contour>
			<point x="328" y="432" type="line"/>
			<point x="211" y="432" type="line"/>
			<point x="211" y="-95" type="line"/>
			<point x="328" y="-95" type="line"/>
		</contour>
		<contour>
			<point x="212" y="665" type="curve"/>
			<point x="106" y="639" type="line"/>
			<point x="117" y="604"/>
			<point x="128" y="557"/>
			<point x="131" y="528" type="curve"/>
			<point x="243" y="558" type="line"/>
			<point x="239" y="586"/>
			<point x="226" y="631"/>
		</contour>
		<contour>
			<point x="450" y="638" type="curve"/>
			<point x="327" y="663" type="line"/>
			<point x="323" y="633"/>
			<point x="312" y="592"/>
			<point x="302" y="560" type="curve"/>
			<point x="410" y="536" type="line"/>
			<point x="422" y="568"/>
			<point x="437" y="608"/>
		</contour>
		<contour>
			<point x="509" y="552" type="line"/>
			<point x="36" y="552" type="line"/>
			<point x="36" y="376" type="line"/>
			<point x="150" y="376" type="line"/>
			<point x="150" y="447" type="line"/>
			<point x="389" y="447" type="line"/>
			<point x="389" y="377" type="line"/>
			<point x="509" y="377" type="line"/>
		</contour>
		<contour>
			<point x="416" y="354" type="line"/>
			<point x="61" y="354" type="line"/>
			<point x="61" y="10" type="line"/>
			<point x="176" y="10" type="line"/>
			<point x="176" y="240" type="line"/>
			<point x="416" y="240" type="line"/>
		</contour>
		<contour>
			<point x="483" y="129" type="curve" smooth="yes"/>
			<point x="483" y="354" type="line"/>
			<point x="365" y="354" type="line"/>
			<point x="365" y="131" type="line" smooth="yes"/>
			<point x="365" y="124"/>
			<point x="363" y="122"/>
			<point x="357" y="122" type="curve" smooth="yes"/>
			<point x="351" y="122"/>
			<point x="338" y="122"/>
			<point x="326" y="122" type="curve"/>
			<point x="340" y="92"/>
			<point x="353" y="46"/>
			<point x="356" y="13" type="curve"/>
			<point x="393" y="13"/>
			<point x="424" y="15"/>
			<point x="451" y="33" type="curve" smooth="yes"/>
			<point x="478" y="52"/>
			<point x="483" y="81"/>
		</contour>
	</outline>
</glyph>
<glyph name="uni38C3" format="2">
	<advance width="1000" height="1000"/>
	<unicode hex="38C3"/>
	<note>
		cid03768
	</note>
	<outline>
		<contour>
			<point x="247" y="388" type="line"/>
			<point x="98" y="388" type="line"/>
			<point x="98" y="263" type="line"/>
			<point x="247" y="263" type="line"/>
		</contour>
		<contour>
			<point x="313" y="388" type="curve"/>
			<point x="186" y="388" type="line"/>
			<point x="186" y="367" type="line"/>
			<point x="181" y="140"/>
			<point x="173" y="56"/>
			<point x="159" y="36" type="curve" smooth="yes"/>
			<point x="152" y="26"/>
			<point x="142" y="23"/>
			<point x="130" y="23" type="curve" smooth="yes"/>
			<point x="114" y="23"/>
			<point x="87" y="23"/>
			<point x="56" y="27" type="curve"/>
			<point x="75" y="-6"/>
			<point x="88" y="-57"/>
			<point x="91" y="-93" type="curve"/>
			<point x="133" y="-94"/>
			<point x="173" y="-93"/>
			<point x="198" y="-88" type="curve" smooth="yes"/>
			<point x="227" y="-83"/>
			<point x="249" y="-74"/>
			<point x="270" y="-45" type="curve" smooth="yes"/>
			<point x="295" y="-11"/>
			<point x="304" y="90"/>
			<point x="311" y="339" type="curve"/>
			<point x="312" y="354"/>
			<point x="313" y="388"/>
		</contour>
		<contour>
			<point x="169" y="590" type="curve"/>
			<point x="54" y="590" type="line"/>
			<point x="48" y="477"/>
			<point x="35" y="335"/>
			<point x="21" y="244" type="curve"/>
			<point x="139" y="232" type="line"/>
			<point x="151" y="324"/>
			<point x="162" y="471"/>
		</contour>
		<contour>
			<point x="180" y="590" type="line"/>
			<point x="86" y="590" type="line"/>
			<point x="86" y="464" type="line"/>
			<point x="306" y="464" type="line"/>
			<point x="306" y="819" type="line"/>
			<point x="34" y="819" type="line"/>
			<point x="34" y="692" type="line"/>
			<point x="180" y="692" type="line"/>
		</contour>
		<contour>
			<point x="899" y="388" type="line"/>
			<point x="750" y="388" type="line"/>
			<point x="750" y="263" type="line"/>
			<point x="899" y="263" type="line"/>
		</contour>
		<contour>
			<point x="972" y="388" type="curve"/>
			<point x="844" y="388" type="line"/>
			<point x="844" y="367" type="line"/>
			<point x="839" y="141"/>
			<point x="829" y="55"/>
			<point x="814" y="36" type="curve" smooth="yes"/>
			<point x="806" y="26"/>
			<point x="796" y="23"/>
			<point x="783" y="23" type="curve" smooth="yes"/>
			<point x="766" y="23"/>
			<point x="736" y="23"/>
			<point x="702" y="27" type="curve"/>
			<point x="721" y="-6"/>
			<point x="735" y="-58"/>
			<point x="737" y="-94" type="curve"/>
			<point x="782" y="-95"/>
			<point x="823" y="-95"/>
			<point x="849" y="-90" type="curve" smooth="yes"/>
			<point x="880" y="-85"/>
			<point x="903" y="-75"/>
			<point x="925" y="-46" type="curve" smooth="yes"/>
			<point x="952" y="-11"/>
			<point x="962" y="90"/>
			<point x="971" y="338" type="curve"/>
			<point x="971" y="354"/>
			<point x="972" y="388"/>
		</contour>
		<contour>
			<point x="820" y="590" type="curve"/>
			<point x="705" y="590" type="line"/>
			<point x="699" y="477"/>
			<point x="684" y="335"/>
			<point x="670" y="244" type="curve"/>
			<point x="788" y="232" type="line"/>
			<point x="800" y="324"/>
			<point x="813" y="471"/>
		</contour>
		<contour>
			<point x="834" y="590" type="line"/>
			<point x="738" y="590" type="line"/>
			<point x="738" y="464" type="line"/>
			<point x="960" y="464" type="line"/>
			<point x="960" y="819" type="line"/>
			<point x="692" y="819" type="line"/>
			<point x="692" y="692" type="line"/>
			<point x="834" y="692" type="line"/>
		</contour>
		<contour>
			<point x="566" y="855" type="line"/>
			<point x="437" y="855" type="line"/>
			<point x="437" y="706" type="line"/>
			<point x="566" y="706" type="line"/>
		</contour>
		<contour>
			<point x="677" y="770" type="line"/>
			<point x="321" y="770" type="line"/>
			<point x="321" y="657" type="line"/>
			<point x="677" y="657" type="line"/>
		</contour>
		<contour>
			<point x="530" y="677" type="curve"/>
			<point x="406" y="703" type="line"/>
			<point x="396" y="648"/>
			<point x="375" y="571"/>
			<point x="356" y="520" type="curve"/>
			<point x="453" y="494" type="line"/>
			<point x="476" y="540"/>
			<point x="503" y="611"/>
		</contour>
		<contour>
			<point x="317" y="566" type="curve"/>
			<point x="338" y="452" type="line"/>
			<point x="419" y="460"/>
			<point x="520" y="470"/>
			<point x="618" y="481" type="curve"/>
			<point x="616" y="585" type="line"/>
			<point x="505" y="577"/>
			<point x="395" y="570"/>
		</contour>
		<contour>
			<point x="618" y="656" type="curve"/>
			<point x="526" y="617" type="line"/>
			<point x="557" y="562"/>
			<point x="587" y="488"/>
			<point x="597" y="442" type="curve"/>
			<point x="696" y="486" type="line"/>
			<point x="684" y="533"/>
			<point x="650" y="603"/>
		</contour>
		<contour>
			<point x="588" y="434" type="line"/>
			<point x="343" y="434" type="line"/>
			<point x="343" y="-94" type="line"/>
			<point x="460" y="-94" type="line"/>
			<point x="460" y="331" type="line"/>
			<point x="588" y="331" type="line"/>
		</contour>
		<contour>
			<point x="582" y="300" type="line"/>
			<point x="412" y="300" type="line"/>
			<point x="412" y="209" type="line"/>
			<point x="582" y="209" type="line"/>
		</contour>
		<contour>
			<point x="581" y="178" type="line"/>
			<point x="411" y="178" type="line"/>
			<point x="411" y="84" type="line"/>
			<point x="581" y="84" type="line"/>
		</contour>
		<contour>
			<point x="652" y="29" type="curve" smooth="yes"/>
			<point x="652" y="434" type="line"/>
			<point x="535" y="434" type="line"/>
			<point x="535" y="31" type="line" smooth="yes"/>
			<point x="535" y="23"/>
			<point x="533" y="20"/>
			<point x="525" y="20" type="curve" smooth="yes"/>
			<point x="517" y="20"/>
			<point x="497" y="20"/>
			<point x="478" y="21" type="curve"/>
			<point x="493" y="-10"/>
			<point x="507" y="-60"/>
			<point x="510" y="-93" type="curve"/>
			<point x="554" y="-93"/>
			<point x="588" y="-91"/>
			<point x="617" y="-72" type="curve" smooth="yes"/>
			<point x="646" y="-52"/>
			<point x="652" y="-20"/>
		</contour>
	</outline>
</glyph>
<glyph name="uni399B" format="2">
	<advance width="1000" height="1000"/>
	<unicode hex="399B"/>
	<note>
		cid03992
	</note>
	<outline>
		<contour>
			<point x="964" y="463" type="line"/>
			<point x="41" y="463" type="line"/>
			<point x="41" y="347" type="line"/>
			<point x="964" y="347" type="line"/>
		</contour>
		<contour>
			<point x="382" y="772" type="curve"/>
			<point x="309" y="856" type="line"/>
			<point x="273" y="835"/>
			<point x="217" y="811"/>
			<point x="169" y="793" type="curve"/>
			<point x="180" y="771"/>
			<point x="194" y="736"/>
			<point x="199" y="715" type="curve"/>
			<point x="253" y="728"/>
			<point x="322" y="748"/>
		</contour>
		<contour>
			<point x="276" y="799" type="curve"/>
			<point x="120" y="823" type="line"/>
			<point x="135" y="417" type="line"/>
			<point x="262" y="417" type="line"/>
			<point x="248" y="781" type="line"/>
			<point x="266" y="784"/>
			<point x="274" y="790"/>
		</contour>
		<contour>
			<point x="343" y="701" type="line"/>
			<point x="176" y="701" type="line"/>
			<point x="176" y="611" type="line"/>
			<point x="343" y="611" type="line"/>
		</contour>
		<contour>
			<point x="813" y="701" type="line"/>
			<point x="650" y="701" type="line"/>
			<point x="650" y="611" type="line"/>
			<point x="813" y="611" type="line"/>
		</contour>
		<contour>
			<point x="813" y="582" type="line"/>
			<point x="646" y="582" type="line"/>
			<point x="646" y="492" type="line"/>
			<point x="813" y="492" type="line"/>
		</contour>
		<contour>
			<point x="813" y="825" type="line"/>
			<point x="646" y="825" type="line"/>
			<point x="646" y="730" type="line"/>
			<point x="813" y="730" type="line"/>
		</contour>
		<contour>
			<point x="343" y="582" type="line"/>
			<point x="180" y="582" type="line"/>
			<point x="180" y="492" type="line"/>
			<point x="343" y="492" type="line"/>
		</contour>
		<contour>
			<point x="626" y="803" type="line"/>
			<point x="450" y="803" type="line"/>
			<point x="442" y="711" type="line"/>
			<point x="626" y="711" type="line"/>
		</contour>
		<contour>
			<point x="566" y="680" type="line"/>
			<point x="417" y="680" type="line"/>
			<point x="409" y="590" type="line"/>
			<point x="566" y="590" type="line"/>
		</contour>
		<contour>
			<point x="502" y="847" type="curve"/>
			<point x="388" y="852" type="line"/>
			<point x="386" y="766"/>
			<point x="379" y="656"/>
			<point x="370" y="586" type="curve"/>
			<point x="481" y="578" type="line"/>
			<point x="490" y="648"/>
			<point x="497" y="757"/>
		</contour>
		<contour>
			<point x="620" y="680" type="line"/>
			<point x="504" y="680" type="line"/>
			<point x="504" y="423" type="line"/>
			<point x="620" y="423" type="line"/>
		</contour>
		<contour>
			<point x="469" y="568" type="line"/>
			<point x="366" y="568" type="line"/>
			<point x="366" y="446" type="line"/>
			<point x="469" y="446" type="line"/>
		</contour>
		<contour>
			<point x="874" y="825" type="curve"/>
			<point x="742" y="825" type="line"/>
			<point x="742" y="691"/>
			<point x="734" y="527"/>
			<point x="723" y="419" type="curve"/>
			<point x="857" y="419" type="line"/>
			<point x="866" y="523"/>
			<point x="872" y="689"/>
		</contour>
		<contour>
			<point x="392" y="379" type="curve"/>
			<point x="273" y="418" type="line"/>
			<point x="225" y="334"/>
			<point x="130" y="260"/>
			<point x="19" y="223" type="curve"/>
			<point x="48" y="198"/>
			<point x="88" y="147"/>
			<point x="108" y="115" type="curve"/>
			<point x="232" y="166"/>
			<point x="331" y="263"/>
		</contour>
		<contour>
			<point x="730" y="420" type="curve"/>
			<point x="611" y="379" type="line"/>
			<point x="675" y="270"/>
			<point x="777" y="177"/>
			<point x="899" y="129" type="curve"/>
			<point x="918" y="162"/>
			<point x="959" y="213"/>
			<point x="988" y="238" type="curve"/>
			<point x="878" y="273"/>
			<point x="779" y="342"/>
		</contour>
		<contour>
			<point x="439" y="70" type="curve" smooth="yes"/>
			<point x="439" y="206" type="line"/>
			<point x="302" y="206" type="line"/>
			<point x="302" y="68" type="line" smooth="yes"/>
			<point x="302" y="-45"/>
			<point x="331" y="-83"/>
			<point x="462" y="-83" type="curve" smooth="yes"/>
			<point x="488" y="-83"/>
			<point x="562" y="-83"/>
			<point x="589" y="-83" type="curve" smooth="yes"/>
			<point x="684" y="-83"/>
			<point x="721" y="-53"/>
			<point x="736" y="67" type="curve"/>
			<point x="699" y="75"/>
			<point x="641" y="95"/>
			<point x="615" y="115" type="curve"/>
			<point x="610" y="48"/>
			<point x="604" y="38"/>
			<point x="575" y="38" type="curve" smooth="yes"/>
			<point x="555" y="38"/>
			<point x="497" y="38"/>
			<point x="481" y="38" type="curve" smooth="yes"/>
			<point x="445" y="38"/>
			<point x="439" y="41"/>
		</contour>
		<contour>
			<point x="484" y="329" type="curve"/>
			<point x="391" y="254" type="line"/>
			<point x="444" y="217"/>
			<point x="507" y="162"/>
			<point x="534" y="123" type="curve"/>
			<point x="634" y="205" type="line"/>
			<point x="603" y="245"/>
			<point x="538" y="296"/>
		</contour>
		<contour>
			<point x="779" y="207" type="curve"/>
			<point x="667" y="150" type="line"/>
			<point x="728" y="86"/>
			<point x="789" y="-2"/>
			<point x="810" y="-62" type="curve"/>
			<point x="931" y="0" type="line"/>
			<point x="906" y="64"/>
			<point x="841" y="147"/>
		</contour>
		<contour>
			<point x="293" y="141" type="curve"/>
			<point x="171" y="185" type="line"/>
			<point x="150" y="114"/>
			<point x="108" y="47"/>
			<point x="52" y="5" type="curve"/>
			<point x="166" y="-73" type="line"/>
			<point x="231" y="-20"/>
			<point x="268" y="60"/>
		</contour>
	</outline>
</glyph>
<glyph name="uni3A17" format="2">
	<advance width="1000" height="1000"/>
	<unicode hex="3A17"/>
	<note>
		cid04122
	</note>
	<outline>
		<contour>
			<point x="895" y="200" type="line"/>
			<point x="621" y="200" type="line"/>
			<point x="621" y="92" type="line"/>
			<point x="895" y="92" type="line"/>
		</contour>
		<contour>
			<point x="495" y="171" type="curve"/>
			<point x="403" y="140" type="line"/>
			<point x="471" y="-52"/>
			<point x="596" y="-87"/>
			<point x="760" y="-87" type="curve" smooth="yes"/>
			<point x="893" y="-87" type="line"/>
			<point x="937" y="-87" type="line"/>
			<point x="942" y="-52"/>
			<point x="959" y="6"/>
			<point x="975" y="34" type="curve"/>
			<point x="926" y="32"/>
			<point x="805" y="32"/>
			<point x="768" y="32" type="curve" smooth="yes"/>
			<point x="646" y="32"/>
			<point x="544" y="47"/>
		</contour>
		<contour>
			<point x="713" y="320" type="line"/>
			<point x="575" y="320" type="line"/>
			<point x="575" y="31" type="line"/>
			<point x="713" y="-11" type="line"/>
		</contour>
		<contour>
			<point x="524" y="215" type="curve"/>
			<point x="393" y="234" type="line"/>
			<point x="378" y="130"/>
			<point x="338" y="38"/>
			<point x="268" y="-17" type="curve"/>
			<point x="298" y="-35"/>
			<point x="352" y="-76"/>
			<point x="375" y="-99" type="curve"/>
			<point x="447" y="-33"/>
			<point x="500" y="79"/>
		</contour>
		<contour>
			<point x="970" y="500" type="line"/>
			<point x="344" y="500" type="line"/>
			<point x="344" y="386" type="line"/>
			<point x="970" y="386" type="line"/>
		</contour>
		<contour>
			<point x="912" y="639" type="line"/>
			<point x="404" y="639" type="line"/>
			<point x="404" y="528" type="line"/>
			<point x="771" y="528" type="line"/>
			<point x="771" y="356" type="line"/>
			<point x="404" y="356" type="line"/>
			<point x="404" y="245" type="line"/>
			<point x="912" y="245" type="line"/>
		</contour>
		<contour>
			<point x="905" y="792" type="line"/>
			<point x="609" y="792" type="line"/>
			<point x="609" y="683" type="line"/>
			<point x="905" y="683" type="line"/>
		</contour>
		<contour>
			<point x="701" y="856" type="line"/>
			<point x="563" y="856" type="line"/>
			<point x="563" y="586" type="line"/>
			<point x="701" y="586" type="line"/>
		</contour>
		<contour>
			<point x="17" y="361" type="curve"/>
			<point x="47" y="222" type="line"/>
			<point x="137" y="246"/>
			<point x="247" y="275"/>
			<point x="349" y="305" type="curve"/>
			<point x="331" y="435" type="line"/>
			<point x="218" y="406"/>
			<point x="98" y="377"/>
		</contour>
		<contour>
			<point x="345" y="672" type="line"/>
			<point x="34" y="672" type="line"/>
			<point x="34" y="539" type="line"/>
			<point x="345" y="539" type="line"/>
		</contour>
		<contour>
			<point x="261" y="54" type="curve" smooth="yes"/>
			<point x="261" y="854" type="line"/>
			<point x="128" y="854" type="line"/>
			<point x="128" y="54" type="line" smooth="yes"/>
			<point x="128" y="41"/>
			<point x="124" y="38"/>
			<point x="112" y="38" type="curve" smooth="yes"/>
			<point x="100" y="37"/>
			<point x="67" y="37"/>
			<point x="35" y="39" type="curve"/>
			<point x="52" y="0"/>
			<point x="68" y="-60"/>
			<point x="71" y="-96" type="curve"/>
			<point x="137" y="-96"/>
			<point x="183" y="-91"/>
			<point x="217" y="-68" type="curve" smooth="yes"/>
			<point x="251" y="-46"/>
			<point x="261" y="-9"/>
		</contour>
	</outline>
</glyph>
<glyph name="uni3ABD" format="2">
	<advance width="1000" height="1000"/>
	<unicode hex="3ABD"/>
	<note>
		cid04296
	</note>
	<outline>
		<contour>
			<point x="949" y="815" type="line"/>
			<point x="53" y="815" type="line"/>
			<point x="53" y="688" type="line"/>
			<point x="949" y="688" type="line"/>
		</contour>
		<contour>
			<point x="341" y="399" type="line"/>
			<point x="139" y="399" type="line"/>
			<point x="139" y="281" type="line"/>
			<point x="341" y="281" type="line"/>
		</contour>
		<contour>
			<point x="857" y="339" type="line"/>
			<point x="716" y="339" type="line"/>
			<point x="716" y="-94" type="line"/>
			<point x="857" y="-94" type="line"/>
		</contour>
		<contour>
			<point x="412" y="594" type="line"/>
			<point x="68" y="594" type="line"/>
			<point x="68" y="22" type="line"/>
			<point x="199" y="22" type="line"/>
			<point x="199" y="470" type="line"/>
			<point x="281" y="470" type="line"/>
			<point x="281" y="212" type="line"/>
			<point x="139" y="212" type="line"/>
			<point x="139" y="88" type="line"/>
			<point x="412" y="88" type="line"/>
		</contour>
		<contour>
			<point x="965" y="403" type="line"/>
			<point x="554" y="403" type="line"/>
			<point x="554" y="279" type="line"/>
			<point x="965" y="279" type="line"/>
		</contour>
		<contour>
			<point x="955" y="578" type="curve"/>
			<point x="850" y="679" type="line"/>
			<point x="771" y="639"/>
			<point x="641" y="602"/>
			<point x="514" y="582" type="curve"/>
			<point x="529" y="553"/>
			<point x="546" y="507"/>
			<point x="552" y="479" type="curve"/>
			<point x="703" y="499"/>
			<point x="858" y="538"/>
		</contour>
		<contour>
			<point x="644" y="569" type="curve"/>
			<point x="476" y="605" type="line"/>
			<point x="476" y="339" type="line" smooth="yes"/>
			<point x="476" y="229"/>
			<point x="463" y="99"/>
			<point x="338" y="6" type="curve"/>
			<point x="370" y="-14"/>
			<point x="418" y="-66"/>
			<point x="434" y="-98" type="curve"/>
			<point x="593" y="17"/>
			<point x="614" y="214"/>
			<point x="614" y="337" type="curve" smooth="yes"/>
			<point x="614" y="549" type="line"/>
			<point x="634" y="552"/>
			<point x="643" y="558"/>
		</contour>
	</outline>
</glyph>
<glyph name="uni3B0A" format="2">
	<advance width="1000" height="1000"/>
	<unicode hex="3B0A"/>
	<note>
		cid04379
	</note>
	<outline>
		<contour>
			<point x="839" y="378" type="line"/>
			<point x="168" y="378" type="line"/>
			<point x="168" y="298" type="line"/>
			<point x="839" y="298" type="line"/>
		</contour>
		<contour>
			<point x="950" y="271" type="line"/>
			<point x="49" y="271" type="line"/>
			<point x="49" y="191" type="line"/>
			<point x="950" y="191" type="line"/>
		</contour>
		<contour>
			<point x="739" y="164" type="line"/>
			<point x="712" y="164" type="line"/>
			<point x="712" y="151" type="line"/>
			<point x="643" y="56"/>
			<point x="452" y="13"/>
			<point x="227" y="0" type="curve"/>
			<point x="249" y="-25"/>
			<point x="276" y="-69"/>
			<point x="287" y="-97" type="curve"/>
			<point x="540" y="-73"/>
			<point x="752" y="-14"/>
			<point x="851" y="134" type="curve"/>
			<point x="763" y="168" type="line"/>
		</contour>
		<contour>
			<point x="406" y="335" type="curve"/>
			<point x="273" y="360" type="line"/>
			<point x="245" y="195"/>
			<point x="169" y="70"/>
			<point x="37" y="10" type="curve"/>
			<point x="62" y="-12"/>
			<point x="101" y="-66"/>
			<point x="116" y="-96" type="curve"/>
			<point x="276" y="-19"/>
			<point x="369" y="123"/>
		</contour>
		<contour>
			<point x="407" y="125" type="curve"/>
			<point x="294" y="91" type="line"/>
			<point x="425" y="-25"/>
			<point x="629" y="-77"/>
			<point x="890" y="-94" type="curve"/>
			<point x="907" y="-64"/>
			<point x="942" y="-18"/>
			<point x="970" y="7" type="curve"/>
			<point x="719" y="14"/>
			<point x="510" y="48"/>
		</contour>
		<contour>
			<point x="757" y="164" type="line"/>
			<point x="320" y="164" type="line"/>
			<point x="293" y="90" type="line"/>
			<point x="757" y="90" type="line"/>
		</contour>
		<contour>
			<point x="286" y="637" type="line"/>
			<point x="286" y="666" type="line"/>
			<point x="713" y="666" type="line"/>
			<point x="713" y="637" type="line"/>
		</contour>
		<contour>
			<point x="286" y="730" type="line"/>
			<point x="286" y="759" type="line"/>
			<point x="713" y="759" type="line"/>
			<point x="713" y="730" type="line"/>
		</contour>
		<contour>
			<point x="853" y="826" type="line"/>
			<point x="152" y="826" type="line"/>
			<point x="152" y="570" type="line"/>
			<point x="853" y="570" type="line"/>
		</contour>
		<contour>
			<point x="892" y="500" type="curve"/>
			<point x="817" y="576" type="line"/>
			<point x="672" y="553"/>
			<point x="440" y="536"/>
			<point x="217" y="532" type="curve"/>
			<point x="232" y="510"/>
			<point x="244" y="480"/>
			<point x="249" y="454" type="curve"/>
			<point x="484" y="457"/>
			<point x="732" y="475"/>
		</contour>
		<contour>
			<point x="294" y="515" type="curve"/>
			<point x="159" y="555" type="line"/>
			<point x="132" y="509"/>
			<point x="82" y="461"/>
			<point x="27" y="431" type="curve"/>
			<point x="62" y="407"/>
			<point x="102" y="375"/>
			<point x="132" y="345" type="curve"/>
			<point x="200" y="388"/>
			<point x="262" y="453"/>
		</contour>
		<contour>
			<point x="832" y="505" type="curve"/>
			<point x="712" y="461" type="line"/>
			<point x="747" y="435"/>
			<point x="785" y="399"/>
			<point x="807" y="367" type="curve"/>
			<point x="936" y="412" type="line"/>
			<point x="907" y="449"/>
			<point x="867" y="485"/>
		</contour>
		<contour>
			<point x="537" y="473" type="curve"/>
			<point x="407" y="451" type="line"/>
			<point x="423" y="431"/>
			<point x="438" y="401"/>
			<point x="443" y="371" type="curve"/>
			<point x="580" y="397" type="line"/>
			<point x="575" y="423"/>
			<point x="557" y="452"/>
		</contour>
	</outline>
</glyph>
<glyph name="uni3B55" format="2">
	<advance width="1000" height="1000"/>
	<unicode hex="3B55"/>
	<note>
		cid04457
	</note>
	<outline>
		<contour>
			<point x="975" y="471" type="line"/>
			<point x="421" y="471" type="line"/>
			<point x="421" y="339" type="line"/>
			<point x="975" y="339" type="line"/>
		</contour>
		<contour>
			<point x="939" y="715" type="line"/>
			<point x="461" y="715" type="line"/>
			<point x="461" y="586" type="line"/>
			<point x="939" y="586" type="line"/>
		</contour>
		<contour>
			<point x="770" y="855" type="line"/>
			<point x="625" y="855" type="line"/>
			<point x="625" y="382" type="line"/>
			<point x="770" y="382" type="line"/>
		</contour>
		<contour>
			<point x="864" y="282" type="curve"/>
			<point x="735" y="243" type="line"/>
			<point x="785" y="147"/>
			<point x="827" y="18"/>
			<point x="843" y="-91" type="curve"/>
			<point x="984" y="-46" type="line"/>
			<point x="968" y="51"/>
			<point x="922" y="178"/>
		</contour>
		<contour>
			<point x="420" y="653" type="line"/>
			<point x="41" y="653" type="line"/>
			<point x="41" y="516" type="line"/>
			<point x="420" y="516" type="line"/>
		</contour>
		<contour>
			<point x="307" y="855" type="line"/>
			<point x="168" y="855" type="line"/>
			<point x="168" y="-95" type="line"/>
			<point x="307" y="-95" type="line"/>
		</contour>
		<contour>
			<point x="246" y="537" type="curve"/>
			<point x="166" y="569" type="line"/>
			<point x="133" y="423"/>
			<point x="74" y="284"/>
			<point x="13" y="207" type="curve"/>
			<point x="35" y="170"/>
			<point x="67" y="111"/>
			<point x="80" y="70" type="curve"/>
			<point x="148" y="163"/>
			<point x="212" y="343"/>
		</contour>
		<contour>
			<point x="282" y="501" type="curve"/>
			<point x="216" y="441" type="line"/>
			<point x="259" y="380"/>
			<point x="313" y="282"/>
			<point x="357" y="187" type="curve"/>
			<point x="436" y="301" type="line"/>
			<point x="391" y="366"/>
			<point x="331" y="443"/>
		</contour>
		<contour>
			<point x="721" y="355" type="curve"/>
			<point x="560" y="382" type="line"/>
			<point x="546" y="280"/>
			<point x="512" y="151"/>
			<point x="472" y="48" type="curve"/>
			<point x="604" y="19" type="line"/>
			<point x="645" y="112"/>
			<point x="690" y="242"/>
		</contour>
		<contour>
			<point x="394" y="71" type="curve"/>
			<point x="424" y="-67" type="line"/>
			<point x="594" y="-42"/>
			<point x="781" y="-12"/>
			<point x="908" y="10" type="curve"/>
			<point x="899" y="131" type="line"/>
			<point x="752" y="112"/>
			<point x="557" y="89"/>
		</contour>
	</outline>
</glyph>
<glyph name="uni3B7B" format="2">
	<advance width="1000" height="1000"/>
	<unicode hex="3B7B"/>
	<note>
		cid04496
	</note>
	<outline>
		<contour>
			<point x="854" y="811" type="curve"/>
			<point x="739" y="749" type="line"/>
			<point x="786" y="695"/>
			<point x="838" y="620"/>
			<point x="859" y="572" type="curve"/>
			<point x="982" y="640" type="line"/>
			<point x="958" y="690"/>
			<point x="902" y="760"/>
		</contour>
		<contour>
			<point x="734" y="856" type="line"/>
			<point x="587" y="856" type="line"/>
			<point x="587" y="478" type="line"/>
			<point x="734" y="478" type="line"/>
		</contour>
		<contour>
			<point x="645" y="371" type="line"/>
			<point x="542" y="371" type="line"/>
			<point x="542" y="42" type="line"/>
			<point x="645" y="42" type="line"/>
		</contour>
		<contour>
			<point x="954" y="45" type="curve" smooth="yes"/>
			<point x="954" y="557" type="line"/>
			<point x="819" y="557" type="line"/>
			<point x="819" y="48" type="line" smooth="yes"/>
			<point x="819" y="35"/>
			<point x="814" y="31"/>
			<point x="800" y="30" type="curve" smooth="yes"/>
			<point x="786" y="30"/>
			<point x="735" y="30"/>
			<point x="697" y="32" type="curve"/>
			<point x="714" y="-2"/>
			<point x="731" y="-58"/>
			<point x="736" y="-95" type="curve"/>
			<point x="809" y="-95"/>
			<point x="862" y="-93"/>
			<point x="902" y="-73" type="curve" smooth="yes"/>
			<point x="942" y="-52"/>
			<point x="954" y="-17"/>
		</contour>
		<contour>
			<point x="585" y="764" type="curve"/>
			<point x="452" y="801" type="line"/>
			<point x="432" y="746"/>
			<point x="395" y="685"/>
			<point x="354" y="642" type="curve"/>
			<point x="389" y="623"/>
			<point x="440" y="590"/>
			<point x="469" y="567" type="curve"/>
			<point x="509" y="615"/>
			<point x="556" y="694"/>
		</contour>
		<contour>
			<point x="891" y="557" type="line"/>
			<point x="376" y="557" type="line"/>
			<point x="376" y="-96" type="line"/>
			<point x="509" y="-96" type="line"/>
			<point x="509" y="431" type="line"/>
			<point x="891" y="431" type="line"/>
		</contour>
		<contour>
			<point x="786" y="371" type="line"/>
			<point x="577" y="371" type="line"/>
			<point x="577" y="268" type="line"/>
			<point x="680" y="268" type="line"/>
			<point x="680" y="196" type="line"/>
			<point x="577" y="196" type="line"/>
			<point x="577" y="93" type="line"/>
			<point x="786" y="93" type="line"/>
		</contour>
		<contour>
			<point x="357" y="661" type="line"/>
			<point x="37" y="661" type="line"/>
			<point x="37" y="531" type="line"/>
			<point x="357" y="531" type="line"/>
		</contour>
		<contour>
			<point x="275" y="855" type="line"/>
			<point x="142" y="855" type="line"/>
			<point x="142" y="-95" type="line"/>
			<point x="275" y="-95" type="line"/>
		</contour>
		<contour>
			<point x="233" y="536" type="curve"/>
			<point x="148" y="564" type="line"/>
			<point x="127" y="446"/>
			<point x="74" y="290"/>
			<point x="13" y="197" type="curve"/>
			<point x="34" y="162"/>
			<point x="65" y="107"/>
			<point x="78" y="67" type="curve"/>
			<point x="150" y="178"/>
			<point x="204" y="378"/>
		</contour>
		<contour>
			<point x="267" y="484" type="curve"/>
			<point x="209" y="413" type="line"/>
			<point x="241" y="356"/>
			<point x="284" y="262"/>
			<point x="309" y="198" type="curve"/>
			<point x="380" y="325" type="line"/>
			<point x="352" y="367"/>
			<point x="302" y="437"/>
		</contour>
	</outline>
</glyph>
<glyph name="uni3BEC" format="2">
	<advance width="1000" height="1000"/>
	<unicode hex="3BEC"/>
	<note>
		cid04619
	</note>
	<outline>
		<contour>
			<point x="479" y="801" type="line"/>
			<point x="42" y="801" type="line"/>
			<point x="42" y="706" type="line"/>
			<point x="479" y="706" type="line"/>
		</contour>
		<contour>
			<point x="336" y="855" type="line"/>
			<point x="206" y="855" type="line"/>
			<point x="206" y="547" type="line"/>
			<point x="336" y="547" type="line"/>
		</contour>
		<contour>
			<point x="284" y="701" type="curve"/>
			<point x="198" y="755" type="line"/>
			<point x="160" y="706"/>
			<point x="79" y="654"/>
			<point x="13" y="631" type="curve"/>
			<point x="41" y="610"/>
			<point x="73" y="573"/>
			<point x="92" y="545" type="curve"/>
			<point x="159" y="581"/>
			<point x="242" y="646"/>
		</contour>
		<contour>
			<point x="313" y="728" type="curve"/>
			<point x="248" y="681" type="line"/>
			<point x="292" y="657"/>
			<point x="374" y="605"/>
			<point x="410" y="578" type="curve"/>
			<point x="482" y="658" type="line"/>
			<point x="455" y="672"/>
			<point x="348" y="716"/>
		</contour>
		<contour>
			<point x="957" y="801" type="line"/>
			<point x="506" y="801" type="line"/>
			<point x="506" y="706" type="line"/>
			<point x="957" y="706" type="line"/>
		</contour>
		<contour>
			<point x="785" y="855" type="line"/>
			<point x="655" y="855" type="line"/>
			<point x="655" y="556" type="line"/>
			<point x="785" y="556" type="line"/>
		</contour>
		<contour>
			<point x="743" y="710" type="curve"/>
			<point x="659" y="764" type="line"/>
			<point x="618" y="712"/>
			<point x="529" y="656"/>
			<point x="456" y="631" type="curve"/>
			<point x="485" y="611"/>
			<point x="519" y="578"/>
			<point x="539" y="551" type="curve"/>
			<point x="610" y="587"/>
			<point x="699" y="654"/>
		</contour>
		<contour>
			<point x="779" y="752" type="curve"/>
			<point x="691" y="711" type="line"/>
			<point x="745" y="653"/>
			<point x="837" y="583"/>
			<point x="906" y="546" type="curve"/>
			<point x="924" y="572"/>
			<point x="959" y="612"/>
			<point x="984" y="632" type="curve"/>
			<point x="915" y="659"/>
			<point x="826" y="709"/>
		</contour>
		<contour>
			<point x="972" y="435" type="line"/>
			<point x="319" y="435" type="line"/>
			<point x="319" y="358" type="line"/>
			<point x="972" y="358" type="line"/>
		</contour>
		<contour>
			<point x="902" y="537" type="line"/>
			<point x="386" y="537" type="line"/>
			<point x="386" y="455" type="line"/>
			<point x="759" y="455" type="line"/>
			<point x="759" y="336" type="line"/>
			<point x="382" y="336" type="line"/>
			<point x="382" y="254" type="line"/>
			<point x="902" y="254" type="line"/>
		</contour>
		<contour>
			<point x="909" y="233" type="line"/>
			<point x="377" y="233" type="line"/>
			<point x="377" y="162" type="line"/>
			<point x="909" y="162" type="line"/>
		</contour>
		<contour>
			<point x="947" y="137" type="line"/>
			<point x="339" y="137" type="line"/>
			<point x="339" y="59" type="line"/>
			<point x="947" y="59" type="line"/>
		</contour>
		<contour>
			<point x="700" y="568" type="line"/>
			<point x="559" y="568" type="line"/>
			<point x="559" y="23" type="line"/>
			<point x="700" y="23" type="line"/>
		</contour>
		<contour>
			<point x="216" y="539" type="line"/>
			<point x="40" y="539" type="line"/>
			<point x="40" y="434" type="line"/>
			<point x="216" y="434" type="line"/>
		</contour>
		<contour>
			<point x="199" y="539" type="line"/>
			<point x="182" y="539" type="line"/>
			<point x="182" y="526" type="line"/>
			<point x="150" y="449"/>
			<point x="98" y="343"/>
			<point x="48" y="252" type="curve"/>
			<point x="162" y="219" type="line"/>
			<point x="210" y="308"/>
			<point x="265" y="423"/>
			<point x="305" y="518" type="curve"/>
			<point x="218" y="544" type="line"/>
		</contour>
		<contour>
			<point x="272" y="343" type="line"/>
			<point x="138" y="343" type="line"/>
			<point x="138" y="240" type="line"/>
			<point x="272" y="240" type="line"/>
		</contour>
		<contour>
			<point x="253" y="343" type="line"/>
			<point x="228" y="343" type="line"/>
			<point x="228" y="321" type="line"/>
			<point x="206" y="157"/>
			<point x="140" y="51"/>
			<point x="28" y="0" type="curve"/>
			<point x="55" y="-19"/>
			<point x="103" y="-69"/>
			<point x="121" y="-95" type="curve"/>
			<point x="249" y="-28"/>
			<point x="325" y="111"/>
			<point x="352" y="325" type="curve"/>
			<point x="275" y="345" type="line"/>
		</contour>
		<contour>
			<point x="138" y="220" type="curve"/>
			<point x="49" y="188" type="line"/>
			<point x="147" y="-58"/>
			<point x="329" y="-94"/>
			<point x="591" y="-94" type="curve" smooth="yes"/>
			<point x="879" y="-94" type="line"/>
			<point x="936" y="-94" type="line"/>
			<point x="943" y="-60"/>
			<point x="962" y="-8"/>
			<point x="980" y="18" type="curve"/>
			<point x="900" y="15"/>
			<point x="657" y="15"/>
			<point x="593" y="15" type="curve" smooth="yes"/>
			<point x="368" y="15"/>
			<point x="208" y="45"/>
		</contour>
	</outline>
</glyph>
<glyph name="uni3CD6" format="2">
	<advance width="1000" height="1000"/>
	<unicode hex="3CD6"/>
	<note>
		cid04862
	</note>
	<outline>
		<contour>
			<point x="153" y="852" type="curve"/>
			<point x="75" y="745" type="line"/>
			<point x="134" y="720"/>
			<point x="211" y="676"/>
			<point x="246" y="643" type="curve"/>
			<point x="329" y="761" type="line"/>
			<point x="290" y="793"/>
			<point x="212" y="831"/>
		</contour>
		<contour>
			<point x="96" y="582" type="curve"/>
			<point x="18" y="472" type="line"/>
			<point x="78" y="447"/>
			<point x="156" y="405"/>
			<point x="192" y="373" type="curve"/>
			<point x="275" y="493" type="line"/>
			<point x="235" y="525"/>
			<point x="155" y="562"/>
		</contour>
		<contour>
			<point x="28" y="2" type="curve"/>
			<point x="157" y="-85" type="line"/>
			<point x="210" y="16"/>
			<point x="262" y="127"/>
			<point x="308" y="235" type="curve"/>
			<point x="195" y="323" type="line"/>
			<point x="142" y="203"/>
			<point x="75" y="79"/>
		</contour>
		<contour>
			<point x="704" y="841" type="line"/>
			<point x="557" y="841" type="line"/>
			<point x="557" y="625" type="line"/>
			<point x="704" y="625" type="line"/>
		</contour>
		<contour>
			<point x="953" y="699" type="line"/>
			<point x="304" y="699" type="line"/>
			<point x="304" y="564" type="line"/>
			<point x="953" y="564" type="line"/>
		</contour>
		<contour>
			<point x="699" y="595" type="curve"/>
			<point x="560" y="641" type="line"/>
			<point x="496" y="516"/>
			<point x="376" y="405"/>
			<point x="247" y="342" type="curve"/>
			<point x="275" y="313"/>
			<point x="322" y="249"/>
			<point x="341" y="218" type="curve"/>
			<point x="481" y="302"/>
			<point x="617" y="440"/>
		</contour>
		<contour>
			<point x="305" y="58" type="curve"/>
			<point x="345" y="-80" type="line"/>
			<point x="454" y="-57"/>
			<point x="596" y="-26"/>
			<point x="727" y="5" type="curve"/>
			<point x="713" y="135" type="line"/>
			<point x="567" y="105"/>
			<point x="410" y="75"/>
		</contour>
		<contour>
			<point x="981" y="400" type="curve"/>
			<point x="873" y="503" type="line"/>
			<point x="826" y="444"/>
			<point x="746" y="368"/>
			<point x="688" y="325" type="curve"/>
			<point x="769" y="240" type="line"/>
			<point x="831" y="279"/>
			<point x="909" y="343"/>
		</contour>
		<contour>
			<point x="726" y="610" type="curve"/>
			<point x="594" y="591" type="line"/>
			<point x="637" y="289"/>
			<point x="709" y="49"/>
			<point x="893" y="-86" type="curve"/>
			<point x="916" y="-46"/>
			<point x="962" y="11"/>
			<point x="996" y="39" type="curve"/>
			<point x="832" y="144"/>
			<point x="759" y="364"/>
		</contour>
		<contour>
			<point x="545" y="474" type="line"/>
			<point x="407" y="336" type="line"/>
			<point x="407" y="10" type="line"/>
			<point x="545" y="10" type="line"/>
			<point x="545" y="473" type="line"/>
		</contour>
	</outline>
</glyph>
<glyph name="uni3E74" format="2">
	<advance width="1000" height="1000"/>
	<unicode hex="3E74"/>
	<note>
		cid05319
	</note>
	<outline>
		<contour>
			<point x="123" y="855" type="curve"/>
			<point x="22" y="777" type="line"/>
			<point x="186" y="644"/>
			<point x="216" y="498"/>
			<point x="216" y="308" type="curve" smooth="yes"/>
			<point x="216" y="188"/>
			<point x="208" y="89"/>
			<point x="188" y="63" type="curve" smooth="yes"/>
			<point x="180" y="52"/>
			<point x="171" y="46"/>
			<point x="156" y="44" type="curve" smooth="yes"/>
			<point x="135" y="42"/>
			<point x="100" y="41"/>
			<point x="48" y="45" type="curve"/>
			<point x="73" y="4"/>
			<point x="86" y="-47"/>
			<point x="86" y="-94" type="curve"/>
			<point x="138" y="-96"/>
			<point x="183" y="-95"/>
			<point x="225" y="-83" type="curve" smooth="yes"/>
			<point x="251" y="-76"/>
			<point x="275" y="-61"/>
			<point x="293" y="-38" type="curve" smooth="yes"/>
			<point x="342" y="29"/>
			<point x="353" y="167"/>
			<point x="353" y="305" type="curve" smooth="yes"/>
			<point x="353" y="506"/>
			<point x="326" y="693"/>
		</contour>
		<contour>
			<point x="335" y="424" type="curve"/>
			<point x="228" y="488" type="line"/>
			<point x="184" y="402"/>
			<point x="93" y="302"/>
			<point x="13" y="252" type="curve"/>
			<point x="47" y="226"/>
			<point x="87" y="179"/>
			<point x="110" y="145" type="curve"/>
			<point x="191" y="212"/>
			<point x="285" y="328"/>
		</contour>
		<contour>
			<point x="391" y="781" type="curve"/>
			<point x="262" y="845" type="line"/>
			<point x="206" y="734"/>
			<point x="112" y="615"/>
			<point x="12" y="546" type="curve"/>
			<point x="43" y="523"/>
			<point x="90" y="479"/>
			<point x="112" y="450" type="curve"/>
			<point x="216" y="529"/>
			<point x="318" y="651"/>
		</contour>
		<contour>
			<point x="522" y="377" type="line"/>
			<point x="522" y="416" type="line"/>
			<point x="800" y="416" type="line"/>
			<point x="800" y="377" type="line"/>
		</contour>
		<contour>
			<point x="522" y="511" type="line"/>
			<point x="522" y="549" type="line"/>
			<point x="800" y="549" type="line"/>
			<point x="800" y="511" type="line"/>
		</contour>
		<contour>
			<point x="939" y="652" type="line"/>
			<point x="390" y="652" type="line"/>
			<point x="390" y="274" type="line"/>
			<point x="939" y="274" type="line"/>
		</contour>
		<contour>
			<point x="956" y="821" type="line"/>
			<point x="375" y="821" type="line"/>
			<point x="375" y="694" type="line"/>
			<point x="956" y="694" type="line"/>
		</contour>
		<contour>
			<point x="536" y="260" type="curve"/>
			<point x="408" y="234" type="line"/>
			<point x="497" y="36"/>
			<point x="633" y="-60"/>
			<point x="900" y="-93" type="curve"/>
			<point x="918" y="-54"/>
			<point x="954" y="6"/>
			<point x="984" y="36" type="curve"/>
			<point x="742" y="53"/>
			<point x="602" y="121"/>
		</contour>
		<contour>
			<point x="729" y="327" type="curve" smooth="yes"/>
			<point x="729" y="735" type="line"/>
			<point x="591" y="735" type="line"/>
			<point x="591" y="329" type="line" smooth="yes"/>
			<point x="591" y="187"/>
			<point x="561" y="63"/>
			<point x="308" y="18" type="curve"/>
			<point x="336" y="-10"/>
			<point x="377" y="-66"/>
			<point x="393" y="-96" type="curve"/>
			<point x="657" y="-20"/>
			<point x="729" y="141"/>
		</contour>
	</outline>
</glyph>
<glyph name="uni4102" format="2">
	<advance width="1000" height="1000"/>
	<unicode hex="4102"/>
	<note>
		cid06015
	</note>
	<outline>
		<contour>
			<point x="883" y="388" type="line"/>
			<point x="517" y="388" type="line"/>
			<point x="517" y="257" type="line"/>
			<point x="883" y="257" type="line"/>
		</contour>
		<contour>
			<point x="962" y="666" type="line"/>
			<point x="445" y="666" type="line"/>
			<point x="445" y="-80" type="line"/>
			<point x="577" y="-80" type="line"/>
			<point x="577" y="535" type="line"/>
			<point x="823" y="535" type="line"/>
			<point x="823" y="-73" type="line"/>
			<point x="962" y="-73" type="line"/>
		</contour>
		<contour>
			<point x="766" y="846" type="line"/>
			<point x="629" y="846" type="line"/>
			<point x="629" y="91" type="line"/>
			<point x="766" y="91" type="line"/>
		</contour>
		<contour>
			<point x="883" y="107" type="line"/>
			<point x="517" y="107" type="line"/>
			<point x="517" y="-27" type="line"/>
			<point x="883" y="-27" type="line"/>
		</contour>
		<contour>
			<point x="426" y="596" type="line"/>
			<point x="38" y="596" type="line"/>
			<point x="38" y="469" type="line"/>
			<point x="426" y="469" type="line"/>
		</contour>
		<contour>
			<point x="414" y="794" type="line"/>
			<point x="62" y="794" type="line"/>
			<point x="62" y="668" type="line"/>
			<point x="414" y="668" type="line"/>
		</contour>
		<contour>
			<point x="423" y="432" type="line"/>
			<point x="326" y="432" type="line"/>
			<point x="326" y="85" type="line"/>
			<point x="423" y="85" type="line"/>
		</contour>
		<contour>
			<point x="300" y="531" type="line"/>
			<point x="174" y="531" type="line"/>
			<point x="174" y="-95" type="line"/>
			<point x="300" y="-95" type="line"/>
		</contour>
		<contour>
			<point x="149" y="310" type="curve" smooth="yes"/>
			<point x="149" y="430" type="line"/>
			<point x="52" y="430" type="line"/>
			<point x="52" y="312" type="line" smooth="yes"/>
			<point x="52" y="229"/>
			<point x="47" y="129"/>
			<point x="15" y="49" type="curve"/>
			<point x="41" y="35"/>
			<point x="81" y="4"/>
			<point x="99" y="-16" type="curve"/>
			<point x="143" y="81"/>
			<point x="149" y="205"/>
		</contour>
	</outline>
</glyph>
<glyph name="uni41CA" format="2">
	<advance width="1000" height="1000"/>
	<unicode hex="41CA"/>
	<note>
		cid06227
	</note>
	<outline>
		<contour>
			<point x="383" y="671" type="line"/>
			<point x="36" y="671" type="line"/>
			<point x="36" y="542" type="line"/>
			<point x="383" y="542" type="line"/>
		</contour>
		<contour>
			<point x="277" y="839" type="line"/>
			<point x="148" y="839" type="line"/>
			<point x="148" y="609" type="line"/>
			<point x="277" y="609" type="line"/>
		</contour>
		<contour>
			<point x="25" y="159" type="curve"/>
			<point x="66" y="28" type="line"/>
			<point x="155" y="54"/>
			<point x="278" y="92"/>
			<point x="385" y="127" type="curve"/>
			<point x="366" y="249" type="line"/>
			<point x="246" y="215"/>
			<point x="115" y="180"/>
		</contour>
		<contour>
			<point x="159" y="521" type="curve"/>
			<point x="54" y="501" type="line"/>
			<point x="70" y="411"/>
			<point x="81" y="294"/>
			<point x="79" y="217" type="curve"/>
			<point x="192" y="238" type="line"/>
			<point x="191" y="315"/>
			<point x="179" y="430"/>
		</contour>
		<contour>
			<point x="373" y="502" type="curve"/>
			<point x="241" y="527" type="line"/>
			<point x="235" y="426"/>
			<point x="217" y="288"/>
			<point x="197" y="200" type="curve"/>
			<point x="300" y="175" type="line"/>
			<point x="324" y="257"/>
			<point x="351" y="388"/>
		</contour>
		<contour>
			<point x="781" y="848" type="line"/>
			<point x="640" y="848" type="line"/>
			<point x="640" y="632" type="line"/>
			<point x="781" y="632" type="line"/>
		</contour>
		<contour>
			<point x="966" y="717" type="line"/>
			<point x="506" y="717" type="line"/>
			<point x="506" y="586" type="line"/>
			<point x="966" y="586" type="line"/>
		</contour>
		<contour>
			<point x="563" y="514" type="curve" smooth="yes"/>
			<point x="563" y="717" type="line"/>
			<point x="429" y="717" type="line"/>
			<point x="429" y="515" type="line" smooth="yes"/>
			<point x="429" y="362"/>
			<point x="420" y="136"/>
			<point x="306" y="-17" type="curve"/>
			<point x="339" y="-31"/>
			<point x="397" y="-70"/>
			<point x="422" y="-92" type="curve"/>
			<point x="542" y="74"/>
			<point x="563" y="342"/>
		</contour>
		<contour>
			<point x="808" y="554" type="curve"/>
			<point x="658" y="573" type="line"/>
			<point x="646" y="407"/>
			<point x="613" y="188"/>
			<point x="577" y="46" type="curve"/>
			<point x="695" y="25" type="line"/>
			<point x="736" y="159"/>
			<point x="780" y="370"/>
		</contour>
		<contour>
			<point x="516" y="101" type="curve"/>
			<point x="542" y="-40" type="line"/>
			<point x="640" y="-28"/>
			<point x="763" y="-13"/>
			<point x="881" y="4" type="curve"/>
			<point x="879" y="126" type="line"/>
			<point x="745" y="116"/>
			<point x="607" y="106"/>
		</contour>
		<contour>
			<point x="892" y="306" type="curve"/>
			<point x="772" y="272" type="line"/>
			<point x="809" y="159"/>
			<point x="844" y="0"/>
			<point x="853" y="-90" type="curve"/>
			<point x="984" y="-48" type="line"/>
			<point x="972" y="45"/>
			<point x="932" y="192"/>
		</contour>
	</outline>
</glyph>
<glyph name="uni42A2" format="2">
	<advance width="1000" height="1000"/>
	<unicode hex="42A2"/>
	<note>
		cid06456
	</note>
	<outline>
		<contour>
			<point x="381" y="855" type="line"/>
			<point x="253" y="855" type="line"/>
			<point x="253" y="270" type="line"/>
			<point x="381" y="270" type="line"/>
		</contour>
		<contour>
			<point x="312" y="570" type="line"/>
			<point x="41" y="570" type="line"/>
			<point x="41" y="462" type="line"/>
			<point x="312" y="462" type="line"/>
		</contour>
		<contour>
			<point x="961" y="534" type="line"/>
			<point x="402" y="534" type="line"/>
			<point x="402" y="435" type="line"/>
			<point x="961" y="435" type="line"/>
		</contour>
		<contour>
			<point x="218" y="521" type="curve"/>
			<point x="100" y="521" type="line"/>
			<point x="97" y="440"/>
			<point x="90" y="384"/>
			<point x="20" y="350" type="curve"/>
			<point x="45" y="330"/>
			<point x="76" y="287"/>
			<point x="88" y="259" type="curve"/>
			<point x="194" y="312"/>
			<point x="213" y="400"/>
		</contour>
		<contour>
			<point x="730" y="832" type="curve"/>
			<point x="611" y="856" type="line"/>
			<point x="566" y="808"/>
			<point x="486" y="765"/>
			<point x="370" y="735" type="curve"/>
			<point x="394" y="718"/>
			<point x="429" y="679"/>
			<point x="445" y="653" type="curve"/>
			<point x="574" y="698"/>
			<point x="662" y="753"/>
		</contour>
		<contour>
			<point x="849" y="807" type="line"/>
			<point x="601" y="807" type="line"/>
			<point x="529" y="735" type="line"/>
			<point x="849" y="735" type="line"/>
		</contour>
		<contour>
			<point x="831" y="807" type="line"/>
			<point x="807" y="807" type="line"/>
			<point x="807" y="793" type="line"/>
			<point x="747" y="679"/>
			<point x="590" y="627"/>
			<point x="399" y="611" type="curve"/>
			<point x="418" y="588"/>
			<point x="442" y="548"/>
			<point x="453" y="520" type="curve"/>
			<point x="673" y="549"/>
			<point x="846" y="611"/>
			<point x="929" y="778" type="curve"/>
			<point x="853" y="811" type="line"/>
		</contour>
		<contour>
			<point x="863" y="387" type="curve" smooth="yes"/>
			<point x="863" y="593" type="line"/>
			<point x="733" y="593" type="line"/>
			<point x="733" y="391" type="line" smooth="yes"/>
			<point x="733" y="381"/>
			<point x="729" y="378"/>
			<point x="718" y="378" type="curve" smooth="yes"/>
			<point x="707" y="378"/>
			<point x="669" y="378"/>
			<point x="640" y="379" type="curve"/>
			<point x="655" y="350"/>
			<point x="674" y="304"/>
			<point x="680" y="271" type="curve"/>
			<point x="737" y="270"/>
			<point x="780" y="272"/>
			<point x="817" y="289" type="curve" smooth="yes"/>
			<point x="854" y="306"/>
			<point x="863" y="333"/>
		</contour>
		<contour>
			<point x="539" y="454" type="curve"/>
			<point x="447" y="394" type="line"/>
			<point x="484" y="367"/>
			<point x="529" y="322"/>
			<point x="551" y="290" type="curve"/>
			<point x="647" y="358" type="line"/>
			<point x="625" y="388"/>
			<point x="580" y="428"/>
		</contour>
		<contour>
			<point x="620" y="764" type="curve"/>
			<point x="562" y="719" type="line"/>
			<point x="601" y="696"/>
			<point x="652" y="662"/>
			<point x="677" y="640" type="curve"/>
			<point x="737" y="690" type="line"/>
			<point x="710" y="712"/>
			<point x="658" y="744"/>
		</contour>
		<contour>
			<point x="522" y="719" type="curve"/>
			<point x="462" y="676" type="line"/>
			<point x="497" y="651"/>
			<point x="542" y="614"/>
			<point x="563" y="591" type="curve"/>
			<point x="625" y="638" type="line"/>
			<point x="602" y="662"/>
			<point x="556" y="696"/>
		</contour>
		<contour>
			<point x="200" y="822" type="line"/>
			<point x="85" y="822" type="line"/>
			<point x="85" y="599" type="line"/>
			<point x="331" y="599" type="line"/>
			<point x="331" y="705" type="line"/>
			<point x="200" y="705" type="line"/>
		</contour>
		<contour>
			<point x="952" y="178" type="line"/>
			<point x="51" y="178" type="line"/>
			<point x="51" y="78" type="line"/>
			<point x="952" y="78" type="line"/>
		</contour>
		<contour>
			<point x="568" y="279" type="line"/>
			<point x="429" y="279" type="line"/>
			<point x="429" y="-95" type="line"/>
			<point x="568" y="-95" type="line"/>
		</contour>
		<contour>
			<point x="495" y="99" type="curve"/>
			<point x="404" y="137" type="line"/>
			<point x="326" y="77"/>
			<point x="172" y="34"/>
			<point x="22" y="17" type="curve"/>
			<point x="47" y="-8"/>
			<point x="81" y="-56"/>
			<point x="98" y="-86" type="curve"/>
			<point x="252" y="-57"/>
			<point x="405" y="8"/>
		</contour>
		<contour>
			<point x="595" y="133" type="curve"/>
			<point x="509" y="102" type="line"/>
			<point x="596" y="4"/>
			<point x="745" y="-58"/>
			<point x="904" y="-84" type="curve"/>
			<point x="921" y="-51"/>
			<point x="955" y="-1"/>
			<point x="982" y="25" type="curve"/>
			<point x="825" y="37"/>
			<point x="673" y="73"/>
		</contour>
		<contour>
			<point x="817" y="246" type="curve"/>
			<point x="694" y="277" type="line"/>
			<point x="681" y="251"/>
			<point x="657" y="214"/>
			<point x="637" y="187" type="curve"/>
			<point x="732" y="158" type="line"/>
			<point x="756" y="180"/>
			<point x="786" y="211"/>
		</contour>
		<contour>
			<point x="301" y="272" type="curve"/>
			<point x="204" y="243" type="line"/>
			<point x="226" y="216"/>
			<point x="248" y="178"/>
			<point x="256" y="152" type="curve"/>
			<point x="358" y="188" type="line"/>
			<point x="348" y="213"/>
			<point x="325" y="248"/>
		</contour>
	</outline>
</glyph>
<glyph name="uni44A2" format="2">
	<advance width="1000" height="1000"/>
	<unicode hex="44A2"/>
	<note>
		cid07005
	</note>
	<outline>
		<contour>
			<point x="945" y="798" type="line"/>
			<point x="53" y="798" type="line"/>
			<point x="53" y="671" type="line"/>
			<point x="945" y="671" type="line"/>
		</contour>
		<contour>
			<point x="405" y="855" type="line"/>
			<point x="262" y="855" type="line"/>
			<point x="262" y="598" type="line"/>
			<point x="405" y="598" type="line"/>
		</contour>
		<contour>
			<point x="738" y="855" type="line"/>
			<point x="593" y="855" type="line"/>
			<point x="593" y="598" type="line"/>
			<point x="738" y="598" type="line"/>
		</contour>
		<contour>
			<point x="843" y="538" type="line"/>
			<point x="495" y="538" type="line"/>
			<point x="495" y="-95" type="line"/>
			<point x="638" y="-95" type="line"/>
			<point x="638" y="407" type="line"/>
			<point x="843" y="407" type="line"/>
		</contour>
		<contour>
			<point x="922" y="171" type="curve" smooth="yes"/>
			<point x="922" y="538" type="line"/>
			<point x="776" y="538" type="line"/>
			<point x="776" y="174" type="line" smooth="yes"/>
			<point x="776" y="162"/>
			<point x="771" y="159"/>
			<point x="757" y="159" type="curve" smooth="yes"/>
			<point x="744" y="159"/>
			<point x="693" y="159"/>
			<point x="658" y="161" type="curve"/>
			<point x="676" y="123"/>
			<point x="694" y="63"/>
			<point x="699" y="22" type="curve"/>
			<point x="770" y="22"/>
			<point x="824" y="24"/>
			<point x="867" y="46" type="curve" smooth="yes"/>
			<point x="910" y="68"/>
			<point x="922" y="106"/>
		</contour>
		<contour>
			<point x="37" y="128" type="curve"/>
			<point x="64" y="-14" type="line"/>
			<point x="181" y="9"/>
			<point x="334" y="38"/>
			<point x="475" y="68" type="curve"/>
			<point x="464" y="200" type="line"/>
			<point x="312" y="172"/>
			<point x="147" y="143"/>
		</contour>
		<contour>
			<point x="247" y="491" type="line"/>
			<point x="103" y="513" type="line"/>
			<point x="103" y="100" type="line"/>
			<point x="247" y="100" type="line"/>
		</contour>
		<contour>
			<point x="487" y="496" type="curve"/>
			<point x="361" y="594" type="line"/>
			<point x="310" y="559"/>
			<point x="226" y="518"/>
			<point x="148" y="490" type="curve"/>
			<point x="165" y="463"/>
			<point x="187" y="415"/>
			<point x="194" y="386" type="curve"/>
			<point x="287" y="413"/>
			<point x="397" y="452"/>
		</contour>
	</outline>
</glyph>
<glyph name="uni453B" format="2">
	<advance width="1000" height="1000"/>
	<unicode hex="453B"/>
	<note>
		cid07192
	</note>
	<outline>
		<contour>
			<point x="952" y="806" type="line"/>
			<point x="51" y="806" type="line"/>
			<point x="51" y="685" type="line"/>
			<point x="952" y="685" type="line"/>
		</contour>
		<contour>
			<point x="406" y="855" type="line"/>
			<point x="262" y="855" type="line"/>
			<point x="262" y="639" type="line"/>
			<point x="406" y="639" type="line"/>
		</contour>
		<contour>
			<point x="738" y="855" type="line"/>
			<point x="593" y="855" type="line"/>
			<point x="593" y="634" type="line"/>
			<point x="738" y="634" type="line"/>
		</contour>
		<contour>
			<point x="353" y="632" type="line"/>
			<point x="224" y="632" type="line"/>
			<point x="224" y="533" type="line"/>
			<point x="353" y="533" type="line"/>
		</contour>
		<contour>
			<point x="542" y="583" type="line"/>
			<point x="37" y="583" type="line"/>
			<point x="37" y="484" type="line"/>
			<point x="542" y="484" type="line"/>
		</contour>
		<contour>
			<point x="474" y="462" type="line"/>
			<point x="99" y="462" type="line"/>
			<point x="99" y="296" type="line"/>
			<point x="474" y="296" type="line"/>
		</contour>
		<contour>
			<point x="212" y="365" type="line"/>
			<point x="212" y="393" type="line"/>
			<point x="354" y="393" type="line"/>
			<point x="354" y="365" type="line"/>
		</contour>
		<contour>
			<point x="397" y="274" type="line"/>
			<point x="99" y="274" type="line"/>
			<point x="99" y="186" type="line"/>
			<point x="397" y="186" type="line"/>
		</contour>
		<contour>
			<point x="383" y="274" type="line"/>
			<point x="351" y="274" type="line"/>
			<point x="351" y="254" type="line"/>
			<point x="331" y="228"/>
			<point x="297" y="195"/>
			<point x="263" y="168" type="curve"/>
			<point x="277" y="153"/>
			<point x="298" y="126"/>
			<point x="311" y="105" type="curve"/>
			<point x="367" y="133"/>
			<point x="433" y="176"/>
			<point x="480" y="217" type="curve"/>
			<point x="411" y="280" type="line"/>
		</contour>
		<contour>
			<point x="349" y="8" type="curve" smooth="yes"/>
			<point x="350" y="171" type="line"/>
			<point x="223" y="171" type="line"/>
			<point x="223" y="13" type="line" smooth="yes"/>
			<point x="223" y="2"/>
			<point x="219" y="0"/>
			<point x="208" y="-1" type="curve" smooth="yes"/>
			<point x="197" y="-1"/>
			<point x="157" y="-1"/>
			<point x="127" y="1" type="curve"/>
			<point x="140" y="-27"/>
			<point x="155" y="-66"/>
			<point x="160" y="-97" type="curve"/>
			<point x="221" y="-97"/>
			<point x="267" y="-97"/>
			<point x="303" y="-82" type="curve" smooth="yes"/>
			<point x="340" y="-68"/>
			<point x="349" y="-44"/>
		</contour>
		<contour>
			<point x="52" y="131" type="curve"/>
			<point x="61" y="30" type="line"/>
			<point x="159" y="34"/>
			<point x="335" y="44"/>
			<point x="516" y="55" type="curve"/>
			<point x="517" y="149" type="line"/>
			<point x="320" y="140"/>
			<point x="141" y="133"/>
		</contour>
		<contour>
			<point x="969" y="527" type="line"/>
			<point x="671" y="527" type="line"/>
			<point x="671" y="406" type="line"/>
			<point x="969" y="406" type="line"/>
		</contour>
		<contour>
			<point x="762" y="603" type="curve"/>
			<point x="634" y="633" type="line"/>
			<point x="604" y="509"/>
			<point x="547" y="387"/>
			<point x="476" y="312" type="curve"/>
			<point x="504" y="291"/>
			<point x="555" y="244"/>
			<point x="576" y="219" type="curve"/>
			<point x="651" y="308"/>
			<point x="723" y="456"/>
		</contour>
		<contour>
			<point x="924" y="445" type="curve"/>
			<point x="793" y="464" type="line"/>
			<point x="759" y="240"/>
			<point x="653" y="90"/>
			<point x="472" y="12" type="curve"/>
			<point x="499" y="-12"/>
			<point x="544" y="-66"/>
			<point x="560" y="-92" type="curve"/>
			<point x="754" y="6"/>
			<point x="875" y="184"/>
		</contour>
		<contour>
			<point x="687" y="434" type="curve"/>
			<point x="576" y="410" type="line"/>
			<point x="627" y="171"/>
			<point x="738" y="-10"/>
			<point x="886" y="-95" type="curve"/>
			<point x="906" y="-58"/>
			<point x="948" y="-6"/>
			<point x="978" y="20" type="curve"/>
			<point x="840" y="87"/>
			<point x="736" y="236"/>
		</contour>
	</outline>
</glyph>
<glyph name="uni4871" format="2">
	<advance width="1000" height="1000"/>
	<unicode hex="4871"/>
	<note>
		cid08066
	</note>
	<outline>
		<contour>
			<point x="387" y="765" type="line"/>
			<point x="35" y="765" type="line"/>
			<point x="35" y="649" type="line"/>
			<point x="387" y="649" type="line"/>
		</contour>
		<contour>
			<point x="386" y="174" type="line"/>
			<point x="25" y="174" type="line"/>
			<point x="25" y="57" type="line"/>
			<point x="386" y="57" type="line"/>
		</contour>
		<contour>
			<point x="267" y="854" type="line"/>
			<point x="149" y="854" type="line"/>
			<point x="149" y="570" type="line"/>
			<point x="267" y="570" type="line"/>
		</contour>
		<contour>
			<point x="254" y="560" type="line"/>
			<point x="162" y="560" type="line"/>
			<point x="162" y="250" type="line"/>
			<point x="149" y="250" type="line"/>
			<point x="149" y="-96" type="line"/>
			<point x="267" y="-96" type="line"/>
			<point x="267" y="250" type="line"/>
			<point x="254" y="250" type="line"/>
		</contour>
		<contour>
			<point x="135" y="321" type="line"/>
			<point x="135" y="368" type="line"/>
			<point x="282" y="368" type="line"/>
			<point x="282" y="321" type="line"/>
		</contour>
		<contour>
			<point x="135" y="461" type="line"/>
			<point x="135" y="507" type="line"/>
			<point x="282" y="507" type="line"/>
			<point x="282" y="461" type="line"/>
		</contour>
		<contour>
			<point x="377" y="606" type="line"/>
			<point x="44" y="606" type="line"/>
			<point x="44" y="222" type="line"/>
			<point x="377" y="222" type="line"/>
		</contour>
		<contour>
			<point x="962" y="815" type="line"/>
			<point x="409" y="815" type="line"/>
			<point x="409" y="-95" type="line"/>
			<point x="537" y="-95" type="line"/>
			<point x="537" y="684" type="line"/>
			<point x="962" y="684" type="line"/>
		</contour>
		<contour>
			<point x="977" y="72" type="line"/>
			<point x="487" y="72" type="line"/>
			<point x="487" y="-59" type="line"/>
			<point x="977" y="-59" type="line"/>
		</contour>
		<contour>
			<point x="904" y="654" type="line"/>
			<point x="605" y="654" type="line"/>
			<point x="605" y="409" type="line"/>
			<point x="904" y="409" type="line"/>
		</contour>
		<contour>
			<point x="719" y="504" type="line"/>
			<point x="719" y="559" type="line"/>
			<point x="783" y="559" type="line"/>
			<point x="783" y="504" type="line"/>
		</contour>
		<contour>
			<point x="739" y="374" type="line"/>
			<point x="562" y="374" type="line"/>
			<point x="562" y="104" type="line"/>
			<point x="739" y="104" type="line"/>
		</contour>
		<contour>
			<point x="638" y="186" type="line"/>
			<point x="638" y="292" type="line"/>
			<point x="660" y="292" type="line"/>
			<point x="660" y="186" type="line"/>
		</contour>
		<contour>
			<point x="946" y="374" type="line"/>
			<point x="765" y="374" type="line"/>
			<point x="765" y="104" type="line"/>
			<point x="946" y="104" type="line"/>
		</contour>
		<contour>
			<point x="842" y="186" type="line"/>
			<point x="842" y="292" type="line"/>
			<point x="864" y="292" type="line"/>
			<point x="864" y="186" type="line"/>
		</contour>
	</outline>
</glyph>
<glyph name="uni491E" format="2">
	<advance width="1000" height="1000"/>
	<unicode hex="491E"/>
	<note>
		cid08250
	</note>
	<outline>
		<contour>
			<point x="972" y="626" type="line"/>
			<point x="440" y="626" type="line"/>
			<point x="440" y="488" type="line"/>
			<point x="972" y="488" type="line"/>
		</contour>
		<contour>
			<point x="800" y="91" type="curve" smooth="yes"/>
			<point x="800" y="457" type="line"/>
			<point x="663" y="457" type="line"/>
			<point x="663" y="90" type="line" smooth="yes"/>
			<point x="663" y="-35"/>
			<point x="686" y="-78"/>
			<point x="788" y="-78" type="curve" smooth="yes"/>
			<point x="807" y="-78"/>
			<point x="833" y="-78"/>
			<point x="853" y="-78" type="curve" smooth="yes"/>
			<point x="936" y="-78"/>
			<point x="969" y="-29"/>
			<point x="981" y="134" type="curve"/>
			<point x="944" y="143"/>
			<point x="886" y="166"/>
			<point x="859" y="189" type="curve"/>
			<point x="856" y="71"/>
			<point x="853" y="50"/>
			<point x="838" y="50" type="curve" smooth="yes"/>
			<point x="830" y="50"/>
			<point x="821" y="50"/>
			<point x="814" y="50" type="curve" smooth="yes"/>
			<point x="802" y="50"/>
			<point x="800" y="54"/>
		</contour>
		<contour>
			<point x="737" y="855" type="curve"/>
			<point x="594" y="855" type="line"/>
			<point x="592" y="533"/>
			<point x="602" y="210"/>
			<point x="395" y="16" type="curve"/>
			<point x="434" y="-9"/>
			<point x="479" y="-53"/>
			<point x="504" y="-90" type="curve"/>
			<point x="727" y="135"/>
			<point x="734" y="499"/>
		</contour>
		<contour>
			<point x="855" y="847" type="curve"/>
			<point x="748" y="789" type="line"/>
			<point x="791" y="742"/>
			<point x="839" y="676"/>
			<point x="859" y="633" type="curve"/>
			<point x="971" y="701" type="line"/>
			<point x="948" y="744"/>
			<point x="901" y="803"/>
		</contour>
		<contour>
			<point x="412" y="606" type="line"/>
			<point x="96" y="606" type="line"/>
			<point x="96" y="486" type="line"/>
			<point x="412" y="486" type="line"/>
		</contour>
		<contour>
			<point x="431" y="431" type="line"/>
			<point x="57" y="431" type="line"/>
			<point x="57" y="309" type="line"/>
			<point x="431" y="309" type="line"/>
		</contour>
		<contour>
			<point x="150" y="282" type="curve"/>
			<point x="58" y="258" type="line"/>
			<point x="72" y="205"/>
			<point x="86" y="136"/>
			<point x="89" y="90" type="curve"/>
			<point x="187" y="118" type="line"/>
			<point x="181" y="162"/>
			<point x="166" y="230"/>
		</contour>
		<contour>
			<point x="40" y="51" type="curve"/>
			<point x="68" y="-79" type="line"/>
			<point x="169" y="-63"/>
			<point x="300" y="-42"/>
			<point x="421" y="-20" type="curve"/>
			<point x="413" y="102" type="line"/>
			<point x="281" y="82"/>
			<point x="137" y="63"/>
		</contour>
		<contour>
			<point x="444" y="265" type="curve"/>
			<point x="337" y="290" type="line"/>
			<point x="332" y="242"/>
			<point x="318" y="174"/>
			<point x="306" y="129" type="curve"/>
			<point x="391" y="105" type="line"/>
			<point x="406" y="145"/>
			<point x="424" y="207"/>
		</contour>
		<contour>
			<point x="308" y="556" type="line"/>
			<point x="183" y="556" type="line"/>
			<point x="183" y="-2" type="line"/>
			<point x="308" y="21" type="line"/>
		</contour>
		<contour>
			<point x="264" y="855" type="line"/>
			<point x="186" y="855" type="line"/>
			<point x="153" y="778"/>
			<point x="94" y="688"/>
			<point x="7" y="619" type="curve"/>
			<point x="35" y="599"/>
			<point x="76" y="551"/>
			<point x="95" y="521" type="curve"/>
			<point x="200" y="612"/>
			<point x="264" y="714"/>
			<point x="306" y="790" type="curve"/>
			<point x="306" y="829" type="line"/>
			<point x="264" y="829" type="line"/>
		</contour>
		<contour>
			<point x="302" y="855" type="curve"/>
			<point x="203" y="855" type="line"/>
			<point x="203" y="752" type="line"/>
			<point x="227" y="752" type="line"/>
			<point x="282" y="708"/>
			<point x="353" y="620"/>
			<point x="383" y="568" type="curve"/>
			<point x="476" y="680" type="line"/>
			<point x="439" y="734"/>
			<point x="362" y="806"/>
		</contour>
	</outline>
</glyph>
<glyph name="uni4930" format="2">
	<advance width="1000" height="1000"/>
	<unicode hex="4930"/>
	<note>
		cid08269
	</note>
	<outline>
		<contour>
			<point x="401" y="761" type="line"/>
			<point x="54" y="761" type="line"/>
			<point x="54" y="645" type="line"/>
			<point x="401" y="645" type="line"/>
		</contour>
		<contour>
			<point x="299" y="839" type="line"/>
			<point x="164" y="839" type="line"/>
			<point x="164" y="517" type="line"/>
			<point x="299" y="517" type="line"/>
		</contour>
		<contour>
			<point x="39" y="517" type="curve"/>
			<point x="62" y="386" type="line"/>
			<point x="162" y="408"/>
			<point x="287" y="436"/>
			<point x="405" y="465" type="curve"/>
			<point x="396" y="576" type="line"/>
			<point x="274" y="554"/>
			<point x="137" y="531"/>
		</contour>
		<contour>
			<point x="625" y="827" type="curve"/>
			<point x="490" y="857" type="line"/>
			<point x="465" y="772"/>
			<point x="413" y="689"/>
			<point x="354" y="643" type="curve"/>
			<point x="386" y="626"/>
			<point x="444" y="587"/>
			<point x="470" y="564" type="curve"/>
			<point x="534" y="625"/>
			<point x="593" y="726"/>
		</contour>
		<contour>
			<point x="861" y="765" type="line"/>
			<point x="460" y="765" type="line"/>
			<point x="460" y="660" type="line"/>
			<point x="861" y="660" type="line"/>
		</contour>
		<contour>
			<point x="839" y="765" type="line"/>
			<point x="819" y="765" type="line"/>
			<point x="819" y="748" type="line"/>
			<point x="810" y="705"/>
			<point x="790" y="646"/>
			<point x="768" y="596" type="curve"/>
			<point x="887" y="571" type="line"/>
			<point x="912" y="616"/>
			<point x="940" y="686"/>
			<point x="961" y="749" type="curve"/>
			<point x="860" y="769" type="line"/>
		</contour>
		<contour>
			<point x="724" y="663" type="curve" smooth="yes"/>
			<point x="724" y="718" type="line"/>
			<point x="657" y="718" type="line"/>
			<point x="587" y="718" type="line"/>
			<point x="587" y="663" type="line" smooth="yes"/>
			<point x="587" y="620"/>
			<point x="544" y="519"/>
			<point x="364" y="469" type="curve"/>
			<point x="387" y="444"/>
			<point x="414" y="402"/>
			<point x="427" y="373" type="curve"/>
			<point x="550" y="405"/>
			<point x="635" y="486"/>
			<point x="656" y="547" type="curve"/>
			<point x="676" y="485"/>
			<point x="749" y="403"/>
			<point x="880" y="372" type="curve"/>
			<point x="898" y="402"/>
			<point x="927" y="448"/>
			<point x="949" y="475" type="curve"/>
			<point x="756" y="526"/>
			<point x="724" y="619"/>
		</contour>
		<contour>
			<point x="498" y="328" type="curve"/>
			<point x="594" y="256"/>
			<point x="784" y="197"/>
			<point x="911" y="180" type="curve"/>
			<point x="928" y="215"/>
			<point x="956" y="265"/>
			<point x="983" y="298" type="curve"/>
			<point x="831" y="311"/>
			<point x="676" y="344"/>
			<point x="558" y="422" type="curve"/>
			<point x="428" y="422" type="line"/>
			<point x="339" y="354"/>
			<point x="180" y="307"/>
			<point x="22" y="290" type="curve"/>
			<point x="44" y="261"/>
			<point x="71" y="208"/>
			<point x="83" y="176" type="curve"/>
			<point x="235" y="200"/>
			<point x="409" y="261"/>
		</contour>
		<contour>
			<point x="700" y="283" type="line"/>
			<point x="308" y="283" type="line"/>
			<point x="308" y="202" type="line"/>
			<point x="700" y="202" type="line"/>
		</contour>
		<contour>
			<point x="842" y="173" type="line"/>
			<point x="166" y="173" type="line"/>
			<point x="166" y="88" type="line"/>
			<point x="842" y="88" type="line"/>
		</contour>
		<contour>
			<point x="569" y="242" type="line"/>
			<point x="428" y="242" type="line"/>
			<point x="428" y="-22" type="line"/>
			<point x="569" y="-22" type="line"/>
		</contour>
		<contour>
			<point x="336" y="116" type="curve"/>
			<point x="227" y="82" type="line"/>
			<point x="246" y="49"/>
			<point x="261" y="12"/>
			<point x="266" y="-15" type="curve"/>
			<point x="380" y="24" type="line"/>
			<point x="373" y="50"/>
			<point x="356" y="86"/>
		</contour>
		<contour>
			<point x="784" y="81" type="curve"/>
			<point x="662" y="109" type="line"/>
			<point x="652" y="80"/>
			<point x="638" y="45"/>
			<point x="626" y="18" type="curve"/>
			<point x="717" y="-9" type="line"/>
			<point x="733" y="12"/>
			<point x="759" y="47"/>
		</contour>
		<contour>
			<point x="931" y="28" type="line"/>
			<point x="71" y="28" type="line"/>
			<point x="71" y="-67" type="line"/>
			<point x="931" y="-67" type="line"/>
		</contour>
	</outline>
</glyph>
<glyph name="uni4B70" format="2">
	<advance width="1000" height="1000"/>
	<unicode hex="4B70"/>
	<note>
		cid08871
	</note>
	<outline>
		<contour>
			<point x="439" y="754" type="curve"/>
			<point x="348" y="848" type="line"/>
			<point x="272" y="824"/>
			<point x="146" y="809"/>
			<point x="34" y="803" type="curve"/>
			<point x="48" y="776"/>
			<point x="63" y="731"/>
			<point x="67" y="704" type="curve"/>
			<point x="188" y="707"/>
			<point x="332" y="721"/>
		</contour>
		<contour>
			<point x="299" y="752" type="line"/>
			<point x="177" y="752" type="line"/>
			<point x="177" y="351" type="line"/>
			<point x="299" y="351" type="line"/>
		</contour>
		<contour>
			<point x="425" y="669" type="line"/>
			<point x="37" y="669" type="line"/>
			<point x="37" y="557" type="line"/>
			<point x="425" y="557" type="line"/>
		</contour>
		<contour>
			<point x="352" y="186" type="line"/>
			<point x="113" y="186" type="line"/>
			<point x="113" y="90" type="line"/>
			<point x="352" y="90" type="line"/>
		</contour>
		<contour>
			<point x="349" y="54" type="line"/>
			<point x="110" y="54" type="line"/>
			<point x="110" y="-53" type="line"/>
			<point x="349" y="-53" type="line"/>
		</contour>
		<contour>
			<point x="255" y="568" type="curve"/>
			<point x="176" y="605" type="line"/>
			<point x="144" y="543"/>
			<point x="79" y="475"/>
			<point x="15" y="440" type="curve"/>
			<point x="32" y="407"/>
			<point x="55" y="356"/>
			<point x="64" y="322" type="curve"/>
			<point x="146" y="372"/>
			<point x="213" y="475"/>
		</contour>
		<contour>
			<point x="299" y="587" type="curve"/>
			<point x="241" y="535" type="line"/>
			<point x="276" y="495"/>
			<point x="328" y="426"/>
			<point x="359" y="377" type="curve"/>
			<point x="432" y="480" type="line"/>
			<point x="392" y="515"/>
			<point x="333" y="562"/>
		</contour>
		<contour>
			<point x="405" y="327" type="line"/>
			<point x="74" y="327" type="line"/>
			<point x="74" y="-92" type="line"/>
			<point x="194" y="-92" type="line"/>
			<point x="194" y="220" type="line"/>
			<point x="279" y="220" type="line"/>
			<point x="279" y="-88" type="line"/>
			<point x="405" y="-88" type="line"/>
		</contour>
		<contour>
			<point x="957" y="801" type="line"/>
			<point x="439" y="801" type="line"/>
			<point x="439" y="690" type="line"/>
			<point x="957" y="690" type="line"/>
		</contour>
		<contour>
			<point x="973" y="536" type="line"/>
			<point x="419" y="536" type="line"/>
			<point x="419" y="421" type="line"/>
			<point x="973" y="421" type="line"/>
		</contour>
		<contour>
			<point x="922" y="170" type="line"/>
			<point x="476" y="170" type="line"/>
			<point x="476" y="57" type="line"/>
			<point x="922" y="57" type="line"/>
		</contour>
		<contour>
			<point x="850" y="331" type="line"/>
			<point x="534" y="331" type="line"/>
			<point x="534" y="219" type="line"/>
			<point x="850" y="219" type="line"/>
		</contour>
		<contour>
			<point x="932" y="666" type="line"/>
			<point x="463" y="666" type="line"/>
			<point x="463" y="562" type="line"/>
			<point x="932" y="562" type="line"/>
		</contour>
		<contour>
			<point x="758" y="392" type="line"/>
			<point x="634" y="392" type="line"/>
			<point x="634" y="-94" type="line"/>
			<point x="758" y="-94" type="line"/>
		</contour>
		<contour>
			<point x="828" y="589" type="curve"/>
			<point x="722" y="564" type="line"/>
			<point x="757" y="395"/>
			<point x="823" y="262"/>
			<point x="905" y="193" type="curve"/>
			<point x="923" y="223"/>
			<point x="961" y="267"/>
			<point x="988" y="288" type="curve"/>
			<point x="912" y="349"/>
			<point x="855" y="457"/>
		</contour>
		<contour>
			<point x="728" y="844" type="curve"/>
			<point x="602" y="856" type="line"/>
			<point x="587" y="649"/>
			<point x="544" y="402"/>
			<point x="389" y="276" type="curve"/>
			<point x="414" y="256"/>
			<point x="455" y="214"/>
			<point x="473" y="189" type="curve"/>
			<point x="646" y="334"/>
			<point x="702" y="606"/>
		</contour>
	</outline>
</glyph>
<glyph name="uni4C07" format="2">
	<advance width="1000" height="1000"/>
	<unicode hex="4C07"/>
	<note>
		cid09032
	</note>
	<outline>
		<contour>
			<point x="947" y="327" type="line"/>
			<point x="51" y="327" type="line"/>
			<point x="51" y="233" type="line"/>
			<point x="947" y="233" type="line"/>
		</contour>
		<contour>
			<point x="722" y="437" type="line"/>
			<point x="136" y="437" type="line"/>
			<point x="136" y="350" type="line"/>
			<point x="722" y="350" type="line"/>
		</contour>
		<contour>
			<point x="776" y="90" type="line"/>
			<point x="291" y="90" type="line"/>
			<point x="291" y="25" type="line"/>
			<point x="776" y="25" type="line"/>
		</contour>
		<contour>
			<point x="776" y="1" type="line"/>
			<point x="291" y="1" type="line"/>
			<point x="291" y="-76" type="line"/>
			<point x="776" y="-76" type="line"/>
		</contour>
		<contour>
			<point x="500" y="468" type="line"/>
			<point x="362" y="468" type="line"/>
			<point x="362" y="263" type="line"/>
			<point x="500" y="263" type="line"/>
		</contour>
		<contour>
			<point x="872" y="191" type="line"/>
			<point x="253" y="191" type="line"/>
			<point x="253" y="-96" type="line"/>
			<point x="385" y="-96" type="line"/>
			<point x="385" y="114" type="line"/>
			<point x="733" y="114" type="line"/>
			<point x="733" y="-96" type="line"/>
			<point x="872" y="-96" type="line"/>
		</contour>
		<contour>
			<point x="916" y="410" type="curve"/>
			<point x="822" y="470" type="line"/>
			<point x="650" y="310"/>
			<point x="329" y="207"/>
			<point x="19" y="160" type="curve"/>
			<point x="37" y="136"/>
			<point x="64" y="84"/>
			<point x="75" y="58" type="curve"/>
			<point x="385" y="119"/>
			<point x="717" y="228"/>
		</contour>
		<contour>
			<point x="498" y="756" type="line"/>
			<point x="214" y="756" type="line"/>
			<point x="214" y="708" type="line"/>
			<point x="498" y="708" type="line"/>
		</contour>
		<contour>
			<point x="498" y="689" type="line"/>
			<point x="214" y="689" type="line"/>
			<point x="214" y="641" type="line"/>
			<point x="498" y="641" type="line"/>
		</contour>
		<contour>
			<point x="560" y="622" type="line"/>
			<point x="46" y="622" type="line"/>
			<point x="46" y="560" type="line"/>
			<point x="560" y="560" type="line"/>
		</contour>
		<contour>
			<point x="522" y="836" type="line"/>
			<point x="120" y="836" type="line"/>
			<point x="120" y="584" type="line"/>
			<point x="247" y="584" type="line"/>
			<point x="247" y="775" type="line"/>
			<point x="522" y="775" type="line"/>
		</contour>
		<contour>
			<point x="281" y="578" type="curve"/>
			<point x="166" y="604" type="line"/>
			<point x="158" y="577"/>
			<point x="141" y="538"/>
			<point x="127" y="510" type="curve"/>
			<point x="217" y="485" type="line"/>
			<point x="234" y="508"/>
			<point x="256" y="541"/>
		</contour>
		<contour>
			<point x="70" y="528" type="curve"/>
			<point x="76" y="455" type="line"/>
			<point x="183" y="461"/>
			<point x="316" y="469"/>
			<point x="451" y="480" type="curve"/>
			<point x="452" y="536" type="line"/>
			<point x="311" y="532"/>
			<point x="169" y="529"/>
		</contour>
		<contour>
			<point x="450" y="591" type="curve"/>
			<point x="367" y="552" type="line"/>
			<point x="401" y="519"/>
			<point x="441" y="473"/>
			<point x="458" y="443" type="curve"/>
			<point x="547" y="486" type="line"/>
			<point x="527" y="517"/>
			<point x="485" y="561"/>
		</contour>
		<contour>
			<point x="900" y="802" type="curve"/>
			<point x="805" y="852" type="line"/>
			<point x="741" y="818"/>
			<point x="615" y="785"/>
			<point x="526" y="770" type="curve"/>
			<point x="552" y="749"/>
			<point x="580" y="717"/>
			<point x="596" y="695" type="curve"/>
			<point x="692" y="716"/>
			<point x="816" y="753"/>
		</contour>
		<contour>
			<point x="935" y="695" type="curve"/>
			<point x="837" y="740" type="line"/>
			<point x="775" y="702"/>
			<point x="651" y="672"/>
			<point x="549" y="659" type="curve"/>
			<point x="574" y="637"/>
			<point x="601" y="604"/>
			<point x="616" y="579" type="curve"/>
			<point x="730" y="600"/>
			<point x="855" y="638"/>
		</contour>
		<contour>
			<point x="966" y="580" type="curve"/>
			<point x="861" y="619" type="line"/>
			<point x="799" y="575"/>
			<point x="671" y="549"/>
			<point x="547" y="539" type="curve"/>
			<point x="570" y="516"/>
			<point x="596" y="479"/>
			<point x="609" y="452" type="curve"/>
			<point x="754" y="474"/>
			<point x="886" y="509"/>
		</contour>
		<contour>
			<point x="743" y="276" type="curve"/>
			<point x="658" y="213" type="line"/>
			<point x="690" y="190"/>
			<point x="722" y="163"/>
			<point x="739" y="143" type="curve"/>
			<point x="828" y="212" type="line"/>
			<point x="810" y="231"/>
			<point x="777" y="256"/>
		</contour>
	</outline>
</glyph>
<glyph name="uni4CB3" format="2">
	<advance width="1000" height="1000"/>
	<unicode hex="4CB3"/>
	<note>
		cid09213
	</note>
	<outline>
		<contour>
			<point x="315" y="845" type="line"/>
			<point x="173" y="845" type="line"/>
			<point x="173" y="652" type="line"/>
			<point x="315" y="652" type="line"/>
		</contour>
		<contour>
			<point x="212" y="351" type="curve" smooth="yes"/>
			<point x="212" y="533" type="line"/>
			<point x="86" y="533" type="line"/>
			<point x="86" y="353" type="line" smooth="yes"/>
			<point x="86" y="257"/>
			<point x="80" y="129"/>
			<point x="11" y="38" type="curve"/>
			<point x="38" y="23"/>
			<point x="91" y="-23"/>
			<point x="111" y="-47" type="curve"/>
			<point x="195" y="60"/>
			<point x="212" y="231"/>
		</contour>
		<contour>
			<point x="457" y="722" type="line"/>
			<point x="33" y="722" type="line"/>
			<point x="33" y="585" type="line"/>
			<point x="457" y="585" type="line"/>
		</contour>
		<contour>
			<point x="377" y="201" type="curve" smooth="yes"/>
			<point x="377" y="533" type="line"/>
			<point x="252" y="533" type="line"/>
			<point x="252" y="195" type="line" smooth="yes"/>
			<point x="252" y="124"/>
			<point x="259" y="101"/>
			<point x="277" y="81" type="curve" smooth="yes"/>
			<point x="294" y="63"/>
			<point x="322" y="54"/>
			<point x="347" y="54" type="curve" smooth="yes"/>
			<point x="363" y="54"/>
			<point x="380" y="54"/>
			<point x="396" y="54" type="curve" smooth="yes"/>
			<point x="415" y="54"/>
			<point x="437" y="59"/>
			<point x="451" y="69" type="curve" smooth="yes"/>
			<point x="467" y="79"/>
			<point x="478" y="94"/>
			<point x="484" y="115" type="curve" smooth="yes"/>
			<point x="491" y="136"/>
			<point x="496" y="187"/>
			<point x="497" y="231" type="curve"/>
			<point x="469" y="240"/>
			<point x="432" y="259"/>
			<point x="412" y="277" type="curve"/>
			<point x="411" y="237"/>
			<point x="410" y="205"/>
			<point x="409" y="191" type="curve" smooth="yes"/>
			<point x="407" y="176"/>
			<point x="405" y="170"/>
			<point x="403" y="167" type="curve" smooth="yes"/>
			<point x="401" y="164"/>
			<point x="398" y="163"/>
			<point x="395" y="163" type="curve" smooth="yes"/>
			<point x="392" y="163"/>
			<point x="389" y="163"/>
			<point x="386" y="163" type="curve" smooth="yes"/>
			<point x="383" y="163"/>
			<point x="380" y="165"/>
			<point x="378" y="168" type="curve"/>
			<point x="377" y="172"/>
			<point x="377" y="182"/>
		</contour>
		<contour>
			<point x="317" y="533" type="line"/>
			<point x="152" y="533" type="line"/>
			<point x="152" y="404" type="line"/>
			<point x="317" y="404" type="line"/>
		</contour>
		<contour>
			<point x="806" y="841" type="curve"/>
			<point x="648" y="856" type="line"/>
			<point x="645" y="815"/>
			<point x="635" y="760"/>
			<point x="625" y="718" type="curve"/>
			<point x="745" y="698" type="line"/>
			<point x="762" y="734"/>
			<point x="785" y="785"/>
		</contour>
		<contour>
			<point x="938" y="783" type="line"/>
			<point x="568" y="783" type="line"/>
			<point x="568" y="688" type="line"/>
			<point x="809" y="688" type="line"/>
			<point x="809" y="541" type="line"/>
			<point x="568" y="541" type="line"/>
			<point x="568" y="446" type="line"/>
			<point x="938" y="446" type="line"/>
		</contour>
		<contour>
			<point x="869" y="656" type="line"/>
			<point x="568" y="656" type="line"/>
			<point x="568" y="573" type="line"/>
			<point x="869" y="573" type="line"/>
		</contour>
		<contour>
			<point x="975" y="418" type="line"/>
			<point x="568" y="418" type="line"/>
			<point x="568" y="320" type="line"/>
			<point x="975" y="320" type="line"/>
		</contour>
		<contour>
			<point x="635" y="783" type="line"/>
			<point x="505" y="783" type="line"/>
			<point x="505" y="253" type="line"/>
			<point x="635" y="253" type="line"/>
		</contour>
		<contour>
			<point x="903" y="288" type="line"/>
			<point x="505" y="288" type="line"/>
			<point x="505" y="186" type="line"/>
			<point x="903" y="186" type="line"/>
		</contour>
		<contour>
			<point x="974" y="288" type="curve"/>
			<point x="857" y="288" type="line"/>
			<point x="857" y="271" type="line"/>
			<point x="852" y="91"/>
			<point x="843" y="29"/>
			<point x="831" y="13" type="curve" smooth="yes"/>
			<point x="824" y="4"/>
			<point x="817" y="2"/>
			<point x="806" y="2" type="curve" smooth="yes"/>
			<point x="793" y="2"/>
			<point x="773" y="2"/>
			<point x="748" y="5" type="curve"/>
			<point x="763" y="-22"/>
			<point x="774" y="-65"/>
			<point x="776" y="-96" type="curve"/>
			<point x="812" y="-97"/>
			<point x="846" y="-96"/>
			<point x="867" y="-92" type="curve" smooth="yes"/>
			<point x="892" y="-89"/>
			<point x="913" y="-80"/>
			<point x="931" y="-57" type="curve" smooth="yes"/>
			<point x="954" y="-28"/>
			<point x="964" y="52"/>
			<point x="973" y="245" type="curve" smooth="yes"/>
			<point x="974" y="259"/>
			<point x="974" y="288"/>
		</contour>
		<contour>
			<point x="597" y="145" type="curve"/>
			<point x="495" y="173" type="line"/>
			<point x="485" y="98"/>
			<point x="463" y="23"/>
			<point x="423" y="-24" type="curve"/>
			<point x="519" y="-79" type="line"/>
			<point x="566" y="-24"/>
			<point x="585" y="62"/>
		</contour>
		<contour>
			<point x="675" y="141" type="curve"/>
			<point x="598" y="129" type="line"/>
			<point x="607" y="78"/>
			<point x="613" y="11"/>
			<point x="611" y="-32" type="curve"/>
			<point x="692" y="-18" type="line"/>
			<point x="693" y="25"/>
			<point x="686" y="91"/>
		</contour>
		<contour>
			<point x="757" y="155" type="curve"/>
			<point x="688" y="138" type="line"/>
			<point x="701" y="97"/>
			<point x="713" y="44"/>
			<point x="716" y="9" type="curve"/>
			<point x="789" y="29" type="line"/>
			<point x="785" y="63"/>
			<point x="772" y="115"/>
		</contour>
		<contour>
			<point x="830" y="174" type="curve"/>
			<point x="770" y="154" type="line"/>
			<point x="785" y="121"/>
			<point x="801" y="77"/>
			<point x="806" y="48" type="curve"/>
			<point x="869" y="71" type="line"/>
			<point x="863" y="100"/>
			<point x="846" y="145"/>
		</contour>
	</outline>
</glyph>
<glyph name="uni4D91" format="2">
	<advance width="1000" height="1000"/>
	<unicode hex="4D91"/>
	<note>
		cid09443
	</note>
	<outline>
		<contour>
			<point x="148" y="280" type="line"/>
			<point x="148" y="304" type="line"/>
			<point x="348" y="304" type="line"/>
			<point x="348" y="280" type="line"/>
		</contour>
		<contour>
			<point x="148" y="365" type="line"/>
			<point x="148" y="388" type="line"/>
			<point x="348" y="388" type="line"/>
			<point x="348" y="365" type="line"/>
		</contour>
		<contour>
			<point x="456" y="452" type="line"/>
			<point x="45" y="452" type="line"/>
			<point x="45" y="216" type="line"/>
			<point x="456" y="216" type="line"/>
		</contour>
		<contour>
			<point x="468" y="195" type="line"/>
			<point x="22" y="195" type="line"/>
			<point x="22" y="90" type="line"/>
			<point x="468" y="90" type="line"/>
		</contour>
		<contour>
			<point x="305" y="422" type="line"/>
			<point x="201" y="422" type="line"/>
			<point x="201" y="242" type="line"/>
			<point x="305" y="242" type="line"/>
		</contour>
		<contour>
			<point x="401" y="153" type="line"/>
			<point x="280" y="153" type="line"/>
			<point x="280" y="-95" type="line"/>
			<point x="401" y="-95" type="line"/>
		</contour>
		<contour>
			<point x="192" y="619" type="line"/>
			<point x="192" y="642" type="line"/>
			<point x="300" y="642" type="line"/>
			<point x="300" y="619" type="line"/>
		</contour>
		<contour>
			<point x="192" y="535" type="line"/>
			<point x="192" y="559" type="line"/>
			<point x="300" y="559" type="line"/>
			<point x="300" y="535" type="line"/>
		</contour>
		<contour>
			<point x="192" y="702" type="line"/>
			<point x="192" y="724" type="line"/>
			<point x="300" y="724" type="line"/>
			<point x="300" y="702" type="line"/>
		</contour>
		<contour>
			<point x="416" y="787" type="line"/>
			<point x="81" y="787" type="line"/>
			<point x="81" y="472" type="line"/>
			<point x="416" y="472" type="line"/>
		</contour>
		<contour>
			<point x="237" y="151" type="curve"/>
			<point x="118" y="151" type="line"/>
			<point x="112" y="76"/>
			<point x="99" y="22"/>
			<point x="11" y="-12" type="curve"/>
			<point x="36" y="-33"/>
			<point x="68" y="-78"/>
			<point x="81" y="-107" type="curve"/>
			<point x="203" y="-53"/>
			<point x="228" y="34"/>
		</contour>
		<contour>
			<point x="334" y="852" type="curve"/>
			<point x="189" y="857" type="line"/>
			<point x="187" y="831"/>
			<point x="180" y="797"/>
			<point x="174" y="767" type="curve"/>
			<point x="281" y="752" type="line"/>
			<point x="295" y="777"/>
			<point x="317" y="812"/>
		</contour>
		<contour>
			<point x="952" y="795" type="line"/>
			<point x="470" y="795" type="line"/>
			<point x="470" y="700" type="line"/>
			<point x="952" y="700" type="line"/>
		</contour>
		<contour>
			<point x="774" y="855" type="line"/>
			<point x="637" y="855" type="line"/>
			<point x="637" y="630" type="line"/>
			<point x="774" y="630" type="line"/>
		</contour>
		<contour>
			<point x="981" y="670" type="line"/>
			<point x="438" y="670" type="line"/>
			<point x="438" y="515" type="line"/>
			<point x="548" y="515" type="line"/>
			<point x="548" y="579" type="line"/>
			<point x="865" y="579" type="line"/>
			<point x="865" y="515" type="line"/>
			<point x="981" y="515" type="line"/>
		</contour>
		<contour>
			<point x="938" y="552" type="line"/>
			<point x="495" y="552" type="line"/>
			<point x="495" y="304" type="line"/>
			<point x="938" y="304" type="line"/>
		</contour>
		<contour>
			<point x="602" y="461" type="line"/>
			<point x="602" y="484" type="line"/>
			<point x="826" y="484" type="line"/>
			<point x="826" y="461" type="line"/>
		</contour>
		<contour>
			<point x="602" y="373" type="line"/>
			<point x="602" y="396" type="line"/>
			<point x="826" y="396" type="line"/>
			<point x="826" y="373" type="line"/>
		</contour>
		<contour>
			<point x="769" y="514" type="line"/>
			<point x="653" y="514" type="line"/>
			<point x="653" y="343" type="line"/>
			<point x="769" y="343" type="line"/>
		</contour>
		<contour>
			<point x="694" y="321" type="curve"/>
			<point x="581" y="360" type="line"/>
			<point x="566" y="319"/>
			<point x="542" y="271"/>
			<point x="518" y="234" type="curve"/>
			<point x="610" y="199" type="line"/>
			<point x="635" y="232"/>
			<point x="667" y="279"/>
		</contour>
		<contour>
			<point x="472" y="268" type="curve"/>
			<point x="479" y="168" type="line"/>
			<point x="581" y="171"/>
			<point x="749" y="175"/>
			<point x="886" y="179" type="curve"/>
			<point x="889" y="271" type="line"/>
			<point x="730" y="269"/>
			<point x="569" y="268"/>
		</contour>
		<contour>
			<point x="869" y="333" type="curve"/>
			<point x="778" y="286" type="line"/>
			<point x="822" y="250"/>
			<point x="866" y="201"/>
			<point x="892" y="160" type="curve"/>
			<point x="988" y="214" type="line"/>
			<point x="963" y="252"/>
			<point x="917" y="298"/>
		</contour>
		<contour>
			<point x="773" y="220" type="line"/>
			<point x="652" y="220" type="line"/>
			<point x="652" y="-20" type="line"/>
			<point x="773" y="-20" type="line"/>
		</contour>
		<contour>
			<point x="905" y="147" type="line"/>
			<point x="723" y="147" type="line"/>
			<point x="723" y="53" type="line"/>
			<point x="905" y="53" type="line"/>
		</contour>
		<contour>
			<point x="615" y="158" type="curve"/>
			<point x="494" y="169" type="line"/>
			<point x="485" y="94"/>
			<point x="459" y="30"/>
			<point x="392" y="-7" type="curve"/>
			<point x="420" y="-31"/>
			<point x="457" y="-70"/>
			<point x="476" y="-95" type="curve"/>
			<point x="552" y="-45"/>
			<point x="598" y="39"/>
		</contour>
		<contour>
			<point x="587" y="108" type="curve"/>
			<point x="498" y="83" type="line"/>
			<point x="545" y="-58"/>
			<point x="626" y="-86"/>
			<point x="761" y="-86" type="curve" smooth="yes"/>
			<point x="893" y="-86" type="line"/>
			<point x="948" y="-86" type="line"/>
			<point x="952" y="-55"/>
			<point x="967" y="-4"/>
			<point x="981" y="21" type="curve"/>
			<point x="931" y="19"/>
			<point x="808" y="19"/>
			<point x="769" y="19" type="curve" smooth="yes"/>
			<point x="678" y="19"/>
			<point x="617" y="28"/>
		</contour>
	</outline>
</glyph>
<glyph name="uni4E08" format="2">
	<advance width="1000" height="1000"/>
	<unicode hex="4E08"/>
	<note>
		cid09491
	</note>
	<outline>
		<contour>
			<point x="949" y="683" type="line"/>
			<point x="53" y="683" type="line"/>
			<point x="53" y="541" type="line"/>
			<point x="949" y="541" type="line"/>
		</contour>
		<contour>
			<point x="314" y="514" type="curve"/>
			<point x="170" y="480" type="line"/>
			<point x="291" y="97"/>
			<point x="505" y="-48"/>
			<point x="892" y="-97" type="curve"/>
			<point x="911" y="-54"/>
			<point x="952" y="15"/>
			<point x="984" y="49" type="curve"/>
			<point x="628" y="83"/>
			<point x="404" y="200"/>
		</contour>
		<contour>
			<point x="627" y="840" type="curve"/>
			<point x="464" y="840" type="line"/>
			<point x="461" y="394"/>
			<point x="487" y="155"/>
			<point x="19" y="40" type="curve"/>
			<point x="53" y="6"/>
			<point x="94" y="-54"/>
			<point x="110" y="-96" type="curve"/>
			<point x="630" y="47"/>
			<point x="624" y="362"/>
		</contour>
	</outline>
</glyph>
<glyph name="uni4E2B" format="2">
	<advance width="1000" height="1000"/>
	<unicode hex="4E2B"/>
	<note>
		cid09542
	</note>
	<outline>
		<contour>
			<point x="577" y="502" type="line"/>
			<point x="422" y="502" type="line"/>
			<point x="422" y="-95" type="line"/>
			<point x="577" y="-95" type="line"/>
		</contour>
		<contour>
			<point x="219" y="844" type="curve"/>
			<point x="98" y="766" type="line"/>
			<point x="192" y="687"/>
			<point x="277" y="580"/>
			<point x="320" y="488" type="curve"/>
			<point x="452" y="577" type="line"/>
			<point x="408" y="659"/>
			<point x="318" y="762"/>
		</contour>
		<contour>
			<point x="901" y="765" type="curve"/>
			<point x="755" y="843" type="line"/>
			<point x="682" y="704"/>
			<point x="565" y="564"/>
			<point x="452" y="479" type="curve"/>
			<point x="555" y="369" type="line"/>
			<point x="670" y="463"/>
			<point x="804" y="615"/>
		</contour>
	</outline>
</glyph>
<glyph name="uni4E60" format="2">
	<advance width="1000" height="1000"/>
	<unicode hex="4E60"/>
	<note>
		cid09610
	</note>
	<outline>
		<contour>
			<point x="809" y="804" type="line"/>
			<point x="99" y="804" type="line"/>
			<point x="99" y="664" type="line"/>
			<point x="809" y="664" type="line"/>
		</contour>
		<contour>
			<point x="333" y="616" type="curve"/>
			<point x="212" y="544" type="line"/>
			<point x="270" y="483"/>
			<point x="325" y="406"/>
			<point x="355" y="344" type="curve"/>
			<point x="482" y="427" type="line"/>
			<point x="451" y="482"/>
			<point x="394" y="555"/>
		</contour>
		<contour>
			<point x="917" y="804" type="curve"/>
			<point x="768" y="804" type="line"/>
			<point x="768" y="774" type="line"/>
			<point x="764" y="326"/>
			<point x="760" y="108"/>
			<point x="722" y="71" type="curve"/>
			<point x="711" y="58"/>
			<point x="699" y="53"/>
			<point x="677" y="53" type="curve" smooth="yes"/>
			<point x="642" y="53"/>
			<point x="578" y="53"/>
			<point x="498" y="58" type="curve"/>
			<point x="524" y="19"/>
			<point x="546" y="-42"/>
			<point x="547" y="-80" type="curve"/>
			<point x="613" y="-82"/>
			<point x="693" y="-84"/>
			<point x="743" y="-76" type="curve" smooth="yes"/>
			<point x="792" y="-68"/>
			<point x="826" y="-51"/>
			<point x="860" y="0" type="curve" smooth="yes"/>
			<point x="902" y="61"/>
			<point x="911" y="233"/>
			<point x="917" y="731" type="curve" smooth="yes"/>
			<point x="917" y="750"/>
			<point x="917" y="804"/>
		</contour>
		<contour>
			<point x="82" y="171" type="curve"/>
			<point x="131" y="24" type="line"/>
			<point x="290" y="82"/>
			<point x="503" y="159"/>
			<point x="696" y="234" type="curve"/>
			<point x="669" y="367" type="line"/>
			<point x="461" y="292"/>
			<point x="227" y="212"/>
		</contour>
	</outline>
</glyph>
<glyph name="uni4E6A" format="2">
	<advance width="1000" height="1000"/>
	<unicode hex="4E6A"/>
	<note>
		cid09622
	</note>
	<outline>
		<contour>
			<point x="333" y="797" type="line"/>
			<point x="71" y="797" type="line"/>
			<point x="71" y="657" type="line"/>
			<point x="333" y="657" type="line"/>
		</contour>
		<contour>
			<point x="316" y="797" type="line"/>
			<point x="280" y="797" type="line"/>
			<point x="56" y="252"/>
			<point x="46" y="179"/>
			<point x="46" y="103" type="curve" smooth="yes"/>
			<point x="46" y="4"/>
			<point x="117" y="-67"/>
			<point x="300" y="-67" type="curve" smooth="yes"/>
			<point x="720" y="-67" type="line" smooth="yes"/>
			<point x="898" y="-67"/>
			<point x="956" y="-28"/>
			<point x="974" y="141" type="curve"/>
			<point x="933" y="148"/>
			<point x="872" y="168"/>
			<point x="831" y="191" type="curve"/>
			<point x="825" y="90"/>
			<point x="801" y="76"/>
			<point x="737" y="76" type="curve" smooth="yes"/>
			<point x="274" y="76" type="line" smooth="yes"/>
			<point x="222" y="76"/>
			<point x="195" y="91"/>
			<point x="195" y="130" type="curve" smooth="yes"/>
			<point x="195" y="187"/>
			<point x="207" y="251"/>
			<point x="422" y="746" type="curve"/>
			<point x="426" y="753"/>
			<point x="429" y="766"/>
			<point x="431" y="773" type="curve"/>
			<point x="350" y="799" type="line"/>
		</contour>
		<contour>
			<point x="723" y="739" type="line"/>
			<point x="614" y="739" type="line"/>
			<point x="614" y="207" type="line"/>
			<point x="723" y="207" type="line"/>
		</contour>
		<contour>
			<point x="908" y="794" type="line"/>
			<point x="440" y="794" type="line"/>
			<point x="440" y="175" type="line"/>
			<point x="908" y="175" type="line"/>
		</contour>
		<contour>
			<point x="565" y="293" type="line"/>
			<point x="565" y="668" type="line"/>
			<point x="777" y="668" type="line"/>
			<point x="777" y="293" type="line"/>
		</contour>
		<contour>
			<point x="853" y="539" type="line"/>
			<point x="497" y="539" type="line"/>
			<point x="497" y="422" type="line"/>
			<point x="853" y="422" type="line"/>
		</contour>
	</outline>
</glyph>
<glyph name="uni4EC5" format="2">
	<advance width="1000" height="1000"/>
	<unicode hex="4EC5"/>
	<note>
		cid09762
	</note>
	<outline>
		<contour>
			<point x="853" y="753" type="line"/>
			<point x="380" y="753" type="line"/>
			<point x="380" y="618" type="line"/>
			<point x="853" y="618" type="line"/>
		</contour>
		<contour>
			<point x="544" y="623" type="curve"/>
			<point x="402" y="594" type="line"/>
			<point x="482" y="232"/>
			<point x="645" y="4"/>
			<point x="895" y="-94" type="curve"/>
			<point x="916" y="-57"/>
			<point x="960" y="2"/>
			<point x="992" y="30" type="curve"/>
			<point x="758" y="115"/>
			<point x="609" y="312"/>
		</contour>
		<contour>
			<point x="827" y="753" type="line"/>
			<point x="802" y="753" type="line"/>
			<point x="802" y="722" type="line"/>
			<point x="747" y="386"/>
			<point x="571" y="136"/>
			<point x="310" y="26" type="curve"/>
			<point x="341" y="-1"/>
			<point x="381" y="-56"/>
			<point x="401" y="-94" type="curve"/>
			<point x="701" y="49"/>
			<point x="883" y="319"/>
			<point x="949" y="723" type="curve"/>
			<point x="851" y="759" type="line"/>
		</contour>
		<contour>
			<point x="298" y="691" type="line"/>
			<point x="156" y="549" type="line"/>
			<point x="156" y="-93" type="line"/>
			<point x="300" y="-93" type="line"/>
			<point x="300" y="689" type="line"/>
		</contour>
		<contour>
			<point x="395" y="803" type="curve"/>
			<point x="250" y="850" type="line"/>
			<point x="196" y="706"/>
			<point x="103" y="564"/>
			<point x="6" y="475" type="curve"/>
			<point x="32" y="438"/>
			<point x="75" y="356"/>
			<point x="90" y="319" type="curve"/>
			<point x="209" y="436"/>
			<point x="325" y="627"/>
		</contour>
	</outline>
</glyph>
<glyph name="uni4F18" format="2">
	<advance width="1000" height="1000"/>
	<unicode hex="4F18"/>
	<note>
		cid09885
	</note>
	<outline>
		<contour>
			<point x="737" y="98" type="curve" smooth="yes"/>
			<point x="737" y="443" type="line"/>
			<point x="593" y="443" type="line"/>
			<point x="593" y="98" type="line" smooth="yes"/>
			<point x="593" y="-35"/>
			<point x="622" y="-79"/>
			<point x="739" y="-79" type="curve" smooth="yes"/>
			<point x="759" y="-79"/>
			<point x="812" y="-79"/>
			<point x="832" y="-79" type="curve" smooth="yes"/>
			<point x="932" y="-79"/>
			<point x="967" y="-27"/>
			<point x="980" y="151" type="curve"/>
			<point x="942" y="161"/>
			<point x="880" y="185"/>
			<point x="851" y="210" type="curve"/>
			<point x="847" y="77"/>
			<point x="842" y="55"/>
			<point x="818" y="55" type="curve" smooth="yes"/>
			<point x="808" y="55"/>
			<point x="774" y="55"/>
			<point x="764" y="55" type="curve" smooth="yes"/>
			<point x="740" y="55"/>
			<point x="737" y="60"/>
		</contour>
		<contour>
			<point x="956" y="630" type="line"/>
			<point x="325" y="630" type="line"/>
			<point x="325" y="493" type="line"/>
			<point x="956" y="493" type="line"/>
		</contour>
		<contour>
			<point x="681" y="709" type="curve" smooth="yes"/>
			<point x="681" y="844" type="line"/>
			<point x="536" y="844" type="line"/>
			<point x="536" y="709" type="line" smooth="yes"/>
			<point x="536" y="319"/>
			<point x="482" y="150"/>
			<point x="287" y="18" type="curve"/>
			<point x="326" y="-11"/>
			<point x="370" y="-61"/>
			<point x="392" y="-100" type="curve"/>
			<point x="599" y="45"/>
			<point x="681" y="270"/>
		</contour>
		<contour>
			<point x="799" y="834" type="curve"/>
			<point x="701" y="759" type="line"/>
			<point x="761" y="708"/>
			<point x="813" y="654"/>
			<point x="836" y="617" type="curve"/>
			<point x="942" y="700" type="line"/>
			<point x="912" y="739"/>
			<point x="857" y="791"/>
		</contour>
		<contour>
			<point x="373" y="810" type="curve"/>
			<point x="237" y="853" type="line"/>
			<point x="191" y="716"/>
			<point x="103" y="570"/>
			<point x="10" y="474" type="curve"/>
			<point x="34" y="437"/>
			<point x="73" y="356"/>
			<point x="86" y="321" type="curve"/>
			<point x="194" y="437"/>
			<point x="305" y="626"/>
		</contour>
		<contour>
			<point x="288" y="701" type="line"/>
			<point x="147" y="563" type="line"/>
			<point x="147" y="-95" type="line"/>
			<point x="288" y="-95" type="line"/>
			<point x="288" y="700" type="line"/>
		</contour>
	</outline>
</glyph>
<glyph name="uni4F41" format="2">
	<advance width="1000" height="1000"/>
	<unicode hex="4F41"/>
	<note>
		cid09940
	</note>
	<outline>
		<contour>
			<point x="365" y="808" type="curve"/>
			<point x="228" y="851" type="line"/>
			<point x="181" y="713"/>
			<point x="100" y="576"/>
			<point x="15" y="488" type="curve"/>
			<point x="39" y="452"/>
			<point x="78" y="371"/>
			<point x="91" y="335" type="curve"/>
			<point x="199" y="451"/>
			<point x="302" y="638"/>
		</contour>
		<contour>
			<point x="268" y="702" type="line"/>
			<point x="130" y="564" type="line"/>
			<point x="130" y="-94" type="line"/>
			<point x="268" y="-94" type="line"/>
			<point x="268" y="701" type="line"/>
		</contour>
		<contour>
			<point x="821" y="78" type="line"/>
			<point x="447" y="78" type="line"/>
			<point x="447" y="-55" type="line"/>
			<point x="821" y="-55" type="line"/>
		</contour>
		<contour>
			<point x="893" y="333" type="line"/>
			<point x="380" y="333" type="line"/>
			<point x="380" y="-94" type="line"/>
			<point x="521" y="-94" type="line"/>
			<point x="521" y="200" type="line"/>
			<point x="745" y="200" type="line"/>
			<point x="745" y="-90" type="line"/>
			<point x="893" y="-90" type="line"/>
		</contour>
		<contour>
			<point x="299" y="533" type="curve"/>
			<point x="316" y="387" type="line"/>
			<point x="466" y="399"/>
			<point x="675" y="414"/>
			<point x="869" y="432" type="curve"/>
			<point x="870" y="566" type="line"/>
			<point x="668" y="553"/>
			<point x="445" y="539"/>
		</contour>
		<contour>
			<point x="792" y="717" type="curve"/>
			<point x="664" y="654" type="line"/>
			<point x="738" y="561"/>
			<point x="818" y="431"/>
			<point x="849" y="345" type="curve"/>
			<point x="985" y="420" type="line"/>
			<point x="948" y="505"/>
			<point x="870" y="626"/>
		</contour>
		<contour>
			<point x="673" y="821" type="curve"/>
			<point x="504" y="857" type="line"/>
			<point x="477" y="739"/>
			<point x="424" y="588"/>
			<point x="373" y="487" type="curve"/>
			<point x="503" y="450" type="line"/>
			<point x="556" y="544"/>
			<point x="622" y="687"/>
		</contour>
	</outline>
</glyph>
<glyph name="uni4F62" format="2">
	<advance width="1000" height="1000"/>
	<unicode hex="4F62"/>
	<note>
		cid09989
	</note>
	<outline>
		<contour>
			<point x="395" y="803" type="curve"/>
			<point x="250" y="850" type="line"/>
			<point x="197" y="709"/>
			<point x="103" y="564"/>
			<point x="6" y="475" type="curve"/>
			<point x="32" y="438"/>
			<point x="75" y="356"/>
			<point x="90" y="319" type="curve"/>
			<point x="205" y="433"/>
			<point x="322" y="619"/>
		</contour>
		<contour>
			<point x="290" y="704" type="line"/>
			<point x="151" y="544" type="line"/>
			<point x="151" y="-93" type="line"/>
			<point x="295" y="-93" type="line"/>
			<point x="295" y="701" type="line"/>
		</contour>
		<contour>
			<point x="925" y="579" type="line"/>
			<point x="490" y="579" type="line"/>
			<point x="490" y="438" type="line"/>
			<point x="775" y="438" type="line"/>
			<point x="775" y="322" type="line"/>
			<point x="490" y="322" type="line"/>
			<point x="490" y="181" type="line"/>
			<point x="925" y="181" type="line"/>
		</contour>
		<contour>
			<point x="960" y="801" type="line"/>
			<point x="400" y="801" type="line"/>
			<point x="400" y="-96" type="line"/>
			<point x="552" y="-96" type="line"/>
			<point x="552" y="659" type="line"/>
			<point x="960" y="659" type="line"/>
		</contour>
		<contour>
			<point x="973" y="90" type="line"/>
			<point x="490" y="90" type="line"/>
			<point x="490" y="-52" type="line"/>
			<point x="973" y="-52" type="line"/>
		</contour>
	</outline>
</glyph>
<glyph name="uni4FD6" format="2">
	<advance width="1000" height="1000"/>
	<unicode hex="4FD6"/>
	<note>
		cid10176
	</note>
	<outline>
		<contour>
			<point x="953" y="788" type="line"/>
			<point x="363" y="788" type="line"/>
			<point x="363" y="647" type="line"/>
			<point x="953" y="647" type="line"/>
		</contour>
		<contour>
			<point x="385" y="805" type="curve"/>
			<point x="239" y="850" type="line"/>
			<point x="189" y="707"/>
			<point x="103" y="564"/>
			<point x="12" y="475" type="curve"/>
			<point x="38" y="438"/>
			<point x="82" y="356"/>
			<point x="97" y="319" type="curve"/>
			<point x="210" y="437"/>
			<point x="319" y="629"/>
		</contour>
		<contour>
			<point x="293" y="689" type="line"/>
			<point x="151" y="547" type="line"/>
			<point x="151" y="-95" type="line"/>
			<point x="295" y="-95" type="line"/>
			<point x="295" y="687" type="line"/>
		</contour>
		<contour>
			<point x="800" y="711" type="curve"/>
			<point x="661" y="761" type="line"/>
			<point x="587" y="635"/>
			<point x="447" y="530"/>
			<point x="298" y="470" type="curve"/>
			<point x="327" y="442"/>
			<point x="374" y="379"/>
			<point x="394" y="348" type="curve"/>
			<point x="551" y="426"/>
			<point x="706" y="556"/>
		</contour>
		<contour>
			<point x="670" y="654" type="line"/>
			<point x="571" y="555" type="line"/>
			<point x="571" y="314" type="line"/>
			<point x="715" y="314" type="line"/>
			<point x="715" y="639" type="line"/>
		</contour>
		<contour>
			<point x="834" y="76" type="line"/>
			<point x="464" y="76" type="line"/>
			<point x="464" y="-57" type="line"/>
			<point x="834" y="-57" type="line"/>
		</contour>
		<contour>
			<point x="917" y="294" type="line"/>
			<point x="384" y="294" type="line"/>
			<point x="384" y="-91" type="line"/>
			<point x="529" y="-91" type="line"/>
			<point x="529" y="159" type="line"/>
			<point x="764" y="159" type="line"/>
			<point x="764" y="-87" type="line"/>
			<point x="917" y="-87" type="line"/>
		</contour>
		<contour>
			<point x="777" y="609" type="curve"/>
			<point x="693" y="508" type="line"/>
			<point x="763" y="464"/>
			<point x="855" y="398"/>
			<point x="896" y="352" type="curve"/>
			<point x="986" y="465" type="line"/>
			<point x="941" y="509"/>
			<point x="845" y="570"/>
		</contour>
	</outline>
</glyph>
<glyph name="uni4FF7" format="2">
	<advance width="1000" height="1000"/>
	<unicode hex="4FF7"/>
	<note>
		cid10225
	</note>
	<outline>
		<contour>
			<point x="302" y="815" type="curve"/>
			<point x="173" y="853" type="line"/>
			<point x="138" y="721"/>
			<point x="78" y="589"/>
			<point x="11" y="502" type="curve"/>
			<point x="32" y="464"/>
			<point x="65" y="378"/>
			<point x="74" y="343" type="curve"/>
			<point x="168" y="460"/>
			<point x="252" y="648"/>
		</contour>
		<contour>
			<point x="238" y="689" type="line"/>
			<point x="109" y="560" type="line"/>
			<point x="109" y="-98" type="line"/>
			<point x="238" y="-98" type="line"/>
			<point x="238" y="688" type="line"/>
		</contour>
		<contour>
			<point x="506" y="805" type="line"/>
			<point x="334" y="805" type="line"/>
			<point x="334" y="680" type="line"/>
			<point x="506" y="680" type="line"/>
		</contour>
		<contour>
			<point x="395" y="444" type="curve" smooth="yes"/>
			<point x="395" y="805" type="line"/>
			<point x="284" y="805" type="line"/>
			<point x="284" y="443" type="line" smooth="yes"/>
			<point x="284" y="299"/>
			<point x="281" y="99"/>
			<point x="234" y="-38" type="curve"/>
			<point x="261" y="-49"/>
			<point x="311" y="-79"/>
			<point x="332" y="-97" type="curve"/>
			<point x="386" y="52"/>
			<point x="395" y="286"/>
		</contour>
		<contour>
			<point x="544" y="48" type="curve" smooth="yes"/>
			<point x="544" y="805" type="line"/>
			<point x="433" y="805" type="line"/>
			<point x="433" y="51" type="line" smooth="yes"/>
			<point x="433" y="40"/>
			<point x="430" y="37"/>
			<point x="422" y="37" type="curve" smooth="yes"/>
			<point x="413" y="36"/>
			<point x="387" y="36"/>
			<point x="364" y="38" type="curve"/>
			<point x="380" y="3"/>
			<point x="393" y="-59"/>
			<point x="395" y="-94" type="curve"/>
			<point x="446" y="-94"/>
			<point x="480" y="-90"/>
			<point x="510" y="-68" type="curve" smooth="yes"/>
			<point x="539" y="-45"/>
			<point x="544" y="-5"/>
		</contour>
		<contour>
			<point x="950" y="801" type="line"/>
			<point x="640" y="801" type="line"/>
			<point x="640" y="675" type="line"/>
			<point x="842" y="675" type="line"/>
			<point x="842" y="295" type="line"/>
			<point x="950" y="295" type="line"/>
		</contour>
		<contour>
			<point x="698" y="95" type="curve" smooth="yes"/>
			<point x="698" y="801" type="line"/>
			<point x="579" y="801" type="line"/>
			<point x="579" y="95" type="line" smooth="yes"/>
			<point x="579" y="-53"/>
			<point x="614" y="-86"/>
			<point x="716" y="-86" type="curve" smooth="yes"/>
			<point x="739" y="-86"/>
			<point x="821" y="-86"/>
			<point x="846" y="-86" type="curve" smooth="yes"/>
			<point x="938" y="-86"/>
			<point x="971" y="-30"/>
			<point x="986" y="113" type="curve"/>
			<point x="950" y="120"/>
			<point x="902" y="142"/>
			<point x="875" y="162" type="curve"/>
			<point x="870" y="65"/>
			<point x="864" y="39"/>
			<point x="834" y="39" type="curve" smooth="yes"/>
			<point x="819" y="39"/>
			<point x="751" y="39"/>
			<point x="735" y="39" type="curve" smooth="yes"/>
			<point x="702" y="39"/>
			<point x="698" y="45"/>
		</contour>
		<contour>
			<point x="905" y="463" type="line"/>
			<point x="639" y="463" type="line"/>
			<point x="639" y="336" type="line"/>
			<point x="905" y="336" type="line"/>
		</contour>
		<contour>
			<point x="811" y="740" type="line"/>
			<point x="723" y="740" type="line"/>
			<point x="723" y="402" type="line"/>
			<point x="811" y="402" type="line"/>
		</contour>
		<contour>
			<point x="506" y="580" type="line"/>
			<point x="334" y="580" type="line"/>
			<point x="334" y="449" type="line"/>
			<point x="506" y="449" type="line"/>
		</contour>
		<contour>
			<point x="506" y="351" type="line"/>
			<point x="334" y="351" type="line"/>
			<point x="334" y="217" type="line"/>
			<point x="506" y="217" type="line"/>
		</contour>
	</outline>
</glyph>
<glyph name="uni505D" format="2">
	<advance width="1000" height="1000"/>
	<unicode hex="505D"/>
	<note>
		cid10408
	</note>
	<outline>
		<contour>
			<point x="541" y="775" type="line"/>
			<point x="320" y="775" type="line"/>
			<point x="320" y="653" type="line"/>
			<point x="541" y="653" type="line"/>
		</contour>
		<contour>
			<point x="294" y="588" type="curve"/>
			<point x="323" y="466" type="line"/>
			<point x="396" y="481"/>
			<point x="481" y="501"/>
			<point x="543" y="518" type="curve"/>
			<point x="536" y="632" type="line"/>
			<point x="466" y="617"/>
			<point x="373" y="600"/>
		</contour>
		<contour>
			<point x="601" y="855" type="line"/>
			<point x="461" y="855" type="line"/>
			<point x="461" y="450" type="line"/>
			<point x="601" y="450" type="line"/>
		</contour>
		<contour>
			<point x="782" y="614" type="curve" smooth="yes"/>
			<point x="782" y="855" type="line"/>
			<point x="639" y="855" type="line"/>
			<point x="639" y="613" type="line" smooth="yes"/>
			<point x="639" y="492"/>
			<point x="662" y="451"/>
			<point x="775" y="451" type="curve" smooth="yes"/>
			<point x="800" y="451"/>
			<point x="826" y="451"/>
			<point x="851" y="451" type="curve" smooth="yes"/>
			<point x="932" y="451"/>
			<point x="968" y="484"/>
			<point x="983" y="600" type="curve"/>
			<point x="944" y="609"/>
			<point x="886" y="631"/>
			<point x="859" y="652" type="curve"/>
			<point x="856" y="590"/>
			<point x="852" y="579"/>
			<point x="836" y="579" type="curve" smooth="yes"/>
			<point x="824" y="579"/>
			<point x="813" y="579"/>
			<point x="801" y="579" type="curve" smooth="yes"/>
			<point x="784" y="579"/>
			<point x="782" y="582"/>
		</contour>
		<contour>
			<point x="882" y="33" type="curve" smooth="yes"/>
			<point x="882" y="433" type="line"/>
			<point x="740" y="433" type="line"/>
			<point x="740" y="34" type="line" smooth="yes"/>
			<point x="740" y="22"/>
			<point x="736" y="18"/>
			<point x="723" y="18" type="curve" smooth="yes"/>
			<point x="712" y="18"/>
			<point x="669" y="18"/>
			<point x="640" y="20" type="curve"/>
			<point x="656" y="-12"/>
			<point x="674" y="-62"/>
			<point x="680" y="-98" type="curve"/>
			<point x="743" y="-98"/>
			<point x="793" y="-96"/>
			<point x="832" y="-77" type="curve" smooth="yes"/>
			<point x="871" y="-58"/>
			<point x="882" y="-27"/>
		</contour>
		<contour>
			<point x="351" y="811" type="curve"/>
			<point x="217" y="853" type="line"/>
			<point x="171" y="716"/>
			<point x="91" y="578"/>
			<point x="8" y="490" type="curve"/>
			<point x="31" y="454"/>
			<point x="69" y="372"/>
			<point x="81" y="336" type="curve"/>
			<point x="181" y="443"/>
			<point x="285" y="626"/>
		</contour>
		<contour>
			<point x="272" y="704" type="line"/>
			<point x="132" y="564" type="line"/>
			<point x="132" y="-98" type="line"/>
			<point x="273" y="-98" type="line"/>
			<point x="273" y="703" type="line"/>
		</contour>
		<contour>
			<point x="830" y="433" type="line"/>
			<point x="442" y="433" type="line"/>
			<point x="442" y="315" type="line"/>
			<point x="830" y="315" type="line"/>
		</contour>
		<contour>
			<point x="528" y="433" type="line"/>
			<point x="390" y="433" type="line"/>
			<point x="390" y="-94" type="line"/>
			<point x="528" y="-94" type="line"/>
		</contour>
		<contour>
			<point x="831" y="289" type="line"/>
			<point x="443" y="289" type="line"/>
			<point x="443" y="185" type="line"/>
			<point x="831" y="185" type="line"/>
		</contour>
		<contour>
			<point x="832" y="159" type="line"/>
			<point x="444" y="159" type="line"/>
			<point x="444" y="55" type="line"/>
			<point x="832" y="55" type="line"/>
		</contour>
		<contour>
			<point x="978" y="712" type="curve"/>
			<point x="878" y="820" type="line"/>
			<point x="820" y="777"/>
			<point x="743" y="739"/>
			<point x="664" y="716" type="curve"/>
			<point x="679" y="684"/>
			<point x="694" y="644"/>
			<point x="702" y="610" type="curve"/>
			<point x="795" y="632"/>
			<point x="901" y="672"/>
		</contour>
	</outline>
</glyph>
<glyph name="uni506E" format="2">
	<advance width="1000" height="1000"/>
	<unicode hex="506E"/>
	<note>
		cid10438
	</note>
	<outline>
		<contour>
			<point x="358" y="808" type="curve"/>
			<point x="221" y="851" type="line"/>
			<point x="174" y="713"/>
			<point x="93" y="576"/>
			<point x="8" y="488" type="curve"/>
			<point x="32" y="452"/>
			<point x="71" y="371"/>
			<point x="84" y="335" type="curve"/>
			<point x="192" y="451"/>
			<point x="295" y="638"/>
		</contour>
		<contour>
			<point x="273" y="706" type="line"/>
			<point x="132" y="564" type="line"/>
			<point x="132" y="-98" type="line"/>
			<point x="273" y="-98" type="line"/>
			<point x="273" y="705" type="line"/>
		</contour>
		<contour>
			<point x="516" y="674" type="line"/>
			<point x="516" y="717" type="line"/>
			<point x="744" y="717" type="line"/>
			<point x="744" y="674" type="line"/>
		</contour>
		<contour>
			<point x="884" y="831" type="line"/>
			<point x="380" y="831" type="line"/>
			<point x="380" y="560" type="line"/>
			<point x="884" y="560" type="line"/>
		</contour>
		<contour>
			<point x="949" y="528" type="line"/>
			<point x="317" y="528" type="line"/>
			<point x="317" y="408" type="line"/>
			<point x="949" y="408" type="line"/>
		</contour>
		<contour>
			<point x="536" y="446" type="line"/>
			<point x="403" y="446" type="line"/>
			<point x="403" y="47" type="line"/>
			<point x="536" y="55" type="line"/>
		</contour>
		<contour>
			<point x="759" y="377" type="line"/>
			<point x="475" y="377" type="line"/>
			<point x="475" y="281" type="line"/>
			<point x="759" y="281" type="line"/>
		</contour>
		<contour>
			<point x="764" y="250" type="line"/>
			<point x="475" y="250" type="line"/>
			<point x="475" y="154" type="line"/>
			<point x="764" y="154" type="line"/>
		</contour>
		<contour>
			<point x="861" y="443" type="line"/>
			<point x="727" y="443" type="line"/>
			<point x="727" y="-93" type="line"/>
			<point x="861" y="-93" type="line"/>
		</contour>
		<contour>
			<point x="293" y="113" type="curve"/>
			<point x="303" y="-12" type="line"/>
			<point x="448" y="-7"/>
			<point x="704" y="5"/>
			<point x="967" y="21" type="curve"/>
			<point x="971" y="136" type="line"/>
			<point x="705" y="125"/>
			<point x="443" y="116"/>
		</contour>
	</outline>
</glyph>
<glyph name="uni507A" format="2">
	<advance width="1000" height="1000"/>
	<unicode hex="507A"/>
	<note>
		cid10459
	</note>
	<outline>
		<contour>
			<point x="305" y="816" type="curve"/>
			<point x="176" y="853" type="line"/>
			<point x="140" y="712"/>
			<point x="78" y="570"/>
			<point x="8" y="477" type="curve"/>
			<point x="29" y="439"/>
			<point x="62" y="354"/>
			<point x="71" y="318" type="curve"/>
			<point x="168" y="442"/>
			<point x="254" y="640"/>
		</contour>
		<contour>
			<point x="232" y="668" type="line"/>
			<point x="108" y="544" type="line"/>
			<point x="108" y="-94" type="line"/>
			<point x="234" y="-94" type="line"/>
			<point x="234" y="666" type="line"/>
		</contour>
		<contour>
			<point x="424" y="674" type="curve"/>
			<point x="329" y="633" type="line"/>
			<point x="432" y="378"/>
			<point x="617" y="319"/>
			<point x="824" y="319" type="curve" smooth="yes"/>
			<point x="912" y="319" type="line"/>
			<point x="941" y="319" type="line"/>
			<point x="947" y="354"/>
			<point x="965" y="414"/>
			<point x="982" y="443" type="curve"/>
			<point x="945" y="442"/>
			<point x="862" y="442"/>
			<point x="834" y="442" type="curve" smooth="yes"/>
			<point x="672" y="443"/>
			<point x="505" y="482"/>
		</contour>
		<contour>
			<point x="523" y="820" type="curve"/>
			<point x="399" y="852" type="line"/>
			<point x="363" y="750"/>
			<point x="296" y="653"/>
			<point x="217" y="593" type="curve"/>
			<point x="245" y="572"/>
			<point x="293" y="526"/>
			<point x="313" y="503" type="curve"/>
			<point x="398" y="576"/>
			<point x="477" y="695"/>
		</contour>
		<contour>
			<point x="569" y="761" type="line"/>
			<point x="424" y="761" type="line"/>
			<point x="374" y="661" type="line"/>
			<point x="569" y="661" type="line"/>
		</contour>
		<contour>
			<point x="564" y="761" type="line"/>
			<point x="539" y="761" type="line"/>
			<point x="539" y="740" type="line"/>
			<point x="499" y="571"/>
			<point x="387" y="452"/>
			<point x="241" y="393" type="curve"/>
			<point x="267" y="373"/>
			<point x="309" y="321"/>
			<point x="325" y="292" type="curve"/>
			<point x="481" y="365"/>
			<point x="608" y="510"/>
			<point x="664" y="730" type="curve"/>
			<point x="586" y="765" type="line"/>
		</contour>
		<contour>
			<point x="879" y="321" type="line"/>
			<point x="349" y="321" type="line"/>
			<point x="349" y="-93" type="line"/>
			<point x="482" y="-93" type="line"/>
			<point x="482" y="209" type="line"/>
			<point x="740" y="209" type="line"/>
			<point x="740" y="-89" type="line"/>
			<point x="879" y="-89" type="line"/>
		</contour>
		<contour>
			<point x="798" y="48" type="line"/>
			<point x="419" y="48" type="line"/>
			<point x="419" y="-63" type="line"/>
			<point x="798" y="-63" type="line"/>
		</contour>
		<contour>
			<point x="790" y="177" type="line"/>
			<point x="438" y="177" type="line"/>
			<point x="438" y="81" type="line"/>
			<point x="790" y="81" type="line"/>
		</contour>
		<contour>
			<point x="798" y="705" type="curve"/>
			<point x="720" y="642" type="line"/>
			<point x="785" y="579"/>
			<point x="846" y="500"/>
			<point x="879" y="437" type="curve"/>
			<point x="962" y="510" type="line"/>
			<point x="929" y="567"/>
			<point x="866" y="642"/>
		</contour>
		<contour>
			<point x="860" y="829" type="curve"/>
			<point x="745" y="848" type="line"/>
			<point x="723" y="718"/>
			<point x="675" y="604"/>
			<point x="595" y="534" type="curve"/>
			<point x="617" y="511"/>
			<point x="653" y="458"/>
			<point x="666" y="433" type="curve"/>
			<point x="767" y="523"/>
			<point x="828" y="666"/>
		</contour>
	</outline>
</glyph>
<glyph name="uni507B" format="2">
	<advance width="1000" height="1000"/>
	<unicode hex="507B"/>
	<note>
		cid10460
	</note>
	<outline>
		<contour>
			<point x="373" y="810" type="curve"/>
			<point x="237" y="853" type="line"/>
			<point x="187" y="709"/>
			<point x="100" y="565"/>
			<point x="10" y="474" type="curve"/>
			<point x="34" y="437"/>
			<point x="73" y="356"/>
			<point x="86" y="321" type="curve"/>
			<point x="193" y="434"/>
			<point x="304" y="623"/>
		</contour>
		<contour>
			<point x="287" y="701" type="line"/>
			<point x="147" y="563" type="line"/>
			<point x="147" y="-95" type="line"/>
			<point x="288" y="-95" type="line"/>
			<point x="288" y="700" type="line"/>
		</contour>
		<contour>
			<point x="953" y="675" type="line"/>
			<point x="327" y="675" type="line"/>
			<point x="327" y="557" type="line"/>
			<point x="953" y="557" type="line"/>
		</contour>
		<contour>
			<point x="927" y="802" type="curve"/>
			<point x="785" y="846" type="line"/>
			<point x="771" y="808"/>
			<point x="744" y="757"/>
			<point x="721" y="722" type="curve"/>
			<point x="831" y="682" type="line"/>
			<point x="858" y="711"/>
			<point x="891" y="755"/>
		</contour>
		<contour>
			<point x="703" y="856" type="line"/>
			<point x="562" y="856" type="line"/>
			<point x="562" y="388" type="line"/>
			<point x="703" y="388" type="line"/>
		</contour>
		<contour>
			<point x="486" y="847" type="curve"/>
			<point x="371" y="803" type="line"/>
			<point x="397" y="764"/>
			<point x="418" y="711"/>
			<point x="422" y="676" type="curve"/>
			<point x="545" y="723" type="line"/>
			<point x="539" y="760"/>
			<point x="514" y="809"/>
		</contour>
		<contour>
			<point x="631" y="557" type="curve"/>
			<point x="537" y="616" type="line"/>
			<point x="489" y="552"/>
			<point x="391" y="488"/>
			<point x="304" y="459" type="curve"/>
			<point x="331" y="432"/>
			<point x="362" y="384"/>
			<point x="377" y="352" type="curve"/>
			<point x="469" y="397"/>
			<point x="575" y="480"/>
		</contour>
		<contour>
			<point x="723" y="627" type="curve"/>
			<point x="629" y="594" type="line"/>
			<point x="687" y="492"/>
			<point x="784" y="401"/>
			<point x="892" y="354" type="curve"/>
			<point x="911" y="386"/>
			<point x="949" y="433"/>
			<point x="977" y="458" type="curve"/>
			<point x="874" y="490"/>
			<point x="774" y="555"/>
		</contour>
		<contour>
			<point x="556" y="190" type="curve"/>
			<point x="470" y="88" type="line"/>
			<point x="609" y="45"/>
			<point x="758" y="-25"/>
			<point x="857" y="-95" type="curve"/>
			<point x="960" y="16" type="line"/>
			<point x="853" y="82"/>
			<point x="697" y="149"/>
		</contour>
		<contour>
			<point x="676" y="372" type="curve"/>
			<point x="534" y="403" type="line"/>
			<point x="487" y="307"/>
			<point x="421" y="190"/>
			<point x="361" y="99" type="curve"/>
			<point x="498" y="62" type="line"/>
			<point x="555" y="150"/>
			<point x="623" y="270"/>
		</contour>
		<contour>
			<point x="966" y="330" type="line"/>
			<point x="322" y="330" type="line"/>
			<point x="322" y="210" type="line"/>
			<point x="966" y="210" type="line"/>
		</contour>
		<contour>
			<point x="843" y="227" type="curve"/>
			<point x="715" y="254" type="line"/>
			<point x="671" y="100"/>
			<point x="576" y="43"/>
			<point x="334" y="25" type="curve"/>
			<point x="356" y="-3"/>
			<point x="379" y="-52"/>
			<point x="388" y="-91" type="curve"/>
			<point x="678" y="-48"/>
			<point x="792" y="32"/>
		</contour>
	</outline>
</glyph>
<glyph name="uni50B3" format="2">
	<advance width="1000" height="1000"/>
	<unicode hex="50B3"/>
	<note>
		cid10569
	</note>
	<outline>
		<contour>
			<point x="499" y="456" type="line"/>
			<point x="499" y="485" type="line"/>
			<point x="803" y="485" type="line"/>
			<point x="803" y="456" type="line"/>
		</contour>
		<contour>
			<point x="499" y="557" type="line"/>
			<point x="499" y="586" type="line"/>
			<point x="803" y="586" type="line"/>
			<point x="803" y="557" type="line"/>
		</contour>
		<contour>
			<point x="942" y="662" type="line"/>
			<point x="367" y="662" type="line"/>
			<point x="367" y="380" type="line"/>
			<point x="942" y="380" type="line"/>
		</contour>
		<contour>
			<point x="330" y="349" type="curve"/>
			<point x="341" y="243" type="line"/>
			<point x="490" y="246"/>
			<point x="703" y="251"/>
			<point x="904" y="258" type="curve"/>
			<point x="908" y="355" type="line"/>
			<point x="699" y="352"/>
			<point x="475" y="349"/>
		</contour>
		<contour>
			<point x="863" y="428" type="curve"/>
			<point x="767" y="378" type="line"/>
			<point x="812" y="333"/>
			<point x="865" y="269"/>
			<point x="887" y="228" type="curve"/>
			<point x="990" y="284" type="line"/>
			<point x="964" y="326"/>
			<point x="908" y="386"/>
		</contour>
		<contour>
			<point x="721" y="847" type="line"/>
			<point x="580" y="847" type="line"/>
			<point x="580" y="289" type="line"/>
			<point x="721" y="304" type="line"/>
		</contour>
		<contour>
			<point x="975" y="221" type="line"/>
			<point x="308" y="221" type="line"/>
			<point x="308" y="112" type="line"/>
			<point x="975" y="112" type="line"/>
		</contour>
		<contour>
			<point x="855" y="32" type="curve" smooth="yes"/>
			<point x="855" y="288" type="line"/>
			<point x="715" y="288" type="line"/>
			<point x="715" y="36" type="line" smooth="yes"/>
			<point x="715" y="25"/>
			<point x="710" y="21"/>
			<point x="696" y="21" type="curve" smooth="yes"/>
			<point x="683" y="21"/>
			<point x="631" y="21"/>
			<point x="594" y="23" type="curve"/>
			<point x="610" y="-11"/>
			<point x="627" y="-61"/>
			<point x="633" y="-97" type="curve"/>
			<point x="703" y="-97"/>
			<point x="758" y="-97"/>
			<point x="800" y="-79" type="curve" smooth="yes"/>
			<point x="844" y="-61"/>
			<point x="855" y="-29"/>
		</contour>
		<contour>
			<point x="493" y="148" type="curve"/>
			<point x="386" y="83" type="line"/>
			<point x="428" y="41"/>
			<point x="478" y="-18"/>
			<point x="499" y="-56" type="curve"/>
			<point x="614" y="16" type="line"/>
			<point x="589" y="55"/>
			<point x="535" y="110"/>
		</contour>
		<contour>
			<point x="966" y="792" type="line"/>
			<point x="326" y="792" type="line"/>
			<point x="326" y="689" type="line"/>
			<point x="966" y="689" type="line"/>
		</contour>
		<contour>
			<point x="359" y="808" type="curve"/>
			<point x="222" y="851" type="line"/>
			<point x="174" y="713"/>
			<point x="91" y="575"/>
			<point x="5" y="488" type="curve"/>
			<point x="29" y="452"/>
			<point x="68" y="371"/>
			<point x="81" y="335" type="curve"/>
			<point x="190" y="451"/>
			<point x="295" y="637"/>
		</contour>
		<contour>
			<point x="268" y="702" type="line"/>
			<point x="130" y="564" type="line"/>
			<point x="130" y="-94" type="line"/>
			<point x="268" y="-94" type="line"/>
			<point x="268" y="701" type="line"/>
		</contour>
	</outline>
</glyph>
<glyph name="uni50BC" format="2">
	<advance width="1000" height="1000"/>
	<unicode hex="50BC"/>
	<note>
		cid10586
	</note>
	<outline>
		<contour>
			<point x="332" y="807" type="curve"/>
			<point x="199" y="848" type="line"/>
			<point x="158" y="714"/>
			<point x="88" y="580"/>
			<point x="11" y="493" type="curve"/>
			<point x="34" y="455"/>
			<point x="69" y="370"/>
			<point x="79" y="334" type="curve"/>
			<point x="182" y="450"/>
			<point x="276" y="638"/>
		</contour>
		<contour>
			<point x="254" y="694" type="line"/>
			<point x="123" y="563" type="line"/>
			<point x="123" y="-95" type="line"/>
			<point x="261" y="-95" type="line"/>
			<point x="261" y="691" type="line"/>
		</contour>
		<contour>
			<point x="963" y="792" type="line"/>
			<point x="332" y="792" type="line"/>
			<point x="332" y="684" type="line"/>
			<point x="963" y="684" type="line"/>
		</contour>
		<contour>
			<point x="942" y="303" type="line"/>
			<point x="343" y="303" type="line"/>
			<point x="343" y="207" type="line"/>
			<point x="942" y="207" type="line"/>
		</contour>
		<contour>
			<point x="964" y="185" type="line"/>
			<point x="320" y="185" type="line"/>
			<point x="320" y="87" type="line"/>
			<point x="964" y="87" type="line"/>
		</contour>
		<contour>
			<point x="566" y="854" type="line"/>
			<point x="429" y="854" type="line"/>
			<point x="429" y="566" type="line"/>
			<point x="858" y="566" type="line"/>
			<point x="858" y="854" type="line"/>
			<point x="715" y="854" type="line"/>
			<point x="715" y="657" type="line"/>
			<point x="566" y="657" type="line"/>
		</contour>
		<contour>
			<point x="485" y="418" type="line"/>
			<point x="485" y="452" type="line"/>
			<point x="798" y="452" type="line"/>
			<point x="798" y="418" type="line"/>
		</contour>
		<contour>
			<point x="936" y="544" type="line"/>
			<point x="354" y="544" type="line"/>
			<point x="354" y="325" type="line"/>
			<point x="936" y="325" type="line"/>
		</contour>
		<contour>
			<point x="704" y="284" type="curve" smooth="yes"/>
			<point x="704" y="614" type="line"/>
			<point x="574" y="614" type="line"/>
			<point x="574" y="285" type="line" smooth="yes"/>
			<point x="574" y="157"/>
			<point x="539" y="58"/>
			<point x="300" y="14" type="curve"/>
			<point x="323" y="-11"/>
			<point x="356" y="-68"/>
			<point x="368" y="-99" type="curve"/>
			<point x="658" y="-39"/>
			<point x="704" y="102"/>
		</contour>
		<contour>
			<point x="710" y="157" type="curve"/>
			<point x="602" y="133" type="line"/>
			<point x="650" y="13"/>
			<point x="759" y="-70"/>
			<point x="907" y="-99" type="curve"/>
			<point x="926" y="-62"/>
			<point x="965" y="-6"/>
			<point x="995" y="23" type="curve"/>
			<point x="854" y="36"/>
			<point x="752" y="84"/>
		</contour>
	</outline>
</glyph>
<glyph name="uni50C1" format="2">
	<advance width="1000" height="1000"/>
	<unicode hex="50C1"/>
	<note>
		cid10594
	</note>
	<outline>
		<contour>
			<point x="323" y="811" type="curve"/>
			<point x="190" y="853" type="line"/>
			<point x="148" y="720"/>
			<point x="76" y="588"/>
			<point x="-1" y="503" type="curve"/>
			<point x="21" y="464"/>
			<point x="55" y="379"/>
			<point x="66" y="343" type="curve"/>
			<point x="170" y="458"/>
			<point x="266" y="644"/>
		</contour>
		<contour>
			<point x="242" y="679" type="line"/>
			<point x="107" y="544" type="line"/>
			<point x="107" y="-94" type="line"/>
			<point x="244" y="-94" type="line"/>
			<point x="244" y="677" type="line"/>
		</contour>
		<contour>
			<point x="960" y="580" type="line"/>
			<point x="298" y="580" type="line"/>
			<point x="298" y="466" type="line"/>
			<point x="960" y="466" type="line"/>
		</contour>
		<contour>
			<point x="695" y="725" type="line"/>
			<point x="556" y="725" type="line"/>
			<point x="556" y="311" type="line"/>
			<point x="695" y="311" type="line"/>
		</contour>
		<contour>
			<point x="922" y="739" type="curve"/>
			<point x="833" y="840" type="line"/>
			<point x="708" y="812"/>
			<point x="507" y="795"/>
			<point x="329" y="790" type="curve"/>
			<point x="342" y="762"/>
			<point x="357" y="714"/>
			<point x="361" y="685" type="curve"/>
			<point x="544" y="688"/>
			<point x="762" y="703"/>
		</contour>
		<contour>
			<point x="624" y="482" type="curve"/>
			<point x="507" y="526" type="line"/>
			<point x="460" y="455"/>
			<point x="368" y="385"/>
			<point x="275" y="348" type="curve"/>
			<point x="304" y="323"/>
			<point x="346" y="274"/>
			<point x="366" y="243" type="curve"/>
			<point x="468" y="293"/>
			<point x="565" y="385"/>
		</contour>
		<contour>
			<point x="912" y="685" type="curve"/>
			<point x="776" y="716" type="line"/>
			<point x="766" y="677"/>
			<point x="746" y="624"/>
			<point x="729" y="588" type="curve"/>
			<point x="842" y="558" type="line"/>
			<point x="862" y="590"/>
			<point x="886" y="636"/>
		</contour>
		<contour>
			<point x="469" y="699" type="curve"/>
			<point x="350" y="663" type="line"/>
			<point x="371" y="627"/>
			<point x="394" y="578"/>
			<point x="401" y="548" type="curve"/>
			<point x="528" y="587" type="line"/>
			<point x="518" y="619"/>
			<point x="492" y="665"/>
		</contour>
		<contour>
			<point x="458" y="169" type="curve"/>
			<point x="338" y="204" type="line"/>
			<point x="327" y="126"/>
			<point x="302" y="51"/>
			<point x="260" y="3" type="curve"/>
			<point x="372" y="-71" type="line"/>
			<point x="414" y="-26"/>
			<point x="447" y="66"/>
		</contour>
		<contour>
			<point x="586" y="67" type="curve" smooth="yes"/>
			<point x="586" y="211" type="line"/>
			<point x="451" y="211" type="line"/>
			<point x="451" y="65" type="line" smooth="yes"/>
			<point x="451" y="-46"/>
			<point x="477" y="-84"/>
			<point x="594" y="-84" type="curve" smooth="yes"/>
			<point x="694" y="-84" type="line" smooth="yes"/>
			<point x="782" y="-84"/>
			<point x="816" y="-53"/>
			<point x="829" y="74" type="curve"/>
			<point x="794" y="82"/>
			<point x="737" y="102"/>
			<point x="711" y="123" type="curve"/>
			<point x="708" y="46"/>
			<point x="703" y="35"/>
			<point x="680" y="35" type="curve" smooth="yes"/>
			<point x="616" y="35" type="line" smooth="yes"/>
			<point x="590" y="35"/>
			<point x="586" y="38"/>
		</contour>
		<contour>
			<point x="584" y="335" type="curve"/>
			<point x="500" y="248" type="line"/>
			<point x="565" y="217"/>
			<point x="638" y="170"/>
			<point x="675" y="133" type="curve"/>
			<point x="765" y="229" type="line"/>
			<point x="728" y="262"/>
			<point x="653" y="306"/>
		</contour>
		<contour>
			<point x="867" y="230" type="curve"/>
			<point x="747" y="177" type="line"/>
			<point x="803" y="94"/>
			<point x="845" y="-1"/>
			<point x="858" y="-68" type="curve"/>
			<point x="988" y="-9" type="line"/>
			<point x="973" y="62"/>
			<point x="922" y="157"/>
		</contour>
		<contour>
			<point x="735" y="528" type="curve"/>
			<point x="637" y="486" type="line"/>
			<point x="682" y="389"/>
			<point x="777" y="296"/>
			<point x="883" y="245" type="curve"/>
			<point x="904" y="280"/>
			<point x="946" y="332"/>
			<point x="977" y="358" type="curve"/>
			<point x="877" y="392"/>
			<point x="783" y="458"/>
		</contour>
	</outline>
</glyph>
<glyph name="uni50D7" format="2">
	<advance width="1000" height="1000"/>
	<unicode hex="50D7"/>
	<note>
		cid10634
	</note>
	<outline>
		<contour>
			<point x="957" y="498" type="line"/>
			<point x="293" y="498" type="line"/>
			<point x="293" y="296" type="line"/>
			<point x="427" y="296" type="line"/>
			<point x="427" y="382" type="line"/>
			<point x="816" y="382" type="line"/>
			<point x="816" y="296" type="line"/>
			<point x="957" y="296" type="line"/>
		</contour>
		<contour>
			<point x="646" y="784" type="curve"/>
			<point x="565" y="808" type="line"/>
			<point x="552" y="773"/>
			<point x="531" y="731"/>
			<point x="512" y="698" type="curve"/>
			<point x="579" y="676" type="line"/>
			<point x="599" y="704"/>
			<point x="622" y="743"/>
		</contour>
		<contour>
			<point x="507" y="684" type="curve"/>
			<point x="432" y="610" type="line"/>
			<point x="474" y="582"/>
			<point x="523" y="545"/>
			<point x="557" y="515" type="curve"/>
			<point x="638" y="595" type="line"/>
			<point x="596" y="627"/>
			<point x="545" y="661"/>
		</contour>
		<contour>
			<point x="793" y="303" type="line"/>
			<point x="351" y="303" type="line"/>
			<point x="351" y="183" type="line"/>
			<point x="793" y="183" type="line"/>
		</contour>
		<contour>
			<point x="538" y="856" type="curve"/>
			<point x="434" y="856" type="line"/>
			<point x="430" y="700"/>
			<point x="418" y="623"/>
			<point x="280" y="577" type="curve"/>
			<point x="304" y="555"/>
			<point x="327" y="522"/>
			<point x="338" y="493" type="curve"/>
			<point x="508" y="553"/>
			<point x="533" y="663"/>
		</contour>
		<contour>
			<point x="908" y="303" type="curve"/>
			<point x="765" y="303" type="line"/>
			<point x="765" y="284" type="line"/>
			<point x="761" y="96"/>
			<point x="745" y="49"/>
			<point x="734" y="36" type="curve" smooth="yes"/>
			<point x="725" y="26"/>
			<point x="716" y="24"/>
			<point x="701" y="24" type="curve" smooth="yes"/>
			<point x="684" y="24"/>
			<point x="651" y="25"/>
			<point x="616" y="28" type="curve"/>
			<point x="636" y="-5"/>
			<point x="651" y="-57"/>
			<point x="653" y="-94" type="curve"/>
			<point x="701" y="-95"/>
			<point x="747" y="-94"/>
			<point x="775" y="-90" type="curve" smooth="yes"/>
			<point x="803" y="-86"/>
			<point x="831" y="-77"/>
			<point x="854" y="-49" type="curve" smooth="yes"/>
			<point x="882" y="-16"/>
			<point x="895" y="66"/>
			<point x="906" y="253" type="curve"/>
			<point x="907" y="269"/>
			<point x="908" y="303"/>
		</contour>
		<contour>
			<point x="675" y="366" type="curve"/>
			<point x="536" y="366" type="line"/>
			<point x="531" y="136"/>
			<point x="492" y="71"/>
			<point x="277" y="21" type="curve"/>
			<point x="304" y="-6"/>
			<point x="339" y="-59"/>
			<point x="351" y="-94" type="curve"/>
			<point x="601" y="-28"/>
			<point x="668" y="76"/>
		</contour>
		<contour>
			<point x="982" y="782" type="curve"/>
			<point x="893" y="808" type="line"/>
			<point x="875" y="770"/>
			<point x="849" y="726"/>
			<point x="825" y="695" type="curve"/>
			<point x="901" y="669" type="line"/>
			<point x="926" y="698"/>
			<point x="954" y="739"/>
		</contour>
		<contour>
			<point x="816" y="678" type="curve"/>
			<point x="742" y="606" type="line"/>
			<point x="804" y="568"/>
			<point x="865" y="527"/>
			<point x="899" y="500" type="curve"/>
			<point x="977" y="580" type="line"/>
			<point x="941" y="605"/>
			<point x="880" y="643"/>
		</contour>
		<contour>
			<point x="858" y="856" type="curve"/>
			<point x="755" y="856" type="line"/>
			<point x="750" y="676"/>
			<point x="716" y="621"/>
			<point x="602" y="577" type="curve"/>
			<point x="626" y="554"/>
			<point x="649" y="522"/>
			<point x="661" y="495" type="curve"/>
			<point x="799" y="549"/>
			<point x="853" y="640"/>
		</contour>
		<contour>
			<point x="413" y="787" type="curve"/>
			<point x="339" y="810" type="line"/>
			<point x="333" y="767"/>
			<point x="317" y="719"/>
			<point x="293" y="691" type="curve"/>
			<point x="363" y="649" type="line"/>
			<point x="392" y="684"/>
			<point x="405" y="736"/>
		</contour>
		<contour>
			<point x="728" y="786" type="curve"/>
			<point x="657" y="808" type="line"/>
			<point x="651" y="764"/>
			<point x="635" y="715"/>
			<point x="611" y="686" type="curve"/>
			<point x="678" y="647" type="line"/>
			<point x="707" y="682"/>
			<point x="720" y="735"/>
		</contour>
		<contour>
			<point x="321" y="824" type="curve"/>
			<point x="187" y="855" type="line"/>
			<point x="156" y="723"/>
			<point x="87" y="585"/>
			<point x="8" y="495" type="curve"/>
			<point x="31" y="454"/>
			<point x="61" y="383"/>
			<point x="76" y="335" type="curve"/>
			<point x="186" y="461"/>
			<point x="281" y="649"/>
		</contour>
		<contour>
			<point x="252" y="698" type="line"/>
			<point x="125" y="564" type="line"/>
			<point x="125" y="-95" type="line"/>
			<point x="256" y="-95" type="line"/>
			<point x="256" y="696" type="line"/>
		</contour>
	</outline>
</glyph>
<glyph name="uni50E0" format="2">
	<advance width="1000" height="1000"/>
	<unicode hex="50E0"/>
	<note>
		cid10652
	</note>
	<outline>
		<contour>
			<point x="351" y="811" type="curve"/>
			<point x="217" y="853" type="line"/>
			<point x="171" y="716"/>
			<point x="91" y="578"/>
			<point x="8" y="490" type="curve"/>
			<point x="31" y="454"/>
			<point x="69" y="372"/>
			<point x="81" y="336" type="curve"/>
			<point x="183" y="447"/>
			<point x="287" y="630"/>
		</contour>
		<contour>
			<point x="270" y="698" type="line"/>
			<point x="132" y="560" type="line"/>
			<point x="132" y="-98" type="line"/>
			<point x="273" y="-98" type="line"/>
			<point x="273" y="697" type="line"/>
		</contour>
		<contour>
			<point x="959" y="608" type="line"/>
			<point x="315" y="608" type="line"/>
			<point x="315" y="489" type="line"/>
			<point x="959" y="489" type="line"/>
		</contour>
		<contour>
			<point x="842" y="180" type="line"/>
			<point x="436" y="180" type="line"/>
			<point x="436" y="82" type="line"/>
			<point x="842" y="82" type="line"/>
		</contour>
		<contour>
			<point x="842" y="44" type="line"/>
			<point x="436" y="44" type="line"/>
			<point x="436" y="-62" type="line"/>
			<point x="842" y="-62" type="line"/>
		</contour>
		<contour>
			<point x="700" y="761" type="line"/>
			<point x="567" y="761" type="line"/>
			<point x="567" y="337" type="line"/>
			<point x="700" y="337" type="line"/>
		</contour>
		<contour>
			<point x="703" y="269" type="line"/>
			<point x="570" y="269" type="line"/>
			<point x="570" y="-22" type="line"/>
			<point x="703" y="-22" type="line"/>
		</contour>
		<contour>
			<point x="923" y="760" type="curve"/>
			<point x="837" y="859" type="line"/>
			<point x="716" y="834"/>
			<point x="519" y="820"/>
			<point x="346" y="817" type="curve"/>
			<point x="362" y="782"/>
			<point x="373" y="741"/>
			<point x="377" y="714" type="curve"/>
			<point x="562" y="714"/>
			<point x="776" y="728"/>
		</contour>
		<contour>
			<point x="484" y="731" type="curve"/>
			<point x="376" y="694" type="line"/>
			<point x="399" y="657"/>
			<point x="418" y="612"/>
			<point x="426" y="579" type="curve"/>
			<point x="537" y="621" type="line"/>
			<point x="529" y="653"/>
			<point x="507" y="698"/>
		</contour>
		<contour>
			<point x="900" y="701" type="curve"/>
			<point x="780" y="738" type="line"/>
			<point x="768" y="705"/>
			<point x="747" y="656"/>
			<point x="730" y="623" type="curve"/>
			<point x="829" y="589" type="line"/>
			<point x="849" y="617"/>
			<point x="874" y="658"/>
		</contour>
		<contour>
			<point x="913" y="324" type="line"/>
			<point x="369" y="324" type="line"/>
			<point x="369" y="-95" type="line"/>
			<point x="503" y="-95" type="line"/>
			<point x="503" y="215" type="line"/>
			<point x="772" y="215" type="line"/>
			<point x="772" y="-91" type="line"/>
			<point x="913" y="-91" type="line"/>
		</contour>
		<contour>
			<point x="608" y="499" type="curve"/>
			<point x="501" y="540" type="line"/>
			<point x="452" y="468"/>
			<point x="367" y="404"/>
			<point x="284" y="370" type="curve"/>
			<point x="314" y="343"/>
			<point x="348" y="304"/>
			<point x="371" y="268" type="curve"/>
			<point x="467" y="316"/>
			<point x="551" y="405"/>
		</contour>
		<contour>
			<point x="738" y="549" type="curve"/>
			<point x="652" y="506" type="line"/>
			<point x="711" y="415"/>
			<point x="806" y="328"/>
			<point x="898" y="280" type="curve"/>
			<point x="921" y="318"/>
			<point x="957" y="360"/>
			<point x="990" y="389" type="curve"/>
			<point x="894" y="422"/>
			<point x="797" y="484"/>
		</contour>
	</outline>
</glyph>
<glyph name="uni50FD" format="2">
	<advance width="1000" height="1000"/>
	<unicode hex="50FD"/>
	<note>
		cid10707
	</note>
	<outline>
		<contour>
			<point x="323" y="811" type="curve"/>
			<point x="190" y="853" type="line"/>
			<point x="148" y="720"/>
			<point x="76" y="588"/>
			<point x="-1" y="503" type="curve"/>
			<point x="21" y="464"/>
			<point x="55" y="379"/>
			<point x="66" y="343" type="curve"/>
			<point x="170" y="458"/>
			<point x="266" y="644"/>
		</contour>
		<contour>
			<point x="242" y="679" type="line"/>
			<point x="107" y="544" type="line"/>
			<point x="107" y="-94" type="line"/>
			<point x="244" y="-94" type="line"/>
			<point x="244" y="677" type="line"/>
		</contour>
		<contour>
			<point x="578" y="66" type="curve" smooth="yes"/>
			<point x="578" y="199" type="line"/>
			<point x="443" y="199" type="line"/>
			<point x="443" y="64" type="line" smooth="yes"/>
			<point x="443" y="-46"/>
			<point x="468" y="-84"/>
			<point x="588" y="-84" type="curve" smooth="yes"/>
			<point x="610" y="-84"/>
			<point x="665" y="-84"/>
			<point x="689" y="-84" type="curve" smooth="yes"/>
			<point x="776" y="-84"/>
			<point x="810" y="-52"/>
			<point x="825" y="74" type="curve"/>
			<point x="789" y="82"/>
			<point x="732" y="103"/>
			<point x="707" y="123" type="curve"/>
			<point x="703" y="46"/>
			<point x="698" y="35"/>
			<point x="674" y="35" type="curve" smooth="yes"/>
			<point x="660" y="35"/>
			<point x="620" y="35"/>
			<point x="609" y="35" type="curve" smooth="yes"/>
			<point x="582" y="35"/>
			<point x="578" y="38"/>
		</contour>
		<contour>
			<point x="452" y="165" type="curve"/>
			<point x="331" y="201" type="line"/>
			<point x="320" y="129"/>
			<point x="294" y="59"/>
			<point x="253" y="15" type="curve"/>
			<point x="364" y="-60" type="line"/>
			<point x="416" y="-4"/>
			<point x="438" y="81"/>
		</contour>
		<contour>
			<point x="579" y="304" type="curve"/>
			<point x="493" y="231" type="line"/>
			<point x="550" y="195"/>
			<point x="618" y="139"/>
			<point x="647" y="99" type="curve"/>
			<point x="740" y="179" type="line"/>
			<point x="706" y="220"/>
			<point x="636" y="271"/>
		</contour>
		<contour>
			<point x="873" y="229" type="curve"/>
			<point x="753" y="176" type="line"/>
			<point x="802" y="104"/>
			<point x="846" y="10"/>
			<point x="857" y="-53" type="curve"/>
			<point x="987" y="5" type="line"/>
			<point x="973" y="72"/>
			<point x="924" y="160"/>
		</contour>
		<contour>
			<point x="983" y="722" type="curve"/>
			<point x="870" y="749" type="line"/>
			<point x="855" y="693"/>
			<point x="825" y="616"/>
			<point x="799" y="566" type="curve"/>
			<point x="896" y="540" type="line"/>
			<point x="922" y="586"/>
			<point x="954" y="656"/>
		</contour>
		<contour>
			<point x="833" y="605" type="curve" smooth="yes"/>
			<point x="833" y="840" type="line"/>
			<point x="776" y="840" type="line"/>
			<point x="717" y="840" type="line"/>
			<point x="717" y="605" type="line" smooth="yes"/>
			<point x="717" y="545"/>
			<point x="693" y="429"/>
			<point x="574" y="361" type="curve"/>
			<point x="594" y="337"/>
			<point x="622" y="289"/>
			<point x="634" y="262" type="curve"/>
			<point x="718" y="310"/>
			<point x="764" y="406"/>
			<point x="775" y="461" type="curve"/>
			<point x="788" y="407"/>
			<point x="836" y="307"/>
			<point x="921" y="262" type="curve"/>
			<point x="936" y="290"/>
			<point x="966" y="337"/>
			<point x="987" y="363" type="curve"/>
			<point x="859" y="430"/>
			<point x="833" y="544"/>
		</contour>
		<contour>
			<point x="705" y="727" type="curve"/>
			<point x="609" y="742" type="line"/>
			<point x="607" y="678"/>
			<point x="593" y="602"/>
			<point x="568" y="559" type="curve"/>
			<point x="662" y="523" type="line"/>
			<point x="691" y="576"/>
			<point x="705" y="659"/>
		</contour>
		<contour>
			<point x="516" y="759" type="line"/>
			<point x="401" y="759" type="line"/>
			<point x="401" y="268" type="line"/>
			<point x="516" y="268" type="line"/>
		</contour>
		<contour>
			<point x="585" y="666" type="line"/>
			<point x="287" y="666" type="line"/>
			<point x="287" y="548" type="line"/>
			<point x="585" y="548" type="line"/>
		</contour>
		<contour>
			<point x="460" y="577" type="curve"/>
			<point x="385" y="607" type="line"/>
			<point x="362" y="531"/>
			<point x="313" y="447"/>
			<point x="258" y="401" type="curve"/>
			<point x="276" y="366"/>
			<point x="301" y="310"/>
			<point x="310" y="273" type="curve"/>
			<point x="381" y="338"/>
			<point x="432" y="466"/>
		</contour>
		<contour>
			<point x="611" y="760" type="curve"/>
			<point x="520" y="859" type="line"/>
			<point x="463" y="837"/>
			<point x="372" y="816"/>
			<point x="285" y="804" type="curve"/>
			<point x="298" y="777"/>
			<point x="315" y="732"/>
			<point x="320" y="705" type="curve"/>
			<point x="422" y="713"/>
			<point x="534" y="734"/>
		</contour>
		<contour>
			<point x="508" y="562" type="curve"/>
			<point x="455" y="516" type="line"/>
			<point x="481" y="483"/>
			<point x="529" y="409"/>
			<point x="548" y="370" type="curve"/>
			<point x="616" y="463" type="line"/>
			<point x="600" y="481"/>
			<point x="529" y="546"/>
		</contour>
	</outline>
</glyph>
<glyph name="uni512E" format="2">
	<advance width="1000" height="1000"/>
	<unicode hex="512E"/>
	<note>
		cid10797
	</note>
	<outline>
		<contour>
			<point x="302" y="815" type="curve"/>
			<point x="173" y="853" type="line"/>
			<point x="138" y="721"/>
			<point x="78" y="589"/>
			<point x="11" y="502" type="curve"/>
			<point x="32" y="464"/>
			<point x="65" y="378"/>
			<point x="74" y="343" type="curve"/>
			<point x="157" y="444"/>
			<point x="245" y="626"/>
		</contour>
		<contour>
			<point x="234" y="694" type="line"/>
			<point x="109" y="560" type="line"/>
			<point x="109" y="-98" type="line"/>
			<point x="238" y="-98" type="line"/>
			<point x="238" y="692" type="line"/>
		</contour>
		<contour>
			<point x="963" y="816" type="line"/>
			<point x="365" y="816" type="line"/>
			<point x="365" y="694" type="line"/>
			<point x="963" y="694" type="line"/>
		</contour>
		<contour>
			<point x="678" y="564" type="line"/>
			<point x="448" y="564" type="line"/>
			<point x="448" y="474" type="line"/>
			<point x="678" y="474" type="line"/>
		</contour>
		<contour>
			<point x="916" y="202" type="line"/>
			<point x="695" y="202" type="line"/>
			<point x="695" y="99" type="line"/>
			<point x="916" y="99" type="line"/>
		</contour>
		<contour>
			<point x="959" y="44" type="line"/>
			<point x="405" y="44" type="line"/>
			<point x="405" y="-69" type="line"/>
			<point x="959" y="-69" type="line"/>
		</contour>
		<contour>
			<point x="628" y="644" type="line"/>
			<point x="534" y="644" type="line"/>
			<point x="534" y="274" type="line"/>
			<point x="628" y="274" type="line"/>
		</contour>
		<contour>
			<point x="431" y="457" type="curve" smooth="yes"/>
			<point x="431" y="816" type="line"/>
			<point x="308" y="816" type="line"/>
			<point x="308" y="457" type="line" smooth="yes"/>
			<point x="308" y="318"/>
			<point x="303" y="114"/>
			<point x="223" y="-18" type="curve"/>
			<point x="260" y="-39"/>
			<point x="307" y="-74"/>
			<point x="326" y="-95" type="curve"/>
			<point x="416" y="52"/>
			<point x="431" y="294"/>
		</contour>
		<contour>
			<point x="770" y="272" type="line"/>
			<point x="656" y="272" type="line"/>
			<point x="656" y="-21" type="line"/>
			<point x="770" y="-21" type="line"/>
		</contour>
		<contour>
			<point x="600" y="216" type="line"/>
			<point x="492" y="216" type="line"/>
			<point x="492" y="-21" type="line"/>
			<point x="600" y="-21" type="line"/>
		</contour>
		<contour>
			<point x="573" y="475" type="curve"/>
			<point x="517" y="506" type="line"/>
			<point x="495" y="459"/>
			<point x="462" y="414"/>
			<point x="432" y="389" type="curve"/>
			<point x="445" y="362"/>
			<point x="463" y="317"/>
			<point x="470" y="288" type="curve"/>
			<point x="514" y="330"/>
			<point x="554" y="403"/>
		</contour>
		<contour>
			<point x="949" y="564" type="line"/>
			<point x="696" y="564" type="line"/>
			<point x="696" y="474" type="line"/>
			<point x="949" y="474" type="line"/>
		</contour>
		<contour>
			<point x="871" y="644" type="line"/>
			<point x="776" y="644" type="line"/>
			<point x="776" y="274" type="line"/>
			<point x="871" y="274" type="line"/>
		</contour>
		<contour>
			<point x="828" y="491" type="curve"/>
			<point x="774" y="515" type="line"/>
			<point x="751" y="448"/>
			<point x="713" y="386"/>
			<point x="676" y="354" type="curve"/>
			<point x="693" y="341"/>
			<point x="716" y="316"/>
			<point x="729" y="299" type="curve"/>
			<point x="768" y="336"/>
			<point x="806" y="410"/>
		</contour>
		<contour>
			<point x="869" y="514" type="curve"/>
			<point x="816" y="491" type="line"/>
			<point x="843" y="414"/>
			<point x="880" y="341"/>
			<point x="911" y="303" type="curve"/>
			<point x="925" y="322"/>
			<point x="951" y="349"/>
			<point x="970" y="363" type="curve"/>
			<point x="936" y="392"/>
			<point x="897" y="450"/>
		</contour>
		<contour>
			<point x="617" y="479" type="curve"/>
			<point x="574" y="441" type="line"/>
			<point x="600" y="418"/>
			<point x="628" y="388"/>
			<point x="645" y="364" type="curve"/>
			<point x="691" y="425" type="line"/>
			<point x="674" y="439"/>
			<point x="646" y="459"/>
		</contour>
		<contour>
			<point x="688" y="622" type="curve"/>
			<point x="620" y="700" type="line"/>
			<point x="577" y="681"/>
			<point x="507" y="665"/>
			<point x="445" y="656" type="curve"/>
			<point x="456" y="634"/>
			<point x="469" y="600"/>
			<point x="473" y="579" type="curve"/>
			<point x="543" y="583"/>
			<point x="626" y="600"/>
		</contour>
		<contour>
			<point x="951" y="623" type="curve"/>
			<point x="884" y="701" type="line"/>
			<point x="838" y="682"/>
			<point x="762" y="669"/>
			<point x="696" y="661" type="curve"/>
			<point x="708" y="639"/>
			<point x="720" y="604"/>
			<point x="724" y="583" type="curve"/>
			<point x="802" y="587"/>
			<point x="890" y="603"/>
		</contour>
	</outline>
</glyph>
<glyph name="uni515D" format="2">
	<advance width="1000" height="1000"/>
	<unicode hex="515D"/>
	<note>
		cid10880
	</note>
	<outline>
		<contour>
			<point x="528" y="777" type="line"/>
			<point x="37" y="777" type="line"/>
			<point x="37" y="651" type="line"/>
			<point x="528" y="651" type="line"/>
		</contour>
		<contour>
			<point x="352" y="855" type="line"/>
			<point x="217" y="855" type="line"/>
			<point x="217" y="531" type="line"/>
			<point x="352" y="531" type="line"/>
		</contour>
		<contour>
			<point x="206" y="411" type="line"/>
			<point x="206" y="475" type="line"/>
			<point x="360" y="475" type="line"/>
			<point x="360" y="411" type="line"/>
		</contour>
		<contour>
			<point x="500" y="595" type="line"/>
			<point x="75" y="595" type="line"/>
			<point x="75" y="290" type="line"/>
			<point x="500" y="290" type="line"/>
		</contour>
		<contour>
			<point x="446" y="83" type="curve" smooth="yes"/>
			<point x="446" y="321" type="line"/>
			<point x="311" y="321" type="line"/>
			<point x="311" y="82" type="line" smooth="yes"/>
			<point x="311" y="-46"/>
			<point x="359" y="-83"/>
			<point x="535" y="-83" type="curve" smooth="yes"/>
			<point x="572" y="-83"/>
			<point x="742" y="-83"/>
			<point x="782" y="-83" type="curve" smooth="yes"/>
			<point x="925" y="-83"/>
			<point x="966" y="-45"/>
			<point x="985" y="103" type="curve"/>
			<point x="948" y="110"/>
			<point x="890" y="130"/>
			<point x="859" y="151" type="curve"/>
			<point x="851" y="54"/>
			<point x="840" y="38"/>
			<point x="773" y="38" type="curve" smooth="yes"/>
			<point x="727" y="38"/>
			<point x="580" y="38"/>
			<point x="542" y="38" type="curve" smooth="yes"/>
			<point x="460" y="38"/>
			<point x="446" y="44"/>
		</contour>
		<contour>
			<point x="266" y="287" type="curve" smooth="yes"/>
			<point x="266" y="335" type="line"/>
			<point x="133" y="335" type="line"/>
			<point x="133" y="293" type="line" smooth="yes"/>
			<point x="133" y="221"/>
			<point x="120" y="92"/>
			<point x="12" y="8" type="curve"/>
			<point x="42" y="-16"/>
			<point x="88" y="-66"/>
			<point x="107" y="-97" type="curve"/>
			<point x="246" y="14"/>
			<point x="266" y="196"/>
		</contour>
		<contour>
			<point x="862" y="524" type="line"/>
			<point x="542" y="524" type="line"/>
			<point x="542" y="406" type="line"/>
			<point x="862" y="406" type="line"/>
		</contour>
		<contour>
			<point x="925" y="524" type="curve"/>
			<point x="798" y="524" type="line"/>
			<point x="798" y="504" type="line"/>
			<point x="795" y="318"/>
			<point x="793" y="247"/>
			<point x="782" y="231" type="curve" smooth="yes"/>
			<point x="775" y="221"/>
			<point x="767" y="219"/>
			<point x="756" y="219" type="curve" smooth="yes"/>
			<point x="742" y="219"/>
			<point x="720" y="219"/>
			<point x="693" y="222" type="curve"/>
			<point x="711" y="191"/>
			<point x="724" y="141"/>
			<point x="726" y="105" type="curve"/>
			<point x="766" y="104"/>
			<point x="802" y="105"/>
			<point x="826" y="110" type="curve" smooth="yes"/>
			<point x="853" y="115"/>
			<point x="874" y="124"/>
			<point x="893" y="150" type="curve" smooth="yes"/>
			<point x="915" y="180"/>
			<point x="920" y="269"/>
			<point x="924" y="478" type="curve" smooth="yes"/>
			<point x="924" y="493"/>
			<point x="925" y="524"/>
		</contour>
		<contour>
			<point x="750" y="441" type="curve" smooth="yes"/>
			<point x="750" y="485" type="line"/>
			<point x="632" y="485" type="line"/>
			<point x="632" y="446" type="line" smooth="yes"/>
			<point x="632" y="326"/>
			<point x="589" y="245"/>
			<point x="490" y="177" type="curve"/>
			<point x="521" y="156"/>
			<point x="565" y="120"/>
			<point x="586" y="96" type="curve"/>
			<point x="695" y="169"/>
			<point x="750" y="276"/>
		</contour>
		<contour>
			<point x="838" y="832" type="line"/>
			<point x="627" y="832" type="line"/>
			<point x="627" y="709" type="line"/>
			<point x="838" y="709" type="line"/>
		</contour>
		<contour>
			<point x="702" y="695" type="curve"/>
			<point x="575" y="721" type="line"/>
			<point x="559" y="640"/>
			<point x="519" y="575"/>
			<point x="485" y="550" type="curve"/>
			<point x="513" y="521"/>
			<point x="546" y="483"/>
			<point x="571" y="451" type="curve"/>
			<point x="626" y="495"/>
			<point x="677" y="589"/>
		</contour>
		<contour>
			<point x="867" y="832" type="curve"/>
			<point x="735" y="832" type="line"/>
			<point x="735" y="774" type="line"/>
			<point x="756" y="774" type="line"/>
			<point x="774" y="654"/>
			<point x="817" y="530"/>
			<point x="882" y="447" type="curve"/>
			<point x="904" y="476"/>
			<point x="952" y="522"/>
			<point x="982" y="542" type="curve"/>
			<point x="922" y="606"/>
			<point x="883" y="719"/>
		</contour>
	</outline>
</glyph>
<glyph name="uni516C" format="2">
	<advance width="1000" height="1000"/>
	<unicode hex="516C"/>
	<note>
		cid62102
	</note>
	<outline>
		<contour>
			<point x="569" y="449" type="curve"/>
			<point x="394" y="491" type="line"/>
			<point x="356" y="355"/>
			<point x="284" y="185"/>
			<point x="216" y="70" type="curve"/>
			<point x="350" y="28" type="line"/>
			<point x="419" y="134"/>
			<point x="504" y="296"/>
		</contour>
		<contour>
			<point x="85" y="100" type="curve"/>
			<point x="101" y="-52" type="line"/>
			<point x="283" y="-46"/>
			<point x="546" y="-36"/>
			<point x="789" y="-24" type="curve"/>
			<point x="795" y="118" type="line"/>
			<point x="547" y="110"/>
			<point x="268" y="103"/>
		</contour>
		<contour>
			<point x="734" y="329" type="curve"/>
			<point x="596" y="265" type="line"/>
			<point x="683" y="154"/>
			<point x="778" y="-1"/>
			<point x="816" y="-102" type="curve"/>
			<point x="964" y="-24" type="line"/>
			<point x="918" y="77"/>
			<point x="826" y="220"/>
		</contour>
		<contour>
			<point x="672" y="837" type="line"/>
			<point x="340" y="837" type="line"/>
			<point x="340" y="695" type="line"/>
			<point x="672" y="695" type="line"/>
		</contour>
		<contour>
			<point x="716" y="837" type="curve"/>
			<point x="545" y="837" type="line"/>
			<point x="545" y="760" type="line"/>
			<point x="575" y="760" type="line"/>
			<point x="622" y="615"/>
			<point x="738" y="456"/>
			<point x="876" y="348" type="curve"/>
			<point x="903" y="395"/>
			<point x="947" y="445"/>
			<point x="992" y="477" type="curve"/>
			<point x="859" y="551"/>
			<point x="753" y="690"/>
		</contour>
		<contour>
			<point x="364" y="679" type="curve"/>
			<point x="207" y="726" type="line"/>
			<point x="176" y="617"/>
			<point x="105" y="508"/>
			<point x="23" y="443" type="curve"/>
			<point x="61" y="415"/>
			<point x="106" y="374"/>
			<point x="138" y="339" type="curve"/>
			<point x="226" y="410"/>
			<point x="313" y="541"/>
		</contour>
	</outline>
</glyph>
<glyph name="uni5170" format="2">
	<advance width="1000" height="1000"/>
	<unicode hex="5170"/>
	<note>
		cid10917
	</note>
	<outline>
		<contour>
			<point x="317" y="856" type="curve"/>
			<point x="197" y="796" type="line"/>
			<point x="242" y="736"/>
			<point x="283" y="662"/>
			<point x="302" y="603" type="curve"/>
			<point x="429" y="672" type="line"/>
			<point x="408" y="728"/>
			<point x="365" y="799"/>
		</contour>
		<contour>
			<point x="820" y="805" type="curve"/>
			<point x="666" y="856" type="line"/>
			<point x="641" y="787"/>
			<point x="606" y="714"/>
			<point x="575" y="667" type="curve"/>
			<point x="696" y="621" type="line"/>
			<point x="729" y="665"/>
			<point x="777" y="736"/>
		</contour>
		<contour>
			<point x="802" y="368" type="line"/>
			<point x="190" y="368" type="line"/>
			<point x="190" y="224" type="line"/>
			<point x="802" y="224" type="line"/>
		</contour>
		<contour>
			<point x="937" y="80" type="line"/>
			<point x="63" y="80" type="line"/>
			<point x="63" y="-64" type="line"/>
			<point x="937" y="-64" type="line"/>
		</contour>
		<contour>
			<point x="883" y="648" type="line"/>
			<point x="117" y="648" type="line"/>
			<point x="117" y="504" type="line"/>
			<point x="883" y="504" type="line"/>
		</contour>
	</outline>
</glyph>
<glyph name="uni5173" format="2">
	<advance width="1000" height="1000"/>
	<unicode hex="5173"/>
	<note>
		cid10921
	</note>
	<outline>
		<contour>
			<point x="317" y="856" type="curve"/>
			<point x="197" y="796" type="line"/>
			<point x="238" y="742"/>
			<point x="281" y="667"/>
			<point x="297" y="618" type="curve"/>
			<point x="424" y="687" type="line"/>
			<point x="404" y="736"/>
			<point x="361" y="805"/>
		</contour>
		<contour>
			<point x="820" y="805" type="curve"/>
			<point x="666" y="856" type="line"/>
			<point x="644" y="796"/>
			<point x="611" y="729"/>
			<point x="580" y="682" type="curve"/>
			<point x="701" y="636" type="line"/>
			<point x="734" y="676"/>
			<point x="780" y="741"/>
		</contour>
		<contour>
			<point x="886" y="650" type="line"/>
			<point x="116" y="650" type="line"/>
			<point x="116" y="506" type="line"/>
			<point x="886" y="506" type="line"/>
		</contour>
		<contour>
			<point x="937" y="405" type="line"/>
			<point x="65" y="405" type="line"/>
			<point x="65" y="261" type="line"/>
			<point x="937" y="261" type="line"/>
		</contour>
		<contour>
			<point x="571" y="357" type="curve"/>
			<point x="437" y="323" type="line"/>
			<point x="496" y="114"/>
			<point x="648" y="-36"/>
			<point x="860" y="-95" type="curve"/>
			<point x="882" y="-51"/>
			<point x="928" y="17"/>
			<point x="963" y="52" type="curve"/>
			<point x="759" y="93"/>
			<point x="619" y="202"/>
		</contour>
		<contour>
			<point x="587" y="381" type="curve" smooth="yes"/>
			<point x="587" y="609" type="line"/>
			<point x="415" y="609" type="line"/>
			<point x="415" y="384" type="line" smooth="yes"/>
			<point x="415" y="260"/>
			<point x="364" y="127"/>
			<point x="39" y="37" type="curve"/>
			<point x="77" y="3"/>
			<point x="125" y="-60"/>
			<point x="144" y="-95" type="curve"/>
			<point x="510" y="16"/>
			<point x="587" y="205"/>
		</contour>
	</outline>
</glyph>
<glyph name="uni5241" format="2">
	<advance width="1000" height="1000"/>
	<unicode hex="5241"/>
	<note>
		cid11222
	</note>
	<outline>
		<contour>
			<point x="569" y="345" type="line"/>
			<point x="40" y="345" type="line"/>
			<point x="40" y="221" type="line"/>
			<point x="569" y="221" type="line"/>
		</contour>
		<contour>
			<point x="379" y="447" type="line"/>
			<point x="240" y="447" type="line"/>
			<point x="240" y="-95" type="line"/>
			<point x="379" y="-95" type="line"/>
		</contour>
		<contour>
			<point x="343" y="238" type="curve"/>
			<point x="247" y="289" type="line"/>
			<point x="206" y="211"/>
			<point x="120" y="131"/>
			<point x="24" y="80" type="curve"/>
			<point x="46" y="42"/>
			<point x="77" y="-21"/>
			<point x="89" y="-63" type="curve"/>
			<point x="194" y="6"/>
			<point x="292" y="122"/>
		</contour>
		<contour>
			<point x="734" y="746" type="line"/>
			<point x="599" y="746" type="line"/>
			<point x="599" y="179" type="line"/>
			<point x="734" y="179" type="line"/>
		</contour>
		<contour>
			<point x="943" y="71" type="curve" smooth="yes"/>
			<point x="943" y="832" type="line"/>
			<point x="802" y="832" type="line"/>
			<point x="802" y="72" type="line" smooth="yes"/>
			<point x="802" y="55"/>
			<point x="796" y="50"/>
			<point x="779" y="50" type="curve" smooth="yes"/>
			<point x="760" y="50"/>
			<point x="705" y="50"/>
			<point x="652" y="53" type="curve"/>
			<point x="671" y="11"/>
			<point x="692" y="-55"/>
			<point x="697" y="-96" type="curve"/>
			<point x="781" y="-96"/>
			<point x="845" y="-91"/>
			<point x="887" y="-67" type="curve" smooth="yes"/>
			<point x="930" y="-43"/>
			<point x="943" y="-4"/>
		</contour>
		<contour>
			<point x="405" y="822" type="line"/>
			<point x="215" y="822" type="line"/>
			<point x="215" y="689" type="line"/>
			<point x="405" y="689" type="line"/>
		</contour>
		<contour>
			<point x="262" y="697" type="curve" smooth="yes"/>
			<point x="262" y="822" type="line"/>
			<point x="135" y="822" type="line"/>
			<point x="135" y="700" type="line" smooth="yes"/>
			<point x="135" y="631"/>
			<point x="123" y="552"/>
			<point x="25" y="495" type="curve"/>
			<point x="48" y="472"/>
			<point x="94" y="408"/>
			<point x="107" y="378" type="curve"/>
			<point x="246" y="464"/>
			<point x="262" y="593"/>
		</contour>
		<contour>
			<point x="364" y="207" type="curve"/>
			<point x="283" y="136" type="line"/>
			<point x="354" y="84"/>
			<point x="437" y="17"/>
			<point x="498" y="-39" type="curve"/>
			<point x="584" y="76" type="line"/>
			<point x="512" y="122"/>
			<point x="428" y="173"/>
		</contour>
		<contour>
			<point x="462" y="607" type="curve" smooth="yes"/>
			<point x="462" y="822" type="line"/>
			<point x="336" y="822" type="line"/>
			<point x="336" y="605" type="line" smooth="yes"/>
			<point x="336" y="487"/>
			<point x="367" y="450"/>
			<point x="460" y="450" type="curve" smooth="yes"/>
			<point x="470" y="450"/>
			<point x="481" y="450"/>
			<point x="491" y="450" type="curve" smooth="yes"/>
			<point x="548" y="450"/>
			<point x="573" y="490"/>
			<point x="581" y="633" type="curve"/>
			<point x="552" y="640"/>
			<point x="518" y="661"/>
			<point x="493" y="687" type="curve"/>
			<point x="491" y="588"/>
			<point x="488" y="573"/>
			<point x="478" y="573" type="curve" smooth="yes"/>
			<point x="477" y="573"/>
			<point x="474" y="573"/>
			<point x="473" y="573" type="curve" smooth="yes"/>
			<point x="466" y="573"/>
			<point x="462" y="577"/>
		</contour>
	</outline>
</glyph>
<glyph name="uni524E" format="2">
	<advance width="1000"/>
	<unicode hex="524E"/>
	<outline>
		<contour>
			<point x="349" y="232" type="curve"/>
			<point x="247" y="283" type="line"/>
			<point x="191" y="200"/>
			<point x="103" y="119"/>
			<point x="19" y="74" type="curve"/>
			<point x="44" y="44"/>
			<point x="76" y="-10"/>
			<point x="92" y="-45" type="curve"/>
			<point x="187" y="20"/>
			<point x="286" y="127"/>
		</contour>
		<contour>
			<point x="388" y="479" type="line"/>
			<point x="257" y="479" type="line"/>
			<point x="257" y="-93" type="line"/>
			<point x="388" y="-93" type="line"/>
		</contour>
		<contour>
			<point x="364" y="250" type="curve"/>
			<point x="294" y="181" type="line"/>
			<point x="351" y="136"/>
			<point x="427" y="66"/>
			<point x="491" y="-1" type="curve"/>
			<point x="566" y="113" type="line"/>
			<point x="503" y="160"/>
			<point x="425" y="212"/>
		</contour>
		<contour>
			<point x="558" y="365" type="line"/>
			<point x="40" y="365" type="line"/>
			<point x="40" y="244" type="line"/>
			<point x="558" y="244" type="line"/>
		</contour>
		<contour>
			<point x="476" y="511" type="curve"/>
			<point x="386" y="447" type="line"/>
			<point x="425" y="413"/>
			<point x="461" y="374"/>
			<point x="479" y="346" type="curve"/>
			<point x="573" y="417" type="line"/>
			<point x="553" y="445"/>
			<point x="516" y="481"/>
		</contour>
		<contour>
			<point x="557" y="781" type="curve"/>
			<point x="429" y="829" type="line"/>
			<point x="356" y="714"/>
			<point x="200" y="605"/>
			<point x="25" y="547" type="curve"/>
			<point x="52" y="521"/>
			<point x="98" y="466"/>
			<point x="117" y="437" type="curve"/>
			<point x="297" y="512"/>
			<point x="466" y="645"/>
		</contour>
		<contour>
			<point x="148" y="801" type="curve"/>
			<point x="56" y="718" type="line"/>
			<point x="180" y="656"/>
			<point x="328" y="562"/>
			<point x="439" y="474" type="curve"/>
			<point x="539" y="570" type="line"/>
			<point x="425" y="652"/>
			<point x="275" y="741"/>
		</contour>
		<contour>
			<point x="745" y="746" type="line"/>
			<point x="611" y="746" type="line"/>
			<point x="611" y="179" type="line"/>
			<point x="745" y="179" type="line"/>
		</contour>
		<contour>
			<point x="945" y="70" type="curve" smooth="yes"/>
			<point x="945" y="836" type="line"/>
			<point x="808" y="836" type="line"/>
			<point x="808" y="71" type="line" smooth="yes"/>
			<point x="808" y="55"/>
			<point x="802" y="50"/>
			<point x="786" y="50" type="curve" smooth="yes"/>
			<point x="769" y="50"/>
			<point x="718" y="50"/>
			<point x="671" y="52" type="curve"/>
			<point x="689" y="12"/>
			<point x="708" y="-51"/>
			<point x="713" y="-90" type="curve"/>
			<point x="793" y="-90"/>
			<point x="852" y="-85"/>
			<point x="893" y="-62" type="curve" smooth="yes"/>
			<point x="933" y="-40"/>
			<point x="945" y="-2"/>
		</contour>
	</outline>
</glyph>
<glyph name="uni5262" format="2">
	<advance width="1000" height="1000"/>
	<unicode hex="5262"/>
	<note>
		cid11272
	</note>
	<outline>
		<contour>
			<point x="584" y="796" type="line"/>
			<point x="75" y="796" type="line"/>
			<point x="75" y="678" type="line"/>
			<point x="584" y="678" type="line"/>
		</contour>
		<contour>
			<point x="312" y="629" type="curve"/>
			<point x="213" y="554" type="line"/>
			<point x="345" y="418"/>
			<point x="375" y="132"/>
			<point x="328" y="66" type="curve" smooth="yes"/>
			<point x="310" y="41"/>
			<point x="281" y="38"/>
			<point x="258" y="38" type="curve" smooth="yes"/>
			<point x="246" y="38"/>
			<point x="209" y="39"/>
			<point x="179" y="43" type="curve"/>
			<point x="200" y="5"/>
			<point x="210" y="-52"/>
			<point x="211" y="-92" type="curve"/>
			<point x="241" y="-94"/>
			<point x="270" y="-93"/>
			<point x="299" y="-93" type="curve" smooth="yes"/>
			<point x="365" y="-92"/>
			<point x="414" y="-66"/>
			<point x="447" y="-23" type="curve" smooth="yes"/>
			<point x="536" y="93"/>
			<point x="495" y="460"/>
		</contour>
		<contour>
			<point x="394" y="491" type="curve"/>
			<point x="290" y="530" type="line"/>
			<point x="235" y="439"/>
			<point x="127" y="349"/>
			<point x="19" y="302" type="curve"/>
			<point x="45" y="280"/>
			<point x="82" y="236"/>
			<point x="100" y="208" type="curve"/>
			<point x="215" y="268"/>
			<point x="327" y="375"/>
		</contour>
		<contour>
			<point x="457" y="347" type="curve"/>
			<point x="350" y="390" type="line"/>
			<point x="284" y="272"/>
			<point x="154" y="155"/>
			<point x="11" y="87" type="curve"/>
			<point x="38" y="64"/>
			<point x="77" y="18"/>
			<point x="96" y="-11" type="curve"/>
			<point x="241" y="68"/>
			<point x="380" y="206"/>
		</contour>
		<contour>
			<point x="602" y="504" type="curve"/>
			<point x="495" y="579" type="line"/>
			<point x="457" y="526"/>
			<point x="392" y="458"/>
			<point x="344" y="417" type="curve"/>
			<point x="436" y="348" type="line"/>
			<point x="485" y="387"/>
			<point x="549" y="447"/>
		</contour>
		<contour>
			<point x="464" y="711" type="curve"/>
			<point x="341" y="753" type="line"/>
			<point x="279" y="656"/>
			<point x="157" y="577"/>
			<point x="30" y="532" type="curve"/>
			<point x="56" y="508"/>
			<point x="98" y="454"/>
			<point x="116" y="427" type="curve"/>
			<point x="249" y="488"/>
			<point x="385" y="588"/>
		</contour>
		<contour>
			<point x="440" y="384" type="curve"/>
			<point x="362" y="304" type="line"/>
			<point x="427" y="245"/>
			<point x="501" y="161"/>
			<point x="531" y="102" type="curve"/>
			<point x="616" y="193" type="line"/>
			<point x="584" y="251"/>
			<point x="506" y="329"/>
		</contour>
		<contour>
			<point x="747" y="746" type="line"/>
			<point x="613" y="746" type="line"/>
			<point x="613" y="179" type="line"/>
			<point x="747" y="179" type="line"/>
		</contour>
		<contour>
			<point x="945" y="70" type="curve" smooth="yes"/>
			<point x="945" y="836" type="line"/>
			<point x="808" y="836" type="line"/>
			<point x="808" y="71" type="line" smooth="yes"/>
			<point x="808" y="55"/>
			<point x="802" y="50"/>
			<point x="786" y="50" type="curve" smooth="yes"/>
			<point x="769" y="50"/>
			<point x="718" y="50"/>
			<point x="671" y="52" type="curve"/>
			<point x="689" y="12"/>
			<point x="708" y="-51"/>
			<point x="713" y="-90" type="curve"/>
			<point x="793" y="-90"/>
			<point x="852" y="-85"/>
			<point x="893" y="-62" type="curve" smooth="yes"/>
			<point x="933" y="-40"/>
			<point x="945" y="-2"/>
		</contour>
		<contour>
			<point x="172" y="453" type="curve"/>
			<point x="83" y="389" type="line"/>
			<point x="134" y="330"/>
			<point x="174" y="265"/>
			<point x="187" y="220" type="curve"/>
			<point x="283" y="291" type="line"/>
			<point x="268" y="335"/>
			<point x="225" y="398"/>
		</contour>
	</outline>
</glyph>
<glyph name="uni529E" format="2">
	<advance width="1000" height="1000"/>
	<unicode hex="529E"/>
	<note>
		cid11380
	</note>
	<outline>
		<contour>
			<point x="685" y="691" type="line"/>
			<point x="78" y="691" type="line"/>
			<point x="78" y="544" type="line"/>
			<point x="685" y="544" type="line"/>
		</contour>
		<contour>
			<point x="767" y="691" type="curve"/>
			<point x="608" y="691" type="line"/>
			<point x="608" y="659" type="line"/>
			<point x="604" y="288"/>
			<point x="591" y="107"/>
			<point x="561" y="75" type="curve" smooth="yes"/>
			<point x="548" y="61"/>
			<point x="537" y="57"/>
			<point x="518" y="57" type="curve" smooth="yes"/>
			<point x="490" y="57"/>
			<point x="439" y="57"/>
			<point x="382" y="62" type="curve"/>
			<point x="409" y="18"/>
			<point x="431" y="-50"/>
			<point x="433" y="-94" type="curve"/>
			<point x="493" y="-95"/>
			<point x="556" y="-96"/>
			<point x="596" y="-88" type="curve" smooth="yes"/>
			<point x="642" y="-80"/>
			<point x="674" y="-66"/>
			<point x="707" y="-20" type="curve" smooth="yes"/>
			<point x="747" y="34"/>
			<point x="758" y="208"/>
			<point x="766" y="619" type="curve" smooth="yes"/>
			<point x="766" y="639"/>
			<point x="767" y="691"/>
		</contour>
		<contour>
			<point x="490" y="624" type="curve" smooth="yes"/>
			<point x="490" y="852" type="line"/>
			<point x="330" y="852" type="line"/>
			<point x="330" y="625" type="line" smooth="yes"/>
			<point x="330" y="421"/>
			<point x="303" y="160"/>
			<point x="25" y="25" type="curve"/>
			<point x="62" y="-3"/>
			<point x="113" y="-59"/>
			<point x="141" y="-102" type="curve"/>
			<point x="450" y="73"/>
			<point x="490" y="380"/>
		</contour>
		<contour>
			<point x="280" y="471" type="curve"/>
			<point x="140" y="508" type="line"/>
			<point x="121" y="398"/>
			<point x="71" y="307"/>
			<point x="9" y="254" type="curve"/>
			<point x="135" y="169" type="line"/>
			<point x="197" y="236"/>
			<point x="253" y="344"/>
		</contour>
		<contour>
			<point x="888" y="521" type="curve"/>
			<point x="753" y="474" type="line"/>
			<point x="799" y="370"/>
			<point x="835" y="249"/>
			<point x="847" y="161" type="curve"/>
			<point x="991" y="219" type="line"/>
			<point x="977" y="300"/>
			<point x="937" y="417"/>
		</contour>
	</outline>
</glyph>
<glyph name="uni52A8" format="2">
	<advance width="1000" height="1000"/>
	<unicode hex="52A8"/>
	<note>
		cid11393
	</note>
	<outline>
		<contour>
			<point x="430" y="780" type="line"/>
			<point x="66" y="780" type="line"/>
			<point x="66" y="647" type="line"/>
			<point x="430" y="647" type="line"/>
		</contour>
		<contour>
			<point x="455" y="553" type="line"/>
			<point x="36" y="553" type="line"/>
			<point x="36" y="418" type="line"/>
			<point x="455" y="418" type="line"/>
		</contour>
		<contour>
			<point x="278" y="454" type="curve"/>
			<point x="133" y="478" type="line"/>
			<point x="119" y="367"/>
			<point x="95" y="239"/>
			<point x="69" y="147" type="curve"/>
			<point x="189" y="121" type="line"/>
			<point x="220" y="214"/>
			<point x="254" y="342"/>
		</contour>
		<contour>
			<point x="13" y="168" type="curve"/>
			<point x="56" y="29" type="line"/>
			<point x="161" y="51"/>
			<point x="313" y="86"/>
			<point x="451" y="119" type="curve"/>
			<point x="439" y="247" type="line"/>
			<point x="284" y="215"/>
			<point x="120" y="185"/>
		</contour>
		<contour>
			<point x="398" y="375" type="curve"/>
			<point x="277" y="338" type="line"/>
			<point x="319" y="246"/>
			<point x="352" y="136"/>
			<point x="363" y="54" type="curve"/>
			<point x="495" y="97" type="line"/>
			<point x="480" y="179"/>
			<point x="443" y="287"/>
		</contour>
		<contour>
			<point x="872" y="664" type="line"/>
			<point x="472" y="664" type="line"/>
			<point x="472" y="522" type="line"/>
			<point x="872" y="522" type="line"/>
		</contour>
		<contour>
			<point x="962" y="664" type="curve"/>
			<point x="817" y="664" type="line"/>
			<point x="817" y="633" type="line"/>
			<point x="809" y="246"/>
			<point x="798" y="97"/>
			<point x="773" y="67" type="curve"/>
			<point x="763" y="52"/>
			<point x="753" y="48"/>
			<point x="737" y="48" type="curve" smooth="yes"/>
			<point x="715" y="48"/>
			<point x="678" y="48"/>
			<point x="635" y="52" type="curve"/>
			<point x="659" y="12"/>
			<point x="676" y="-50"/>
			<point x="678" y="-90" type="curve"/>
			<point x="729" y="-91"/>
			<point x="778" y="-91"/>
			<point x="812" y="-84" type="curve" smooth="yes"/>
			<point x="850" y="-76"/>
			<point x="876" y="-63"/>
			<point x="903" y="-23" type="curve" smooth="yes"/>
			<point x="938" y="27"/>
			<point x="950" y="182"/>
			<point x="961" y="599" type="curve"/>
			<point x="962" y="617"/>
			<point x="962" y="664"/>
		</contour>
		<contour>
			<point x="731" y="530" type="curve" smooth="yes"/>
			<point x="731" y="848" type="line"/>
			<point x="583" y="848" type="line"/>
			<point x="583" y="530" type="line" smooth="yes"/>
			<point x="583" y="362"/>
			<point x="557" y="163"/>
			<point x="358" y="5" type="curve"/>
			<point x="396" y="-21"/>
			<point x="446" y="-61"/>
			<point x="473" y="-95" type="curve"/>
			<point x="692" y="78"/>
			<point x="731" y="315"/>
		</contour>
	</outline>
</glyph>
<glyph name="uni535F" format="2">
	<advance width="1000" height="1000"/>
	<unicode hex="535F"/>
	<note>
		cid11692
	</note>
	<outline>
		<contour>
			<point x="435" y="750" type="line"/>
			<point x="119" y="750" type="line"/>
			<point x="119" y="607" type="line"/>
			<point x="285" y="607" type="line"/>
			<point x="285" y="311" type="line"/>
			<point x="119" y="311" type="line"/>
			<point x="119" y="168" type="line"/>
			<point x="435" y="168" type="line"/>
		</contour>
		<contour>
			<point x="212" y="750" type="line"/>
			<point x="61" y="750" type="line"/>
			<point x="61" y="97" type="line"/>
			<point x="212" y="97" type="line"/>
		</contour>
		<contour>
			<point x="681" y="842" type="line"/>
			<point x="529" y="842" type="line"/>
			<point x="529" y="-94" type="line"/>
			<point x="681" y="-94" type="line"/>
		</contour>
		<contour>
			<point x="660" y="547" type="curve"/>
			<point x="578" y="428" type="line"/>
			<point x="678" y="374"/>
			<point x="803" y="295"/>
			<point x="902" y="225" type="curve"/>
			<point x="994" y="354" type="line"/>
			<point x="889" y="421"/>
			<point x="760" y="496"/>
		</contour>
	</outline>
</glyph>
<glyph name="uni53D1" format="2">
	<advance width="1000" height="1000"/>
	<unicode hex="53D1"/>
	<note>
		cid11872
	</note>
	<outline>
		<contour>
			<point x="441" y="398" type="curve"/>
			<point x="316" y="362" type="line"/>
			<point x="424" y="112"/>
			<point x="593" y="-36"/>
			<point x="896" y="-96" type="curve"/>
			<point x="916" y="-56"/>
			<point x="956" y="6"/>
			<point x="987" y="37" type="curve"/>
			<point x="701" y="80"/>
			<point x="525" y="202"/>
		</contour>
		<contour>
			<point x="757" y="445" type="line"/>
			<point x="728" y="445" type="line"/>
			<point x="728" y="421" type="line"/>
			<point x="663" y="213"/>
			<point x="506" y="84"/>
			<point x="255" y="33" type="curve"/>
			<point x="283" y="1"/>
			<point x="316" y="-57"/>
			<point x="332" y="-96" type="curve"/>
			<point x="623" y="-25"/>
			<point x="807" y="141"/>
			<point x="886" y="404" type="curve"/>
			<point x="784" y="451" type="line"/>
		</contour>
		<contour>
			<point x="749" y="445" type="line"/>
			<point x="395" y="445" type="line"/>
			<point x="353" y="305" type="line"/>
			<point x="749" y="305" type="line"/>
		</contour>
		<contour>
			<point x="313" y="815" type="curve"/>
			<point x="161" y="837" type="line"/>
			<point x="134" y="725"/>
			<point x="94" y="593"/>
			<point x="58" y="494" type="curve"/>
			<point x="212" y="472" type="line"/>
			<point x="245" y="567"/>
			<point x="284" y="699"/>
		</contour>
		<contour>
			<point x="954" y="652" type="line"/>
			<point x="160" y="652" type="line"/>
			<point x="160" y="514" type="line"/>
			<point x="954" y="514" type="line"/>
		</contour>
		<contour>
			<point x="532" y="855" type="curve"/>
			<point x="380" y="855" type="line"/>
			<point x="380" y="522"/>
			<point x="240" y="211"/>
			<point x="17" y="48" type="curve"/>
			<point x="67" y="19"/>
			<point x="112" y="-18"/>
			<point x="142" y="-57" type="curve"/>
			<point x="382" y="144"/>
			<point x="532" y="495"/>
		</contour>
		<contour>
			<point x="686" y="855" type="curve"/>
			<point x="594" y="757" type="line"/>
			<point x="662" y="726"/>
			<point x="733" y="683"/>
			<point x="780" y="644" type="curve"/>
			<point x="878" y="752" type="line"/>
			<point x="826" y="789"/>
			<point x="752" y="829"/>
		</contour>
	</outline>
</glyph>
<glyph name="uni53EA" format="2">
	<advance width="1000" height="1000"/>
	<unicode hex="53EA"/>
	<note>
		cid11909
	</note>
	<outline>
		<contour>
			<point x="875" y="798" type="line"/>
			<point x="152" y="798" type="line"/>
			<point x="152" y="267" type="line"/>
			<point x="875" y="267" type="line"/>
		</contour>
		<contour>
			<point x="299" y="406" type="line"/>
			<point x="299" y="659" type="line"/>
			<point x="721" y="659" type="line"/>
			<point x="721" y="406" type="line"/>
		</contour>
		<contour>
			<point x="676" y="213" type="curve"/>
			<point x="552" y="134" type="line"/>
			<point x="643" y="65"/>
			<point x="764" y="-35"/>
			<point x="818" y="-99" type="curve"/>
			<point x="953" y="-9" type="line"/>
			<point x="890" y="58"/>
			<point x="763" y="151"/>
		</contour>
		<contour>
			<point x="466" y="148" type="curve"/>
			<point x="308" y="211" type="line"/>
			<point x="253" y="144"/>
			<point x="139" y="58"/>
			<point x="36" y="8" type="curve"/>
			<point x="72" y="-17"/>
			<point x="128" y="-64"/>
			<point x="160" y="-96" type="curve"/>
			<point x="263" y="-37"/>
			<point x="381" y="57"/>
		</contour>
	</outline>
</glyph>
